<svg width="483" height="542" xmlns="http://www.w3.org/2000/svg"><g id="Page-1" stroke="none" stroke-width="1" fill="none" fill-rule="evenodd"><g id="undraw_Memory_storage_logoV2-Copy"><ellipse id="Oval" fill="#3F3D56" fill-rule="nonzero" cx="237.5" cy="510" rx="182.5" ry="32"/><path d="M88 206c0-48.049 68.948-87 154-87s154 38.951 154 87" id="Path" stroke="#3F3D56" stroke-width="2"/><path d="M341 433c0 39.797 24.6 72 55 72" id="Path" fill="#3F3D56" fill-rule="nonzero"/><path d="M398 505c0-39.797 27.73-72 62-72m-98 2c0 37.586 16.102 68 36 68" id="Path" fill="#36AAE1" fill-rule="nonzero"/><path d="M396 500c0-50.299 32.203-91 72-91" id="Path" fill="#3F3D56" fill-rule="nonzero"/><path d="M385 503.29s7.525-.245 9.793-1.949c2.267-1.703 11.575-3.737 12.137-1.005.563 2.732 11.309 13.59 2.813 13.661-8.495.073-19.74-1.396-22.003-2.85-2.263-1.455-2.74-7.857-2.74-7.857z" id="Path" fill="#A8A8A8" fill-rule="nonzero"/><g id="mongodb" transform="translate(132)" fill-rule="nonzero"><ellipse id="Oval-Copy" fill="#FFF" cx="67.5" cy="68" rx="67.5" ry="68"/><path d="M71.177 127.964l-2.942-1.094s.36-16.309-5.024-17.48c-3.588-4.526.575-191.971 13.494-.624 0 0-4.45 2.418-5.24 6.555-.862 4.059-.288 12.643-.288 12.643z" id="Path" fill="#FFF"/><path d="M71.177 127.964l-2.942-1.094s.36-16.309-5.024-17.48c-3.588-4.526.575-191.971 13.494-.624 0 0-4.45 2.418-5.24 6.555-.862 4.059-.288 12.643-.288 12.643z" id="Path" fill="#A6A385"/><path d="M72.35 111.273s27.637-18.375 21.17-56.6c-6.235-27.792-20.939-36.9-22.556-40.405-1.77-2.49-3.464-6.85-3.464-6.85l1.155 77.306c0 .078-2.386 23.667 3.696 26.549" id="Path" fill="#FFF"/><path d="M72.35 111.273s27.637-18.375 21.17-56.6c-6.235-27.792-20.939-36.9-22.556-40.405-1.77-2.49-3.464-6.85-3.464-6.85l1.155 77.306c0 .078-2.386 23.667 3.696 26.549" id="Path" fill="#499D4A"/><path d="M66.669 112.51S39.574 94.617 41.183 63.114C42.71 31.61 61.844 16.13 65.543 13.33c2.412-2.49 2.492-3.424 2.653-5.913 1.689 3.5 1.367 52.352 1.607 58.107.724 22.17-1.285 42.785-3.134 46.984z" id="Path" fill="#FFF"/><path d="M66.669 112.51S39.574 94.617 41.183 63.114C42.71 31.61 61.844 16.13 65.543 13.33c2.412-2.49 2.492-3.424 2.653-5.913 1.689 3.5 1.367 52.352 1.607 58.107.724 22.17-1.285 42.785-3.134 46.984z" id="Path" fill="#58AA50"/></g><path d="M409.897 514.2c-8.496.06-19.742-1.173-22.005-2.394-1.724-.93-2.41-4.267-2.64-5.806l-.252.009s.477 5.375 2.74 6.596c2.264 1.22 13.509 2.454 22.005 2.393 2.453-.018 3.3-.79 3.253-1.935-.34.692-1.276 1.123-3.101 1.136z" id="Path" fill="#000" fill-rule="nonzero" opacity=".2"/><path d="M213.422 127.893c.727.336 1.601-.165 2.03-.845 1.631-2.589-1.373-5.927-.722-8.923.52-2.4 3.229-3.824 3.782-6.217.538-2.325-1.12-4.945.001-7.049.878-1.648 3.07-2.081 4.905-1.793 1.835.29 3.577 1.101 5.43 1.215 2.47.152 4.824-.943 7.24-1.486 2.415-.542 5.36-.33 6.781 1.71 1.825 2.62-.026 6.268.61 9.403.504 2.49 2.573 4.551 2.618 7.092.015.903-2.342.175-2.216 1.07.125.894-.99.106-.099 0a1.773 1.773 0 001.34-1.605c.106-.745 1.496-.993 1.48-1.745-.037-1.763 3.128-.575 3.649-2.258a17.183 17.183 0 00-.693-11.909c-.71-1.604-1.676-3.121-2.019-4.843-.465-2.338.267-4.847-.5-7.102-1.033-3.04-4.453-4.59-7.628-4.904-3.175-.315-6.4.249-9.557-.215-2.828-.416-5.566-1.65-8.418-1.471-3.423.214-6.4 2.435-8.773 4.928-2.373 2.494-4.385 5.362-7.08 7.498a13.912 13.912 0 00-2.27 1.968c-1.372 1.684-1.511 4.083-1.13 6.228.382 2.144 1.213 4.19 1.564 6.34.33 2.02.228 4.084.37 6.126.142 2.043.563 4.147 1.784 5.784a5.409 5.409 0 004.218 2.219c.57.013 1.053-.504 1.63-.369.72.169 1.033.858 1.673 1.153z" id="Path" fill="#2F2E41" fill-rule="nonzero"/><path id="Path" fill="#A0616A" fill-rule="nonzero" d="M188 274.563L190.333 288l4.667-5.938-2.667-9.062z"/><path d="M191.567 177l-3.29 8.73S185 230.203 185 233.51c0 3.306 2.388 45.688 3.284 47.491 0 0 3.88-5.711 8.955-4.81 5.074.902 2.985-15.028 2.985-15.028L205 221.786l-.896-19.838L191.567 177z" id="Path" fill="#575A89" fill-rule="nonzero"/><path d="M191.567 177l-3.29 8.73S185 230.203 185 233.51c0 3.306 2.388 45.688 3.284 47.491 0 0 3.88-5.711 8.955-4.81 5.074.902 2.985-15.028 2.985-15.028L205 221.786l-.896-19.838L191.567 177z" id="Path" fill="#000" fill-rule="nonzero" opacity=".1"/><path d="M213 126.1s9.9 25.062 4.2 29.836c-5.7 4.773 31.8-8.056 31.8-8.056l-.9-3.282s-12.3-4.774-6.3-18.498c6-13.725-28.8 0-28.8 0z" id="Path" fill="#A0616A" fill-rule="nonzero"/><path d="M213 126.1s9.9 25.062 4.2 29.836c-5.7 4.773 31.8-8.056 31.8-8.056l-.9-3.282s-12.3-4.774-6.3-18.498c6-13.725-28.8 0-28.8 0z" id="Path" fill="#000" fill-rule="nonzero" opacity=".1"/><path d="M196.626 466.235s-4.165-1.191-6.545 1.788c-2.38 2.978-11.307 10.425-11.307 10.425s-17.257-1.787-19.638 6.851c-2.38 8.639 27.077 8.639 34.217 6.553 7.141-2.085 8.63 0 8.63 0S224 493.64 224 490.065c0-3.574-2.083-15.787-2.083-15.787l-25.29-8.043zm69.042 20.305l-3.776 12.172s-11.328 16.43-4.938 19.778c6.39 3.347 29.046 6.694 29.046-2.13v-16.735s-2.324-11.867-4.647-13.084c-2.324-1.217-15.685 0-15.685 0z" id="Path" fill="#575A89" fill-rule="nonzero"/><path d="M200.28 266.439s-12.573 11.095-12.275 12.61c.298 1.514 6.263 98.743 6.263 98.743l3.28 63.001s-4.175 14.842-2.087 18.174c2.087 3.332-2.983 4.24-2.983 4.24s21.472 19.688 30.419 11.207l8.35-109.95 22.962 79.964s3.877 42.405 8.35 42.405 22.665.909 22.366-1.514c-.298-2.424.895-20.9-1.192-31.804-2.088-10.904-16.104-97.229-16.104-97.229s-1.205-74.004 1.932-80.921c3.138-6.917-1.634-14.187-1.634-14.187L247.052 253l-25.05 3.029-21.722 10.41z" id="Path" fill="#2F2E41" fill-rule="nonzero"/><circle id="Oval" fill="#A0616A" fill-rule="nonzero" cx="226" cy="116" r="22"/><path d="M277 161.143a19.05 19.05 0 00-13.374-12.095A118.317 118.317 0 01245.693 143s-21.581 10.28-25.837 10.28c-4.255 0-4.255-2.72-4.255-2.72s-10.942 11.49-16.717 12.7c-5.776 1.209-14.286 15.42-11.247 23.282a43.851 43.851 0 008.815 13.607s-1.216 42.333 2.736 50.194c0 0-9.727 18.445-.608 19.655 9.118 1.21 44.073-3.024 50.152 1.21 6.08 4.233 17.326-.908 18.845 4.837 1.52 5.746 4.864 6.955 4.864 6.955s5.167-8.164 2.127-13.002C271.528 265.16 277 161.143 277 161.143z" id="Path" fill="#575A89" fill-rule="nonzero"/><path d="M256.392 274L251 277.096s5.73 18.267 8.088 18.887c2.36.619 7.912-15.62 7.912-15.62L256.392 274z" id="Path" fill="#A0616A" fill-rule="nonzero"/><path d="M209.422 123.893c.727.336 1.6-.165 2.03-.845 1.631-2.589-1.373-5.927-.722-8.923.52-2.4 3.229-3.824 3.782-6.217.538-2.325-1.12-4.945.001-7.049.878-1.648 3.07-2.081 4.905-1.793 1.835.29 3.577 1.101 5.43 1.215 2.47.152 4.824-.943 7.24-1.486 2.415-.542 5.36-.33 6.781 1.71 1.825 2.62-.026 6.268.61 9.403.504 2.49 6.25 4.237 6.772 2.554a17.183 17.183 0 00-.693-11.909c-.71-1.604-1.676-3.121-2.019-4.843-.465-2.338.267-4.847-.5-7.102-1.033-3.04-4.453-4.59-7.628-4.904-3.175-.315-6.4.249-9.557-.215-2.828-.416-5.566-1.65-8.418-1.471-3.423.214-6.4 2.435-8.773 4.928-2.373 2.494-4.385 5.362-7.08 7.498a13.912 13.912 0 00-2.27 1.968c-1.372 1.684-1.511 4.083-1.13 6.228.382 2.144 1.213 4.19 1.564 6.34.33 2.02.228 4.084.37 6.126.142 2.043.563 4.147 1.784 5.784a5.409 5.409 0 004.218 2.219c.57.013 1.053-.504 1.63-.369.72.169 1.033.858 1.673 1.153z" id="Path" fill="#2F2E41" fill-rule="nonzero"/><path d="M263.857 167.263L273.78 162s24.12 56.541 18.32 72.18c-5.802 15.64-28.09 47.82-28.09 47.82s-17.709-3.609-15.877-7.218c1.832-3.61 13.74-26.767 14.655-29.774.916-3.008 7.023-22.557 4.275-24.662-2.748-2.105-8.091-50.978-8.091-50.978l4.885-2.105z" id="Path" fill="#000" fill-rule="nonzero" opacity=".1"/><path d="M266.567 161l12.213 3.246s24.12 55.483 18.32 70.83C291.297 250.422 269.01 282 269.01 282s-17.709-3.541-15.877-7.083c1.832-3.541 13.74-26.266 14.655-29.217.916-2.951 7.023-22.134 4.275-24.2-2.748-2.066-15.877-53.122-15.877-53.122L266.567 161z" id="Path" fill="#575A89" fill-rule="nonzero"/><path d="M396 207c0 49.153-68.948 89-154 89S88 256.153 88 207m283 91c-34.609 18.067-79.767 29-129.166 29-47.363 0-90.828-10.05-124.834-26.803M319 100c65.789 17.097 112.643 54.706 117 99M54 171c11.11-20.734 31.407-38.982 58-53" id="Path" stroke="#3F3D56" stroke-width="2"/><g id="docker" transform="translate(0 171)" fill-rule="nonzero"><ellipse id="Oval" fill="#FFF" cx="67.5" cy="68" rx="67.5" ry="68"/><path d="M33.088 90.176v-6.271c0-.824.514-1.486 1.364-1.486h.235c.85 0 1.36.662 1.36 1.486v13.203c0 3.22-1.584 5.781-4.346 7.413a8.14 8.14 0 01-4.18 1.144h-.586c-3.209 0-5.758-1.592-7.386-4.362a8.193 8.193 0 01-1.14-4.195v-.589c0-3.22 1.586-5.78 4.345-7.416a8.11 8.11 0 014.18-1.144h.588c2.17 0 4.013.845 5.566 2.217zm-11.72 6.637c0 2.326 1.123 4.074 3.153 5.19.821.45 1.713.692 2.65.692 2.274 0 3.96-1.077 5.124-3.011.541-.9.793-1.885.793-2.931 0-2.016-.95-3.59-2.57-4.758a5.508 5.508 0 00-3.29-1.064c-2.48 0-4.263 1.257-5.334 3.49a5.472 5.472 0 00-.526 2.392zm24.945-8.854h.41c3.428 0 6.036 1.67 7.688 4.673a8.007 8.007 0 011.014 3.887v.589c0 3.22-1.581 5.784-4.347 7.413a8.159 8.159 0 01-4.179 1.144h-.586c-3.209 0-5.758-1.592-7.386-4.362a8.194 8.194 0 01-1.14-4.195v-.589c0-3.22 1.591-5.773 4.344-7.415a8.073 8.073 0 014.182-1.145zm-5.568 8.854c0 2.257 1.104 3.918 3.004 5.086.892.548 1.874.796 2.916.796 2.223 0 3.866-1.13 5.009-3.013.545-.898.792-1.884.792-2.93 0-2.099-1.008-3.702-2.73-4.864a5.489 5.489 0 00-3.13-.957c-2.48 0-4.263 1.257-5.334 3.49a5.462 5.462 0 00-.527 2.392zm26.981-5.645c-.446-.21-1.283-.28-1.765-.298-2.473-.093-4.261 1.304-5.31 3.493a5.448 5.448 0 00-.528 2.39c0 2.544 1.33 4.325 3.593 5.41.826.397 1.893.472 2.796.472.794 0 1.917-.488 2.622-.825l.122-.058h.547l.06.012c.673.141 1.181.57 1.181 1.296v.294c0 1.808-3.292 2.222-4.548 2.31-4.434.308-7.75-2.136-9.014-6.38a7.718 7.718 0 01-.318-2.237v-.588c0-3.22 1.592-5.772 4.344-7.413A8.077 8.077 0 0165.69 87.9h.586c1.577 0 3.03.45 4.332 1.343l.107.074.068.112c.14.234.261.504.261.783v.294c0 .758-.565 1.166-1.247 1.297l-.056.01h-.175c-.442 0-1.446-.458-1.84-.645zm9.598 2.011a309.884 309.884 0 013.47-3.444c.324-.317 1.555-1.658 2.04-1.658h.53l.06.012c.675.141 1.18.57 1.18 1.298v.294c0 .496-.579 1.074-.899 1.414-.68.723-1.395 1.422-2.09 2.13l-3.576 3.643a825.793 825.793 0 014.604 4.659c.424.43.844.864 1.26 1.301.148.156.365.349.488.564.132.202.214.429.214.671v.307l-.017.07c-.167.679-.595 1.225-1.343 1.225h-.236c-.49 0-1.042-.556-1.377-.873-.692-.654-1.359-1.342-2.036-2.01l-2.272-2.238v3.577c0 .824-.514 1.487-1.363 1.487h-.233c-.85 0-1.363-.663-1.363-1.487V83.962c0-.824.514-1.483 1.363-1.483h.233c.85 0 1.363.66 1.363 1.483v9.217zm36.88-5.102h.294c.887 0 1.48.6 1.48 1.486 0 1.23-1.172 1.544-2.185 1.544-1.329 0-2.598.808-3.514 1.713-1.142 1.13-1.642 2.578-1.642 4.17v7.19c0 .824-.513 1.485-1.363 1.485h-.234c-.85 0-1.363-.661-1.363-1.485v-7.603c0-2.92 1.416-5.303 3.777-6.974a8.117 8.117 0 014.75-1.526zm-21.031 14.249c1.077.377 2.304.323 3.409.13.565-.241 2.01-.874 2.542-.781l.083.014.076.038c.324.157.634.38.8.712.387.777.201 1.558-.56 2l-.253.146c-2.806 1.626-5.792 1.401-8.59-.118-1.337-.726-2.36-1.803-3.116-3.116l-.176-.307c-1.802-3.133-1.559-6.427.473-9.406.702-1.03 1.619-1.825 2.69-2.447l.406-.235c2.643-1.531 5.476-1.426 8.191-.082 1.46.723 2.643 1.8 3.457 3.217l.147.255c.592 1.03-.175 1.927-.966 2.54-.92.711-1.847 1.568-2.727 2.33-1.964 1.702-3.924 3.407-5.886 5.11zm-2.542-1.792c2.196-1.89 4.393-3.78 6.583-5.679.748-.647 1.569-1.32 2.311-2-.596-.754-1.59-1.297-2.436-1.621-1.707-.653-3.39-.434-4.955.473-2.05 1.188-2.922 3.078-2.845 5.431.03.927.278 1.82.768 2.609.173.277.366.538.574.787zM74.663 41.02h8.731v8.96h4.415c2.04 0 4.136-.365 6.067-1.022.949-.323 2.013-.772 2.95-1.337-1.233-1.615-1.863-3.655-2.048-5.665-.252-2.735.298-6.294 2.142-8.434l.918-1.066 1.094.883c2.753 2.22 5.07 5.323 5.477 8.86 3.316-.978 7.21-.747 10.132.946l1.199.695-.631 1.236c-2.472 4.842-7.64 6.342-12.692 6.076-7.56 18.9-24.018 27.847-43.974 27.847-10.31 0-19.77-3.869-25.156-13.05l-.088-.15-.785-1.602c-1.82-4.041-2.426-8.469-2.015-12.893l.123-1.325h7.467V41.02h8.731v-8.764h17.464v-8.764h10.479V41.02" id="Shape" fill="#364548"/><path d="M102.11 43.906c.582-4.59-2.804-8.194-4.904-9.906-2.42 2.838-2.795 10.276 1 13.407-2.118 1.909-6.582 3.64-11.153 3.64H31.412c-.444 4.84.393 9.297 2.307 13.112l.633 1.175c.4.69.838 1.356 1.311 1.997 2.288.149 4.397.2 6.327.157 3.792-.085 6.886-.54 9.231-1.364a.667.667 0 01.83.426.681.681 0 01-.392.855c-.312.11-.637.213-.973.31-1.847.535-3.827.895-6.382 1.055.152.003-.158.023-.158.023-.087.006-.197.019-.284.023-1.005.058-2.09.07-3.2.07-1.214 0-2.408-.023-3.745-.093l-.034.023c4.636 5.286 11.885 8.457 20.972 8.457 19.23 0 35.542-8.648 42.765-28.063 5.124.534 10.049-.792 12.29-5.228-3.57-2.09-8.158-1.423-10.8-.076" id="Path" fill="#22A0C8"/><path d="M102.74 44.493c.586-4.575-2.817-8.169-4.928-9.875-2.432 2.83-2.81 10.243 1.006 13.364-2.13 1.903-6.617 3.628-11.211 3.628H34.99C34.762 59 37.488 64.608 42.31 68c3.812-.085 6.922-.538 9.28-1.36a.671.671 0 01.834.424.677.677 0 01-.395.853c-.313.11-.64.212-.978.31-1.857.532-4.018.937-6.586 1.097l-.063-.06c6.579 3.395 16.117 3.383 27.053-.844 12.263-4.739 23.673-13.768 31.635-24.095-.12.055-.237.11-.35.168" id="Path" fill="#37B1D9"/><path d="M31.91 56.873a22.848 22.848 0 002.209 7.251l.635 1.178c.402.691.841 1.36 1.316 2.002 2.296.15 4.412.2 6.348.158 3.805-.085 6.91-.541 9.263-1.368a.669.669 0 01.833.427.683.683 0 01-.394.858c-.313.11-.64.213-.976.31h-.001c-1.853.537-3.999.921-6.562 1.082-.088.005-.242.006-.33.011a56.724 56.724 0 01-3.2.093 73.05 73.05 0 01-3.802-.093c4.652 5.3 11.97 8.49 21.087 8.49 16.52 0 30.89-6.355 39.232-20.4H31.91" id="Path" fill="#1B81A5"/><path d="M34.977 57.49c.989 4.527 3.364 8.08 6.813 10.5 3.808-.085 6.916-.536 9.27-1.356a.675.675 0 01.44 1.274c-.313.11-.64.211-.977.308-1.855.532-4.049.912-6.615 1.072 6.573 3.385 16.077 3.336 27.003-.878 6.61-2.55 12.972-6.347 18.68-10.92H34.977" id="Path" fill="#1D91B4"/><path d="M39.273 42.323h7.692v7.75h-7.692v-7.75zm.64.646h.608v6.458h-.607V42.97zm1.142 0h.631v6.458h-.63V42.97h-.001zm1.165 0h.631v6.458h-.631V42.97zm1.166 0h.631v6.458h-.631V42.97zm1.166 0h.63v6.458h-.63V42.97zm1.165 0h.607v6.458h-.607V42.97zm2.431-9.587h7.693v7.749h-7.693v-7.75zm.641.646h.607v6.457h-.607v-6.457zm1.142 0h.63v6.457h-.63v-6.457zm1.165 0h.63v6.457h-.63v-6.457zm1.165 0h.632v6.457h-.632v-6.457zm1.166 0h.632v6.457h-.632v-6.457zm1.165 0h.608v6.457h-.608v-6.457z" id="Shape" fill="#23A3C2"/><path d="M47.864 42.655h7.977v7.418h-7.977v-7.418zm.665.618h.629v6.182h-.63v-6.182zm1.183 0h.655v6.182h-.654v-6.182zm1.209 0h.654v6.182h-.654v-6.182zm1.208 0h.655v6.182h-.655v-6.182zm1.209 0h.655v6.182h-.655v-6.182zm1.208 0h.63v6.182h-.63v-6.182z" id="Shape" fill="#34BBDE"/><path d="M56.455 42.655h7.977v7.418h-7.977v-7.418zm.664.618h.63v6.182h-.63v-6.182zm1.184 0h.654v6.182h-.654v-6.182zm1.208 0h.655v6.182h-.655v-6.182zm1.21 0h.654v6.182h-.655v-6.182zm1.208 0h.655v6.182h-.655v-6.182zm1.208 0h.63v6.182h-.63v-6.182z" id="Shape" fill="#23A3C2"/><path d="M56.455 33.382h7.692v7.749h-7.692v-7.75zm.64.646h.607v6.457h-.607v-6.457zm1.142 0h.63v6.457h-.63v-6.457zm1.165 0h.631v6.457h-.63v-6.457zm1.166 0h.631v6.457h-.631v-6.457zm1.165 0h.632v6.457h-.632v-6.457zm1.166 0h.607v6.457h-.607v-6.457zm2.431 8.295h7.693v7.75H65.33v-7.75zm.641.646h.607v6.458h-.607V42.97zm1.142 0h.63v6.458h-.63V42.97zm1.165 0h.631v6.458h-.631V42.97zm1.166 0h.631v6.458h-.631V42.97zm1.165 0h.632v6.458h-.632V42.97zm1.166 0h.607v6.458h-.607V42.97z" id="Shape" fill="#34BBDE"/><path d="M65.045 34h7.978v7.418h-7.978V34zm.665.618h.63V40.8h-.63v-6.182zm1.184 0h.654V40.8h-.654v-6.182zm1.208 0h.655V40.8h-.655v-6.182zm1.209 0h.655V40.8h-.655v-6.182zm1.209 0h.655V40.8h-.655v-6.182zm1.209 0h.63V40.8h-.63v-6.182z" id="Shape" fill="#23A3C2"/><path d="M65.045 25.345h7.978v7.419h-7.978v-7.419zm.665.618h.63v6.182h-.63v-6.182zm1.184 0h.654v6.182h-.654v-6.182zm1.208 0h.655v6.182h-.655v-6.182zm1.209 0h.655v6.182h-.655v-6.182zm1.209 0h.655v6.182h-.655v-6.182zm1.209 0h.63v6.182h-.63v-6.182z" id="Shape" fill="#34BBDE"/><path d="M73.636 42.655h7.978v7.418h-7.978v-7.418zm.665.618h.63v6.182h-.63v-6.182zm1.183 0h.655v6.182h-.655v-6.182zm1.21 0h.654v6.182h-.655v-6.182zm1.208 0h.654v6.182h-.654v-6.182zm1.209 0h.654v6.182h-.654v-6.182zm1.208 0h.63v6.182h-.63v-6.182z" id="Shape" fill="#23A3C2"/><path d="M54.892 62.437c.774-.01 1.494.4 1.884 1.073.39.674.39 1.507 0 2.18a2.145 2.145 0 01-1.885 1.073 2.156 2.156 0 01-2.118-2.163c0-1.184.944-2.148 2.119-2.163" id="Path" fill="#D3ECEC"/><path d="M54.661 63.05c.19 0 .372.037.54.104a.642.642 0 00-.282.71.613.613 0 00.586.469.607.607 0 00.535-.329c.252.63.077 1.357-.431 1.79a1.45 1.45 0 01-1.776.091 1.577 1.577 0 01-.6-1.736 1.5 1.5 0 011.428-1.1m-36.866-5.092h96.955c-2.11-.555-6.679-1.306-5.926-4.175-3.839 4.607-13.096 3.232-15.432.96-2.602 3.914-17.748 2.426-18.804-.623-3.262 3.97-13.368 3.97-16.63 0-1.057 3.05-16.202 4.537-18.804.623-2.336 2.272-11.593 3.647-15.432-.96.753 2.87-3.815 3.62-5.927 4.175" id="Shape" fill="#364548"/><path d="M60.75 77.229c-5.21-2.402-8.069-5.666-9.66-9.229-1.935.536-4.261.88-6.964 1.027-1.018.055-2.09.083-3.213.083a80.03 80.03 0 01-4.095-.11c4.778 4.637 10.655 8.208 21.538 8.273.803 0 1.6-.015 2.394-.044" id="Path" fill="#BDD9D7"/><path d="M52.772 71.71c-.695-1.073-1.37-2.42-1.866-3.71-1.869.606-4.115.993-6.724 1.16 1.792 1.103 4.355 2.126 8.59 2.55" id="Path" fill="#D3ECEC"/></g><g id="nodejs-icon" transform="translate(214 261)" fill-rule="nonzero"><ellipse id="Oval" fill="#FFF" cx="67.5" cy="68" rx="67.5" ry="68"/><path d="M63.07 14.76c2.683-1.543 6.177-1.55 8.858 0 13.484 7.663 26.974 15.313 40.456 22.98 2.536 1.437 4.232 4.275 4.207 7.213v46.1c.019 3.06-1.845 5.966-4.52 7.37-13.441 7.62-26.875 15.249-40.313 22.869-2.739 1.574-6.303 1.453-8.956-.25-4.03-2.35-8.066-4.687-12.095-7.033-.824-.494-1.752-.887-2.334-1.69.514-.697 1.433-.783 2.18-1.088 1.682-.537 3.227-1.4 4.772-2.238.391-.27.868-.166 1.243.074 3.445 1.987 6.86 4.031 10.318 6 .737.427 1.484-.141 2.115-.495 13.189-7.496 26.394-14.963 39.582-22.462.488-.236.758-.758.719-1.296.009-15.207.002-30.417.004-45.624a1.427 1.427 0 00-.844-1.423C95.068 36.182 81.68 28.585 68.289 20.998a1.389 1.389 0 00-1.578-.002c-13.391 7.59-26.776 15.193-40.168 22.778-.547.25-.914.803-.85 1.416.003 15.207 0 30.417 0 45.626a1.291 1.291 0 00.73 1.28c3.573 2.038 7.151 4.062 10.727 6.092 2.015 1.09 4.488 1.739 6.708.903 1.958-.706 3.331-2.716 3.294-4.807.018-15.119-.01-30.24.014-45.356-.05-.671.584-1.226 1.233-1.162 1.717-.012 3.436-.024 5.153.004.717-.016 1.21.707 1.122 1.383-.007 15.214.018 30.429-.012 45.643.005 4.055-1.652 8.467-5.382 10.45-4.594 2.394-10.273 1.887-14.813-.409-3.93-1.972-7.68-4.3-11.54-6.413-2.682-1.396-4.536-4.313-4.518-7.37v-46.1c-.028-3 1.736-5.89 4.35-7.305C36.2 30.023 49.635 22.39 63.07 14.76z" id="Path" fill="#8CC84B"/><path d="M75.156 46.515c5.863-.382 12.14-.226 17.415 2.7 4.085 2.242 6.35 6.948 6.422 11.545-.114.62-.754.963-1.338.92-1.701-.002-3.403.023-5.104-.012-.722.028-1.14-.646-1.232-1.292-.488-2.2-1.672-4.378-3.716-5.44-3.137-1.59-6.775-1.51-10.196-1.477-2.498.134-5.183.353-7.299 1.84-1.624 1.128-2.118 3.403-1.538 5.235.547 1.316 2.046 1.74 3.272 2.132 7.066 1.872 14.553 1.685 21.484 4.15 2.87 1.004 5.676 2.956 6.658 6 1.285 4.079.722 8.955-2.143 12.23-2.323 2.694-5.707 4.161-9.081 4.958-4.49 1.014-9.149 1.04-13.708.59-4.287-.496-8.749-1.637-12.058-4.596-2.83-2.49-4.213-6.368-4.076-10.112.033-.632.655-1.073 1.252-1.021 1.713-.014 3.426-.019 5.14.002.684-.05 1.19.55 1.226 1.203.316 2.096 1.094 4.295 2.898 5.538 3.481 2.275 7.85 2.12 11.836 2.183 3.303-.148 7.01-.193 9.705-2.404 1.422-1.262 1.844-3.372 1.46-5.188-.417-1.532-2-2.247-3.359-2.714-6.975-2.235-14.546-1.424-21.453-3.952-2.805-1.003-5.516-2.902-6.594-5.82-1.503-4.131-.814-9.24 2.35-12.405 3.087-3.147 7.542-4.36 11.777-4.793z" id="Path" fill="#8CC84B"/></g><g id="react" transform="translate(348 120)" fill-rule="nonzero"><ellipse id="Oval" fill="#FFF" cx="67.5" cy="68" rx="67.5" ry="68"/><path d="M3.682 65.932c0 9.97 9.684 19.277 24.95 24.523-3.048 15.43-.545 27.866 7.813 32.712 8.591 4.98 21.39 1.533 33.538-9.143 11.841 10.245 23.809 14.276 32.16 9.416 8.583-4.995 11.193-18.274 8.06-34.186C126.105 83.97 135 76.034 135 65.932c0-9.738-9.702-18.163-24.763-23.376 3.373-16.568.515-28.703-8.19-33.749-8.391-4.865-20.498-.625-32.514 9.888C57.033 7.537 45.046 4.13 36.351 9.19c-8.384 4.878-10.777 17.541-7.718 33.256C13.88 47.617 3.682 56.233 3.682 65.932z" id="Path" fill="#FFF"/><path d="M106.907 47.88a78.035 78.035 0 00-3.753-1.185c.209-.85.402-1.705.58-2.563 2.84-13.807.983-24.93-5.36-28.592-6.082-3.512-16.03.15-26.076 8.902a78.018 78.018 0 00-2.903 2.668 71.018 71.018 0 00-1.932-1.787c-10.529-9.36-21.082-13.303-27.419-9.63-6.076 3.52-7.876 13.978-5.318 27.064.254 1.296.542 2.585.861 3.866a77.268 77.268 0 00-4.315 1.359C18.93 52.29 11.045 59.042 11.045 66.047c0 7.234 8.463 14.49 21.32 18.89 1.043.355 2.094.684 3.153.986-.344 1.38-.65 2.77-.916 4.168-2.439 12.858-.534 23.067 5.526 26.567 6.26 3.614 16.765-.1 26.995-9.053a66.076 66.076 0 002.433-2.245 76.574 76.574 0 003.152 2.879c9.909 8.536 19.695 11.984 25.75 8.474 6.254-3.624 8.286-14.592 5.647-27.936a66.182 66.182 0 00-.699-3.12 68.343 68.343 0 002.168-.678c13.366-4.433 22.062-11.601 22.062-18.932 0-7.03-8.137-13.828-20.729-18.168z" id="Path" fill="#53C1DE"/><path d="M104.166 80.362c-.634.214-1.285.42-1.949.62-1.469-4.727-3.451-9.753-5.876-14.945 2.315-5.07 4.22-10.032 5.648-14.728 1.187.35 2.339.718 3.45 1.107 10.738 3.758 17.288 9.314 17.288 13.596 0 4.56-7.074 10.48-18.56 14.35zm-5.168 9.603c1.157 5.853 1.322 11.145.556 15.282-.689 3.717-2.073 6.195-3.785 7.188-3.644 2.112-11.436-.634-19.839-7.876a70.848 70.848 0 01-2.907-2.654c3.258-3.569 6.513-7.717 9.69-12.324 5.59-.497 10.87-1.309 15.66-2.417.235.953.445 1.887.625 2.8zm-48.055 22.15c-3.603 1.273-6.472 1.31-8.207.31-3.691-2.13-5.225-10.35-3.132-21.375.248-1.303.533-2.6.854-3.886 4.793 1.06 10.099 1.823 15.77 2.283 3.237 4.557 6.628 8.745 10.045 12.413a61.563 61.563 0 01-2.23 2.053c-4.54 3.97-9.09 6.786-13.1 8.203zM33.773 80.08c-5.644-1.944-10.304-4.47-13.499-7.227-2.87-2.478-4.32-4.937-4.32-6.934 0-4.247 6.284-9.664 16.763-13.347A70.931 70.931 0 0136.7 51.31c1.449 4.748 3.348 9.712 5.64 14.732-2.321 5.094-4.248 10.137-5.71 14.94a60.557 60.557 0 01-2.857-.9zM39.7 41.55c-2.215-11.157-.744-19.573 2.957-21.684 3.942-2.25 12.66.958 21.847 9a65.461 65.461 0 011.768 1.608c-3.423 3.624-6.806 7.75-10.038 12.245-5.542.507-10.847 1.32-15.724 2.41-.3-1.187-.57-2.38-.81-3.58zM90 53.974a156.555 156.555 0 00-3.478-5.756c3.65.464 7.148 1.08 10.432 1.834-.986 3.18-2.215 6.504-3.662 9.912a171.68 171.68 0 00-3.291-5.99zM69.37 34.618c2.25 2.415 4.505 5.111 6.722 8.037a145.08 145.08 0 00-13.5-.003 106.922 106.922 0 016.778-8.034zM48.632 54.014a145.22 145.22 0 00-3.248 5.95 108.449 108.449 0 01-3.657-9.955 110.926 110.926 0 0110.432-1.79 144.485 144.485 0 00-3.527 5.795zm4.14 30.059c-3.924-.417-7.626-.98-11.045-1.688a105.71 105.71 0 013.885-10.058 140.92 140.92 0 007.16 11.746zM69.735 98.29a114.83 114.83 0 01-7.143-8.63c2.273.09 4.59.136 6.946.136 2.42 0 4.813-.055 7.168-.16-2.312 3.171-4.647 6.071-6.97 8.654zm23.858-26.582c1.582 3.626 2.917 7.135 3.976 10.471-3.433.788-7.14 1.422-11.045 1.893a177.999 177.999 0 003.635-6.057 161.793 161.793 0 003.434-6.307zm-7.764 4.164a164.153 164.153 0 01-5.572 9.06 148.43 148.43 0 01-10.634.376c-3.614 0-7.13-.113-10.515-.335a141.992 141.992 0 01-10.63-18.504 142.248 142.248 0 014.94-9.435A140.677 140.677 0 0159.048 48a139.468 139.468 0 0121.17.003 150.77 150.77 0 015.595 9.004 163.882 163.882 0 015.006 9.391 151.04 151.04 0 01-4.99 9.474zm10.061-56.05c3.882 2.23 5.391 11.22 2.953 23.01a64.92 64.92 0 01-.522 2.294c-4.81-1.104-10.031-1.926-15.5-2.436-3.185-4.517-6.485-8.624-9.798-12.179a72.696 72.696 0 012.665-2.435c8.558-7.417 16.557-10.345 20.201-8.252z" id="Shape" fill="#FFF"/><path d="M69.34 55.636c5.763 0 10.433 4.706 10.433 10.51 0 5.803-4.67 10.509-10.432 10.509-5.761 0-10.432-4.706-10.432-10.51 0-5.803 4.67-10.509 10.432-10.509" id="Path" fill="#53C1DE"/></g></g></g></svg>