<svg width="598" height="447" xmlns="http://www.w3.org/2000/svg"><g id="ENTREPRISEPAGE" stroke="none" stroke-width="1" fill="none" fill-rule="evenodd"><g id="Entreprisepage---Desktop-HD--Entreprise-PAGE" transform="translate(-121 -1805)"><g id="Content" transform="translate(121 1047)"><g id="Cont2" transform="translate(0 758)"><g id="undraw_good_team_m7uu"><path id="Path" stroke="#3F3D56" stroke-width="2" d="M209 137.5h77"/><ellipse id="Oval" fill="#2F2E41" fill-rule="nonzero" transform="rotate(-69.082 110.825 219.894)" cx="110.825" cy="219.894" rx="21.192" ry="6.646"/><path d="M595.545 273.298c8.4 62.648-3.038 125.364-61.212 149.785-58.174 24.422-125.088-3.044-149.455-61.347-24.368-58.303 33.126-93.188 61.212-149.786 57.034-114.933 123.37-133.204 149.455 61.348z" id="Path" fill="#F2F2F2" fill-rule="nonzero"/><ellipse id="Oval" fill="#3F3D56" fill-rule="nonzero" cx="491.5" cy="426.5" rx="91.5" ry="12.5"/><path id="Rectangle" fill="#2F2E41" fill-rule="nonzero" transform="rotate(-105.452 444.057 397.854)" d="M437.614 386.33l12.878.004.008 23.044-12.877-.005z"/><ellipse id="Oval" fill="#2F2E41" fill-rule="nonzero" transform="rotate(-15.452 429.915 398.985)" cx="429.915" cy="398.985" rx="4.019" ry="10.731"/><ellipse id="Oval" fill="#2F2E41" fill-rule="nonzero" transform="rotate(-82.281 494.753 351.134)" cx="494.753" cy="351.134" rx="21.196" ry="6.645"/><circle id="Oval" fill="#2F2E41" fill-rule="nonzero" cx="491" cy="391" r="42"/><path id="Rectangle" fill="#2F2E41" fill-rule="nonzero" transform="rotate(-105.452 444.057 390.341)" d="M437.614 378.817l12.878.005.008 23.043-12.877-.004z"/><ellipse id="Oval" fill="#2F2E41" fill-rule="nonzero" transform="rotate(-15.452 429.915 391.472)" cx="429.915" cy="391.472" rx="4.019" ry="10.731"/><circle id="Oval" fill="#FFF" fill-rule="nonzero" cx="501.5" cy="366.5" r="14.5"/><circle id="Oval" fill="#3F3D56" fill-rule="nonzero" cx="507" cy="360" r="5"/><path d="M539.81 418.972c15.869-.775 28.022-15.27 27.145-32.374-.876-17.104-14.45-30.341-30.32-29.566-15.868.776-18.358 12.94-17.481 30.045.876 17.104 4.788 32.67 20.656 31.895z" id="Path" fill="#36AAE1" fill-rule="nonzero"/><path d="M472.967 372.969c-5.587.421-10.481-3.475-10.933-8.704-.453-5.228 3.709-9.81 9.295-10.235 5.587-.424 7.111 3.728 7.563 8.958.453 5.23-.338 9.557-5.925 9.98z" id="Path" fill="#FFF" fill-rule="nonzero"/><path id="Path" stroke="#3F3D56" stroke-width="2" d="M26 194.363h237.056l36.753 17.984L358.367 241l38.287-72H505"/><circle id="Oval" fill="#36AAE1" fill-rule="nonzero" cx="119.5" cy="201.5" r="7.5"/><circle id="Oval" fill="#36AAE1" fill-rule="nonzero" cx="188.5" cy="193.5" r="7.5"/><circle id="Oval" fill="#36AAE1" fill-rule="nonzero" cx="299.5" cy="212.5" r="7.5"/><circle id="Oval" fill="#36AAE1" fill-rule="nonzero" cx="458.5" cy="168.5" r="7.5"/><circle id="Oval" fill="#36AAE1" fill-rule="nonzero" cx="381.5" cy="197.5" r="7.5"/><circle id="Oval" stroke="#3F3D56" stroke-width="2" cx="229" cy="312" r="8"/><ellipse id="Oval" fill="#3F3D56" fill-rule="nonzero" cx="91.5" cy="434.5" rx="91.5" ry="12.5"/><circle id="Oval" fill="#2F2E41" fill-rule="nonzero" cx="86" cy="374" r="42"/><path id="Rectangle" fill="#2F2E41" fill-rule="nonzero" d="M67 407h13v23H67zm26 0h13v23H93z"/><ellipse id="Oval" fill="#2F2E41" fill-rule="nonzero" cx="77.5" cy="430" rx="10.5" ry="4"/><ellipse id="Oval" fill="#2F2E41" fill-rule="nonzero" cx="103.5" cy="430" rx="10.5" ry="4"/><circle id="Oval" fill="#FFF" fill-rule="nonzero" cx="87.5" cy="362.5" r="14.5"/><circle id="Oval" fill="#3F3D56" fill-rule="nonzero" cx="88" cy="363" r="5"/><path d="M45.622 334.63c-3.395-15.414 7.456-30.99 24.237-34.788 16.78-3.8 33.136 5.617 36.53 21.03 3.395 15.415-7.726 21.1-24.506 24.9-16.781 3.798-32.867 4.272-36.261-11.142z" id="Path" fill="#36AAE1" fill-rule="nonzero"/><circle id="Oval" fill="#2F2E41" fill-rule="nonzero" cx="72" cy="251" r="42"/><path id="Rectangle" fill="#2F2E41" fill-rule="nonzero" d="M52 285h13v23H52zm26 0h13v23H78z"/><ellipse id="Oval" fill="#2F2E41" fill-rule="nonzero" cx="62.5" cy="309" rx="10.5" ry="4"/><ellipse id="Oval" fill="#2F2E41" fill-rule="nonzero" cx="88.5" cy="308" rx="10.5" ry="4"/><circle id="Oval" fill="#FFF" fill-rule="nonzero" cx="72.5" cy="241.5" r="14.5"/><circle id="Oval" fill="#3F3D56" fill-rule="nonzero" cx="73" cy="241" r="5"/><path d="M30.622 212.63c-3.395-15.414 7.456-30.99 24.237-34.788 16.78-3.8 33.136 5.617 36.53 21.03 3.395 15.415-7.726 21.1-24.506 24.9-16.781 3.798-32.867 4.272-36.261-11.142z" id="Path" fill="#36AAE1" fill-rule="nonzero"/><ellipse id="Oval" fill="#2F2E41" fill-rule="nonzero" transform="rotate(-64.626 24.019 232.236)" cx="24.019" cy="232.236" rx="6.652" ry="21.171"/><path d="M50 268.001C50 272.035 60.799 280 72.782 280S96 268.644 96 264.61c0-4.034-11.235.783-23.218.783S50 263.967 50 268z" id="Path" fill="#FFF" fill-rule="nonzero"/><path id="Rectangle" fill="#36AAE1" fill-rule="nonzero" d="M448 303h68v35h-68z"/><path id="Rectangle" stroke="#3F3D56" stroke-width="2" d="M442 308h68v35h-68z"/><path id="Rectangle" fill="#5D3CFF" fill-rule="nonzero" d="M121 107h19v19h-19z"/><path id="Rectangle" stroke="#3F3D56" stroke-width="2" d="M117 100h19v19h-19z"/><circle id="Oval" fill="#2F2E41" fill-rule="nonzero" cx="485" cy="102" r="42"/><path id="Rectangle" fill="#2F2E41" fill-rule="nonzero" transform="rotate(169.739 506.124 143.467)" d="M499.697 131.931l12.86-.003-.005 23.074-12.86.003z"/><path id="Rectangle" fill="#2F2E41" fill-rule="nonzero" transform="rotate(169.739 480.817 148.057)" d="M474.39 136.522l12.86-.003-.006 23.073-12.86.004z"/><ellipse id="Oval" fill="#2F2E41" fill-rule="nonzero" transform="rotate(-40.261 480.662 162.264)" cx="480.662" cy="162.264" rx="10.723" ry="4.022"/><ellipse id="Oval" fill="#2F2E41" fill-rule="nonzero" transform="rotate(-40.261 505.444 157.771)" cx="505.444" cy="157.771" rx="10.723" ry="4.022"/><circle id="Oval" fill="#FFF" fill-rule="nonzero" cx="482.5" cy="90.5" r="14.5"/><circle id="Oval" fill="#3F3D56" fill-rule="nonzero" cx="476" cy="86" r="5"/><path d="M518.979 55.567c.63-15.613-12.73-28.838-29.838-29.538-17.108-.7-31.488 11.39-32.117 27.003-.63 15.614 11.263 19.161 28.371 19.861 17.108.7 32.954-1.712 33.584-17.326z" id="Path" fill="#36AAE1" fill-rule="nonzero"/><ellipse id="Oval" fill="#2F2E41" fill-rule="nonzero" transform="rotate(-77.09 446.414 93.95)" cx="446.414" cy="93.949" rx="6.654" ry="21.167"/><ellipse id="Oval" fill="#2F2E41" fill-rule="nonzero" transform="rotate(-77.09 529.509 107.788)" cx="529.509" cy="107.788" rx="6.654" ry="21.167"/><path d="M496.848 118.215c.605 3.517-.62 7.106-3.211 9.415-2.592 2.31-6.159 2.989-9.356 1.782-3.197-1.207-5.54-4.117-6.145-7.633-.935-5.436 3.06-7.36 8.227-8.344 5.167-.984 9.55-.656 10.485 4.78z" id="Path" fill="#FFF" fill-rule="nonzero"/><path id="Path" stroke="#3F3D56" stroke-width="2" d="M381 53l49 38"/><ellipse id="Oval" fill="#5D3CFF" fill-rule="nonzero" cx="359" cy="36.5" rx="36" ry="36.5"/><ellipse id="Oval" fill="#2F2E41" fill-rule="nonzero" transform="rotate(-82.281 478.864 361.207)" cx="478.864" cy="361.207" rx="21.196" ry="6.645"/><circle id="Oval" fill="#36AAE1" fill-rule="nonzero" cx="36.5" cy="422.5" r="7.5"/><path id="Rectangle" fill="#5D3CFF" fill-rule="nonzero" d="M138 413h19v19h-19z"/><circle id="Oval" fill="#36AAE1" fill-rule="nonzero" cx="137.5" cy="425.5" r="7.5"/><circle id="Oval" fill="#36AAE1" fill-rule="nonzero" cx="247.5" cy="136.5" r="7.5"/><circle id="Oval" fill="#5D3CFF" fill-rule="nonzero" cx="389.5" cy="364.5" r="3.5"/><path id="Path" stroke="#3F3D56" stroke-width="2" fill="#3F3D56" fill-rule="nonzero" d="M406.5 423v-40"/><circle id="Oval" fill="#3F3D56" fill-rule="nonzero" cx="407.5" cy="382.5" r="5.5"/><path d="M407 408s-.79-17.914-17-15.832" id="Path" fill="#3F3D56" fill-rule="nonzero"/></g></g></g></g></g></svg>