<svg width="690" height="473" xmlns="http://www.w3.org/2000/svg"><g id="CONTACTPAGE" stroke="none" stroke-width="1" fill="none" fill-rule="evenodd"><g id="contactpage---Desktop-HD-candidats-Copy" transform="translate(-1090 -463)" fill-rule="nonzero"><g id="undraw_manage_chats_ylx0" transform="translate(1090 463)"><path d="M410.945 84a258.45 258.45 0 00-4.945-.047V83c1.666 0 3.348.016 5 .048l-.055.952z" id="Path" fill="#E6E6E6"/><path d="M407.018 347c-2.01 0-4.036-.045-6.023-.135l.067-1.496c2.976.134 6.022.166 9.016.098l.034 1.498c-1.028.023-2.06.035-3.094.035zm12.197-.552l-.136-1.493a131.43 131.43 0 008.944-1.125l.237 1.48c-2.982.479-6.025.862-9.045 1.138zm-27.308-.298a133.245 133.245 0 01-9.019-1.337l.27-1.474c2.938.54 5.937.984 8.917 1.321l-.168 1.49zm45.299-2.598l-.337-1.46a130.527 130.527 0 008.705-2.344l.438 1.432a132.235 132.235 0 01-8.806 2.372zm-63.224-.696a132.311 132.311 0 01-8.75-2.567l.468-1.422a131.52 131.52 0 008.653 2.538l-.37 1.451zm80.65-4.65l-.535-1.4a131.685 131.685 0 008.292-3.52l.63 1.36a133.408 133.408 0 01-8.386 3.56zm-97.966-1.087a132.637 132.637 0 01-8.324-3.756l.66-1.345a131.08 131.08 0 008.23 3.714l-.566 1.387zm114.477-6.603l-.722-1.312a132.257 132.257 0 007.736-4.628l.81 1.26a134.005 134.005 0 01-7.824 4.68zm-130.845-1.472a133.413 133.413 0 01-7.728-4.862l.838-1.24a132.266 132.266 0 007.64 4.807l-.75 1.295zm146.158-8.415l-.894-1.201c2.4-1.793 4.768-3.692 7.038-5.643l.974 1.136a133.848 133.848 0 01-7.118 5.708zm-161.263-1.826a134.667 134.667 0 01-6.993-5.87l.999-1.114a133.43 133.43 0 006.914 5.803l-.92 1.181zm175.096-10.063l-1.048-1.068a133.47 133.47 0 006.21-6.553l1.119.995a135.13 135.13 0 01-6.28 6.626zm-188.664-2.14a134.703 134.703 0 01-6.13-6.765l1.14-.969a133.205 133.205 0 006.061 6.69l-1.071 1.044zm200.761-11.53l-1.182-.916a133.192 133.192 0 005.265-7.34l1.242.833a133.935 133.935 0 01-5.325 7.423zm-212.545-2.402a134.073 134.073 0 01-5.152-7.535l1.261-.805a132.88 132.88 0 005.095 7.452l-1.204.888zm222.676-12.796l-1.296-.744a132.004 132.004 0 004.216-7.997l1.344.654a132.943 132.943 0 01-4.264 8.087zm-232.453-2.608a133.503 133.503 0 01-4.074-8.166l1.359-.623c1.244 2.723 2.6 5.44 4.028 8.074l-1.313.715zm240.417-13.843l-1.387-.559a132.187 132.187 0 003.08-8.507l1.422.463a132.944 132.944 0 01-3.115 8.603zm-247.994-2.747a133.239 133.239 0 01-2.92-8.658l1.432-.43c.86 2.872 1.83 5.751 2.886 8.56l-1.398.528zm253.62-14.643l-1.451-.363a132.026 132.026 0 001.88-8.837l1.47.262a134.133 134.133 0 01-1.9 8.938zm-258.855-2.854a133.47 133.47 0 01-1.703-8.978l1.477-.229a131.829 131.829 0 001.684 8.876l-1.458.33zm262.038-15.13l-1.486-.16c.319-2.978.54-6.01.656-9.011l1.493.058c-.117 3.035-.34 6.1-.663 9.113zm-264.825-2.92a136.234 136.234 0 01-.465-9.126l1.495-.026c.051 3.004.206 6.04.46 9.024l-1.49.128zm264.04-15.289a134.046 134.046 0 00-.56-9.018l1.488-.144c.29 3.016.48 6.084.567 9.12l-1.495.042zm-1.732-17.977a132.616 132.616 0 00-1.784-8.856l1.454-.347c.7 2.946 1.307 5.96 1.805 8.958l-1.475.245zm-4.174-17.568a131.998 131.998 0 00-2.98-8.517l1.393-.544a133.162 133.162 0 013.013 8.614l-1.426.447zm-6.54-16.81a132.287 132.287 0 00-4.12-8.03l1.305-.73a133.826 133.826 0 014.168 8.121l-1.352.64zm-8.782-15.76a133.254 133.254 0 00-5.178-7.393l1.192-.902a134.413 134.413 0 015.239 7.477l-1.253.818zm-10.85-14.417a133.01 133.01 0 00-6.136-6.621l1.06-1.057a134.845 134.845 0 016.206 6.696l-1.13.982zM493.719 114.5a133.346 133.346 0 00-6.98-5.726l.907-1.191a134.5 134.5 0 017.058 5.79l-.985 1.127zm-14.332-10.962a132.737 132.737 0 00-7.695-4.719l.736-1.304a134.058 134.058 0 017.783 4.773l-.824 1.25zM463.69 94.64a130.94 130.94 0 00-8.27-3.618l.55-1.393a132.892 132.892 0 018.366 3.66l-.646 1.351zm-16.77-6.655a131.002 131.002 0 00-8.681-2.44l.353-1.455c2.941.717 5.895 1.547 8.78 2.467l-.453 1.428zm-17.51-4.272a132.05 132.05 0 00-8.932-1.221L420.63 81c3.014.307 6.053.723 9.033 1.235l-.252 1.477z" id="Shape" fill="#E6E6E6"/><path d="M274.83 208l-.83-.085c.043-1.646.101-3.3.172-4.915l.828.14c-.07 1.596-.127 3.231-.17 4.86z" id="Path" fill="#E6E6E6"/><path id="Path" stroke="#FFF" fill="#36AAE1" d="M521 472H144V304l188.5 84.747L521 304z"/><path id="Path" stroke="#FFF" stroke-width="4" fill="#36AAE1" d="M144 303h377l-188.127 99z"/><path d="M48.331 471c-.179-.28-4.396-7.048-5.858-21.1-1.34-12.891-.478-34.62 11.248-64.932 22.215-57.423-5.12-103.755-5.399-104.216l1.349-.752c.07.117 7.124 11.93 11.29 30.74 5.506 24.938 3.501 50.868-5.779 74.75-22.177 57.325-5.69 84.462-5.52 84.73l-1.33.78z" id="Path" fill="#3F3D56"/><circle id="Oval" fill="#36AAE1" cx="41" cy="269" r="9"/><circle id="Oval" fill="#36AAE1" cx="72" cy="304" r="9"/><circle id="Oval" fill="#36AAE1" cx="51" cy="328" r="9"/><circle id="Oval" fill="#36AAE1" cx="76" cy="348" r="9"/><circle id="Oval" fill="#36AAE1" cx="44" cy="379" r="9"/><path d="M54.63 472S44.444 448.571 75 431l-20.37 41zM43 471s-4.462-26.223-39-25.999L43 471zm165.086-367.026a92.497 92.497 0 0119.508-56.981c-37.235-5.514-74.065 12.279-93.034 44.945-18.968 32.667-16.263 73.642 6.834 103.504 23.096 29.862 61.943 42.61 98.126 32.201A111.963 111.963 0 00295 236.49l-29.444-21.053a92.854 92.854 0 0021.166-19.848c-45.18-6.742-78.632-45.716-78.636-91.615z" id="Path" fill="#3F3D56"/><path d="M418 93.612c0-39.533-25.004-74.707-62.249-87.568C318.507-6.818 277.235 5.469 253 36.633c32.478 4.831 59.951 26.622 72.141 57.221 12.19 30.6 7.26 65.395-12.945 91.37a92.529 92.529 0 0039.009-2.58 112.21 112.21 0 0055.543 8.846l-29.478-21.053c25.478-17.2 40.75-46.006 40.73-76.825z" id="Path" fill="#36AAE1"/><path d="M238.677 41c-20.349 25.874-25.311 60.528-13.031 91.002 12.28 30.475 39.952 52.18 72.668 56.998 20.356-25.872 25.322-60.53 13.041-91.006-12.28-30.477-39.958-52.182-72.678-56.994z" id="Path" fill="#E6E6E6"/><path id="Rectangle" fill="#3F3D56" d="M0 472h690v1H0z"/><path d="M602.09 119l-4.375 29.492-50.004 34.258s-26.291 12.761-24.636 20.69c1.475 7.067 21.763 6.23 28.147-4.698l59.784-27.53L631 131.12 602.09 119zM604 419l2.156 31L627 448.524 623.406 419z" id="Path" fill="#FFB8B8"/><path d="M610.231 440.497s-2.988-11.208-5.975-10.461l-4.482 8.22s-20.167 18.681-26.143 19.428c0 0-19.42 5.978 0 14.946h22.408s14.94-.748 17.927 0c2.988.747 20.167.747 20.914-3.737.747-4.483-2.24-13.45-2.24-13.45s-2.755-22.047-5.86-17.749a58.676 58.676 0 01-5.345 6.54l-11.204-3.737z" id="Path" fill="#2F2E41"/><path id="Path" fill="#FFB8B8" d="M660 420l2.156 31L683 449.524 679.406 420z"/><path d="M665.231 440.589s-2.988-11.307-5.975-10.553l-4.482 8.291s-20.167 18.844-26.143 19.598c0 0-19.42 6.03 0 15.075h22.408s14.94-1.508 17.927-.754c2.988.754 20.167.754 20.914-3.769.747-4.522-2.24-12.813-2.24-12.813s-2.755-22.238-5.86-17.903a59.086 59.086 0 01-5.345 6.596l-11.204-3.768zm-90.514-216.92L571 228.926v10.514l23.79 89.37 4.46 19.526s0 75.1 4.46 75.1c4.461 0 24.533 2.254 24.533-2.252s-1.486-106.643-1.486-106.643l20.072 38.301s8.921 67.59 11.895 68.342c2.973.75 23.79 0 25.276-4.506l-4.46-42.808s.743-48.064-11.895-58.578c0 0-2.23-12.767-4.46-18.024-2.231-5.257-5.948-8.261-3.718-12.017 2.23-3.755-2.974-45.06-2.974-45.06s1.487-12.767-1.486-16.522c-2.974-3.755-80.29 0-80.29 0z" id="Path" fill="#2F2E41"/><circle id="Oval" fill="#FFB8B8" cx="623" cy="31" r="23"/><path d="M637.53 45.982l-1.49 14.909 5.96 5.218L604 84c9.36-16 12.133-30.57 7.451-41l26.078 2.982z" id="Path" fill="#FFB8B8"/><path d="M610.75 69.482s-6 11.97 1.5 8.978L635.5 62S661 71.726 670 82.95l-7.5 79.306-6 56.114s3.75 6.733 3 7.482c-.75.748-1.5-.749-.75 1.496.75 2.244 3 0 .75 2.244-2.25 2.245-4.5 0-2.25 2.245s0 2.993 0 2.993-3-17.957-29.25-4.49c-26.25 13.468-37.5 17.209-57 .749l22.5-85.293 1.817-32.169a132.22 132.22 0 015.708-31.659c1.72-5.554 4.716-11.012 9.725-13.983v1.497z" id="Path" fill="#D0CDE1"/><path d="M649.489 134.52l11.254 27.87-26.259 55.74s-6.002 6.78-2.25 15.065A99.71 99.71 0 00638.985 246s6.752-3.013 6.752-15.818L684 175.195 680.999 130l-31.51 4.52z" id="Path" fill="#FFB8B8"/><path d="M649.89 84.73s-10.16 10.318-5.805 26.53c4.354 16.212 7.983 28.74 7.983 28.74s17.417-13.265 31.932-5.158c0 0-2.177-47.9-14.515-52.322-12.337-4.422-19.594 2.21-19.594 2.21z" id="Path" fill="#D0CDE1"/><path d="M641.136 12.258s-7.155-15.25-20.87-11.73c-13.713 3.519-21.465 8.798-22.061 14.077-.596 5.279.298 13.197.298 13.197s1.49-10.851 11.031-8.505c9.54 2.346 24.447.587 24.447.587L636.366 41s4.067-4.265 7.048-1.919c2.982 2.347 7.262-22.13-2.278-26.823z" id="Path" fill="#2F2E41"/><path d="M523.45 179.315l13.791-3.236a2.998 2.998 0 013.39 1.646L554.76 207.4c.311.656.322 1.417.027 2.08a2.442 2.442 0 01-1.554 1.36l-14.016 4.035a3.202 3.202 0 01-3.83-1.844l-9.014-21.21-.274.153-1.716-4.018.285-.148-2.516-5.92a1.899 1.899 0 01.052-1.597 1.857 1.857 0 011.247-.977z" id="Path" fill="#3F3D56"/><path d="M534.137 176.434l1.609-.38a2.068 2.068 0 012.348 1.157l13.782 29.625c.16.346.165.745.013 1.094a1.298 1.298 0 01-.805.724l-13.91 4.273a1.66 1.66 0 01-2.015-.955l-13.04-30.906a1.512 1.512 0 01.039-1.259c.195-.393.552-.678.973-.777l1.527-.36a.685.685 0 01.764.353c.13.247.406.375.674.312l7.247-1.71c.53-.124.876-.643.794-1.19z" id="Path" fill="#36AAE1"/></g></g></g></svg>