<svg width="513" height="429" xmlns="http://www.w3.org/2000/svg"><g id="ENTREPRISEPAGE" stroke="none" stroke-width="1" fill="none" fill-rule="evenodd"><g id="Entreprisepage---Desktop-HD--Entreprise-PAGE" transform="translate(-1143 -1047)" fill-rule="nonzero"><g id="Content" transform="translate(121 1047)"><g id="Cont1" transform="translate(85)"><g id="undraw_unexpected_friends_tg6k" transform="translate(937)"><path id="Rectangle" fill="#5D3CFF" transform="rotate(30 144.482 166.146)" d="M115.81 137.465l57.332.014.013 57.348-57.332-.013z"/><circle id="Oval" fill="#36AAE1" cx="438" cy="88" r="42"/><path d="M412.432 30.244C417.661 43.223 430.967 50 430.967 50s4.83-14.265-.4-27.244C425.34 9.777 412.034 3 412.034 3s-4.83 14.265.4 27.244z" id="Path" fill="#3F3D56"/><path d="M417.926 26.538C428.97 35.076 432 49.96 432 49.96s-14.88 1.04-25.926-7.498C395.03 33.924 392 19.04 392 19.04s14.88-1.04 25.926 7.498z" id="Path" fill="#36AAE1"/><path d="M433.34 22.844C428.182 35.822 433.16 50 433.16 50s13.341-6.865 18.5-19.844c5.158-12.978.18-27.156.18-27.156s-13.341 6.865-18.5 19.844z" id="Path" fill="#3F3D56"/><path d="M439.633 23.468C441.77 37.275 433.87 50 433.87 50s-11.366-9.66-13.502-23.468C418.23 12.725 426.13 0 426.13 0s11.366 9.66 13.502 23.468z" id="Path" fill="#36AAE1"/><circle id="Oval" fill="#F2F2F2" cx="436.5" cy="83.5" r="21.5"/><circle id="Oval" fill="#3F3D56" cx="427" cy="78" r="7"/><path d="M500 348c-7.18 0-13-5.82-13-13s5.82-13 13-13 13 5.82 13 13c-.008 7.176-5.824 12.992-13 13zm0-24.818c-6.527 0-11.818 5.291-11.818 11.818 0 6.527 5.291 11.818 11.818 11.818 6.527 0 11.818-5.291 11.818-11.818-.007-6.524-5.294-11.81-11.818-11.818zM156 215c-7.18 0-13-5.82-13-13s5.82-13 13-13 13 5.82 13 13c-.008 7.176-5.824 12.992-13 13zm0-24.818c-6.527 0-11.818 5.291-11.818 11.818 0 6.527 5.291 11.818 11.818 11.818 6.527 0 11.818-5.291 11.818-11.818-.007-6.524-5.294-11.81-11.818-11.818z" id="Shape" fill="#3F3D56"/><path d="M464.865 95l-68.416 76.363a33.917 33.917 0 01-10.993 59.268 33.914 33.914 0 01-34.157-8.873L256 328.128A156.213 156.213 0 00352.095 361C438.751 361 509 290.748 509 204.088A156.386 156.386 0 00464.865 95z" id="Path" fill="#F2F2F2"/><circle id="Oval" fill="#5D3CFF" cx="377.5" cy="199.5" r="20.5"/><circle id="Oval" fill="#2F2E41" cx="270" cy="42" r="20"/><path d="M233 182l4.584 89.256s-.764 64.08 3.82 64.844c4.583.762 12.986 6.102 15.278 2.288 2.291-3.814 13.75-121.296 13.75-121.296s3.056 122.059 12.223 122.822c9.167.763 19.862-3.814 21.39-3.052 1.528.763.764-152.573.764-152.573L233 182z" id="Path" fill="#2F2E41"/><path d="M247.025 336.042s-5.37 0-6.905 2.28c-1.535 2.282-6.906 13.687-6.906 13.687s-9.974 9.077.768 9.838c10.741.76 16.112-1.474 16.112-2.994 0-1.521 0-5.323 2.302-6.083 2.302-.76 4.604-4.563 4.604-6.083 0-1.521-2.302-11.406-9.975-10.645zm40.688-.022s-3.854 15.305 0 16.07c3.854.765 6.166 2.295 6.937 4.591.77 2.296 8.479 4.95 14.645 4.185 6.166-.765 9.25-4.95 6.937-7.246-2.312-2.295-13.874-15.304-14.645-17.6-.77-2.295-13.874 0-13.874 0z" id="Path" fill="#2F2E41"/><path d="M260.722 56.346s-1.551 11.66-4.655 13.215c-3.104 1.555 1.552 10.107 1.552 10.107L271.585 82 284 71.894s-2.328-14.771-2.328-15.548c0-.778-20.95 0-20.95 0z" id="Path" fill="#9F616A"/><path d="M260.722 56.346s-1.551 11.66-4.655 13.215c-3.104 1.555 1.552 10.107 1.552 10.107L271.585 82 284 71.894s-2.328-14.771-2.328-15.548c0-.778-20.95 0-20.95 0z" id="Path" fill="#000" opacity=".1"/><circle id="Oval" fill="#9F616A" cx="269.5" cy="48.5" r="18.5"/><path d="M269.396 78.564s-7.666-13.038-11.5-12.27c-3.833.766-15.716 2.683-17.25 1.917-1.533-.767-11.5 34.512-11.5 34.512s-10.733 69.792-3.833 78.228c6.9 8.436 30.667 3.835 33.734 12.271 3.066 8.436 51.366-4.602 51.366-9.203 0-4.602.766-75.16 1.533-80.53.767-5.368-6.9-33.745-6.9-33.745s-18.016-4.985-21.083-3.45c-3.067 1.533-4.6 6.135-14.567 12.27z" id="Path" fill="#575A88"/><path d="M242 70.692l-1.528-2.307s-16.042 2.307-20.625 1.538c-4.583-.77-18.334.77-18.334.77s3.056-8.462 6.112-9.231c3.055-.77 6.875-3.077 6.875-3.077s-7.64-11.539 0-15.385c0 0-35.14 13.846-37.431 26.923C174.777 83 230.542 103 230.542 103L242 70.692zm57 1.132l6.084-1.543 30.419 3.085-9.887-10.797S331.7 54.856 327.898 51c0 0 40.305 15.425 35.742 25.451-4.563 10.026-52.472 27.765-54.754 28.536-2.281.771-9.886-33.163-9.886-33.163z" id="Path" fill="#575A88"/><path d="M219.262 46.117c1.86.37 3.45 1.536 4.973 2.672a48.346 48.346 0 014.24 3.416c6.837 6.412 9.35 16.086 11.525 25.217-1.548 1.309-4.076.22-5.115-1.522-1.039-1.743-1.11-3.872-1.519-5.86-.408-1.99-1.406-4.127-3.335-4.742.405 1.263-.574 2.634-1.798 3.135-1.224.501-2.603.363-3.917.216a5.398 5.398 0 01-1.777-.406c-1.02-.495-1.617-1.56-2.172-2.55a78.458 78.458 0 00-4.767-7.483 5.548 5.548 0 00-1.502-1.578c-2.408-1.475-4.994-3.403-3.795-6.904.99-2.889 6.332-4.135 8.959-3.611zm101.238 3.89c-2.744.136-5.11 1.914-7.12 3.78a49.608 49.608 0 00-15.325 29.765c-.098.763-.128 1.662.46 2.163.66.562 1.748.23 2.29-.447a5.534 5.534 0 00.87-2.42 26.961 26.961 0 012.699-7.39c.645-1.19 1.54-2.442 2.882-2.653 1.997-.313 3.49 1.792 5.398 2.459 2.252.787 4.775-.622 6.143-2.568 1.37-1.946 1.904-4.331 2.658-6.585.754-2.253 1.873-4.564 3.93-5.766 2.192-1.28 7.237-2.17 5.097-5.762-1.554-2.61-7.11-4.719-9.981-4.576z" id="Path" fill="#9F616A"/><path d="M249.648 37.905s-4.903-12.703 2.206-16.856l1.961 5.619s17.896-10.75 22.554-8.307l-4.413 5.863s20.838 0 22.309 8.062l-7.355.245s7.845 5.13 8.09 13.436l-15.69.978 7.6 4.397s-28.437 3.909-35.301-7.329l-1.961-6.108z" id="Path" fill="#2F2E41"/><path d="M203.158 52L215 43s-3.947 11.25 0 15l-15 3 3.158-9zM337 57.5l-9.95-7.5s1.53 9.75-1.53 12c-3.062 2.25 8.418 3 8.418 3L337 57.5z" id="Path" fill="#575A88"/><circle id="Oval" fill="#36AAE1" cx="105" cy="340" r="42"/><path d="M65.29 289.922C73.553 300.968 87.96 304 87.96 304s1.012-14.876-7.25-25.922C72.447 267.032 58.04 264 58.04 264s-1.012 14.876 7.25 25.922z" id="Path" fill="#3F3D56"/><path d="M69.247 285.435C82.226 290.667 89 303.972 89 303.972s-14.268 4.824-27.247-.407C48.774 298.333 42 285.028 42 285.028s14.268-4.824 27.247.407z" id="Path" fill="#36AAE1"/><path d="M83.21 277.845C81.574 291.653 90.037 304 90.037 304s11.117-10.038 12.753-23.845C104.426 266.347 95.963 254 95.963 254s-11.117 10.038-12.753 23.845z" id="Path" fill="#3F3D56"/><path d="M89.106 277.02c5.702 12.703 1.22 26.98 1.22 26.98s-13.73-6.318-19.432-19.02c-5.702-12.703-1.22-26.98-1.22-26.98s13.73 6.318 19.432 19.02z" id="Path" fill="#36AAE1"/><circle id="Oval" fill="#F2F2F2" cx="88.5" cy="341.5" r="21.5"/><circle id="Oval" fill="#3F3D56" cx="81" cy="349" r="7"/><circle id="Oval" fill="#36AAE1" cx="271" cy="320" r="42"/><path d="M252.087 259.089c3.6 13.53 15.932 21.911 15.932 21.911s6.494-13.558 2.894-27.089C267.313 240.381 254.98 232 254.98 232s-6.494 13.558-2.894 27.089z" id="Path" fill="#3F3D56"/><path d="M257.845 256.478C267.785 266.143 269 281 269 281s-14.904-.813-24.845-10.478C234.215 260.857 233 246 233 246s14.904.813 24.845 10.478z" id="Path" fill="#36AAE1"/><path d="M274.298 254.282C267.544 266.432 270.77 281 270.77 281s14.177-5.132 20.932-17.282c6.754-12.15 3.528-26.718 3.528-26.718s-14.177 5.132-20.932 17.282z" id="Path" fill="#3F3D56"/><path d="M279.984 255.682c.46 13.807-9.152 25.318-9.152 25.318s-10.356-10.875-10.816-24.682c-.46-13.807 9.152-25.318 9.152-25.318s10.356 10.875 10.816 24.682z" id="Path" fill="#36AAE1"/><circle id="Oval" fill="#F2F2F2" cx="269.5" cy="315.5" r="21.5"/><circle id="Oval" fill="#3F3D56" cx="269" cy="303" r="7"/><path id="Rectangle" fill="#2F2E41" d="M168 361h219v1H168z"/><ellipse id="Oval" fill="#36AAE1" cx="476" cy="108.5" rx="12" ry="9.5"/><path id="Path" fill="#3F3D56" d="M145 306l19-15m-18 27a246.538 246.538 0 0118-13m-5 12a65.498 65.498 0 0018-13"/><circle id="Oval" fill="#3F3D56" cx="110.5" cy="369.5" r="10.5"/><ellipse id="Oval" fill="#F2F2F2" cx="58" cy="422" rx="58" ry="7"/><path d="M370 362c-7.18 0-13-5.82-13-13s5.82-13 13-13 13 5.82 13 13c-.008 7.176-5.824 12.992-13 13zm0-24.818c-6.527 0-11.818 5.291-11.818 11.818 0 6.527 5.291 11.818 11.818 11.818 6.527 0 11.818-5.291 11.818-11.818-.007-6.524-5.294-11.81-11.818-11.818z" id="Shape" fill="#3F3D56"/></g></g></g></g></g></svg>