<svg width="501" height="411" xmlns="http://www.w3.org/2000/svg"><g id="ENTREPRISEPAGE" stroke="none" stroke-width="1" fill="none" fill-rule="evenodd"><g id="Entreprisepage---Desktop-HD--Entreprise-PAGE" transform="translate(-1155 -2680)" fill-rule="nonzero"><g id="Content" transform="translate(121 1047)"><g id="Cont3" transform="translate(85 1633)"><g id="undraw_online_discussion_5wgl" transform="translate(949)"><path id="Path" fill="#F2F2F2" d="M115 83l2.126 176.077L209 304l-2.126-176.077zM87.278 69L18 210.457 112 256l-2.146-176.062zM501 267.61L315 177l2.133 175.978 115 56.022zM216 128l2.126 176.077L310 349l-2.126-176.077z"/><path id="Rectangle" fill="#36AAE1" transform="rotate(-2.221 418.337 143.133)" d="M412.54 135.685h11.594v14.897H412.54z"/><path d="M371.62 187.83s-15.87-7.851-15.617-1.071C356.257 193.539 372 198 372 198l-.38-10.17z" id="Path" fill="#FFB9B9"/><path d="M380.567 243.832s-7.553 18.468-10.344 31.794c-2.791 13.326-7.041 31.666-1.574 44.673 5.467 13.007 21.011 51.233 21.171 55.358.16 4.124-1.331 8.313 1.972 8.185 3.303-.128 21.279-5.781 22.009-8.288.73-2.507-6.133-8.85-6.133-8.85l-16.946-53.043 17.68-34.557 12.753 51.553L423.653 395s12.26-3.78 14.04-.544c0 0 5.492-7.648 6.19-10.98.697-3.331-2.595-66.817-2.595-66.817s11.253-72.31 2.17-71.959c-9.085.352-44.666-21.402-62.89-.868z" id="Path" fill="#2F2E41"/><path d="M391.687 380.65s-8.288 18.384-9.074 19.235c-.785.852-6.186 9.272-2.102 9.113 4.085-.16 13.728-4.64 20.827-11.483 7.098-6.844 16.457-18.702 15.608-19.49-.848-.788-6.661-3.025-6.661-3.025l-18.598 5.65zm33.263 10.825s-.513 8.165-2.061 11.482-1.353 8.197 2.843 8.04c4.195-.158 15.039-2.195 15.039-2.195s.644-4.912-.228-5.694c-.871-.782-4.586-9.603-3.005-12.106 1.58-2.503-12.587.473-12.587.473z" id="Path" fill="#2F2E41"/><path d="M431.005 122s8.818 13.54 12.256 16.673c3.438 3.134-6.234 10.033-6.234 10.033L419.718 151s.218-15.517-.674-17.116c-.891-1.598 11.96-11.884 11.96-11.884z" id="Path" fill="#FFB9B9"/><path d="M416.363 139.789s3.559 6.495 6.862 6.367c3.303-.129 20.387-7.426 21.116-9.942.73-2.516 5.659 18.022 5.659 18.022L408.197 228 398 220.934l4.94-43.31 4.058-23.375 9.365-14.46z" id="Path" fill="#36AAE1"/><path d="M445.836 205.423c-1.666 3.48-2.707 7.11-2.563 10.826.007.164.013.33.028.494.395 7.625 3.209 16.444 4.218 22.857.733 4.601.524 7.96-2.172 8.748-6.538 1.904.953 3.264-24.34 11.67-25.293 8.405-29.707 1.15-29.771-.498-.064-1.648 3.582-14.166 2.725-14.958-.858-.792-11.994 10.366-15.36 8.846-3.364-1.52-.383-9.887-.383-9.887s7.58-17.621 7.42-21.74c-.16-4.12 11.482-23.549 11.482-23.549l7.918-51.465s3.045-6.718 7.139-7.702 7.49 1.36 7.49 1.36l-6.85 15.118-7.228 26.684 1.21 9.855s8.404-17.654 13.925-24.468c5.52-6.815 17.29-22.948 17.29-22.948s2.748-9.258.673-12.024c-2.074-2.775 8.653-3.19 13.227 8.185 2.424 6.029 6.36 15.019 8.826 23.389 2.197 7.415 3.235 14.348 1.058 18.31-3.327 6.053-11.695 14.01-15.962 22.897z" id="Path" fill="#575A89"/><path d="M461.768 182.238c-3.41 6.018-11.989 13.927-16.362 22.762-1.143-3.985-2.536-8.108-2.536-8.108s-5.345-27.689 10.465-34.844c2.62-.246 5.24.463 7.348 1.988 2.252 7.371 3.316 14.263 1.085 18.202z" id="Path" fill="#000" opacity=".1"/><path d="M399.736 181l-12.933 3.738-17.956.69L367 200.893 396.51 203s7.37-20.539 3.226-22z" id="Path" fill="#575A89"/><path d="M422.036 234s-17.422 2.78-13.446 7.824c3.976 5.043 19.41-.26 19.41-.26L422.036 234z" id="Path" fill="#FFB9B9"/><path d="M442.774 217c.396 7.763 3.215 16.742 4.226 23.272-5.582 5.36-10.89 10.09-12.89 10.168-4.134.162-10.779-.416-13.226.52-2.448.937-3.884-14.968-3.884-14.968s1.46-5.098 7.978-7.875c4.399-1.878 12.83-6.973 17.796-11.117z" id="Path" fill="#000" opacity=".1"/><path d="M452.825 157.056s13.896-2.192 13.146 20.947c-.751 23.139 1.464 37.909-4.125 42.253-5.589 4.344-23.743 24.034-27.85 24.194-4.105.16-10.706-.41-13.138.51-2.432.92-3.858-14.705-3.858-14.705s1.451-5.009 7.925-7.737c6.474-2.728 21.726-12.4 21.599-15.696-.128-3.297-3.858-14.707-3.858-14.707s-5.189-27.86 10.159-35.06z" id="Path" fill="#575A89"/><circle id="Oval" fill="#FFB9B9" cx="419" cy="124" r="18"/><path d="M406.749 97.708c-.442.381-.97.647-1.54.774a1.1 1.1 0 01-1.274-.884c-.419.871-.891 1.8-1.747 2.247-.855.447-2.178.072-2.302-.887a4.052 4.052 0 01-.93 1.966c-.53.508-1.493.636-1.956.066.375 2.052.143 4.163.261 6.246.118 2.083.672 4.292 2.242 5.662 2.29 1.997 5.733 1.504 8.745 1.126.456-.096.929-.07 1.37.075 1.129.482 1.078 2.055 1.093 3.284.19 4.452 3.56 8.116 7.971 8.666a4.555 4.555 0 003.392-.83c.855-.727 1.292-1.911 2.272-2.457 1.594-.888 3.527.407 4.693 1.813 1.165 1.406 2.314 3.136 4.12 3.393 2.387.34 4.206-2.099 5.098-4.345a25.385 25.385 0 00-.502-19.682c-4.986-10.894-22.018-12.617-31.006-6.233z" id="Path" fill="#2F2E41"/><circle id="Oval" fill="#36AAE1" cx="310.5" cy="75.5" r="37.5"/><path d="M269.29 35.093C277.85 43.93 291 45 291 45s-.73-13.257-9.29-22.093C273.15 14.07 260 13 260 13s.73 13.257 9.29 22.093z" id="Path" fill="#3F3D56"/><path d="M271.765 30.978C283.64 34.228 291 45.384 291 45.384s-11.891 5.887-23.765 2.638C255.36 44.772 248 33.616 248 33.616s11.891-5.887 23.765-2.638z" id="Path" fill="#36AAE1"/><path d="M284 22.556C284.083 34.983 293.148 45 293.148 45s8.934-10.13 8.852-22.556C301.918 10.017 292.853 0 292.853 0S283.919 10.13 284 22.556z" id="Path" fill="#3F3D56"/><path d="M289.529 21.54C295.925 32.034 293.58 45 293.58 45s-12.714-4.047-19.11-14.54C268.075 19.966 270.42 7 270.42 7s12.714 4.047 19.11 14.54z" id="Path" fill="#36AAE1"/><circle id="Oval" fill="#F2F2F2" cx="306.5" cy="72.5" r="19.5"/><circle id="Oval" fill="#3F3D56" cx="297.5" cy="78.5" r="6.5"/><circle id="Oval" fill="#36AAE1" cx="108.5" cy="370.5" r="37.5"/><path d="M91.984 315.772C95.24 327.646 106.398 335 106.398 335s5.876-11.898 2.618-23.772C105.76 299.354 94.602 292 94.602 292s-5.876 11.898-2.618 23.772z" id="Path" fill="#3F3D56"/><path d="M97.084 313.28C105.921 321.84 107 335 107 335s-13.248-.72-22.084-9.28C76.079 317.16 75 304 75 304s13.248.72 22.084 9.28z" id="Path" fill="#36AAE1"/><path d="M110.803 311.318C104.827 322.088 107.68 335 107.68 335s12.541-4.548 18.516-15.318c5.976-10.77 3.122-23.682 3.122-23.682s-12.541 4.548-18.516 15.318z" id="Path" fill="#3F3D56"/><path d="M116.986 313.214c.413 12.426-8.237 22.786-8.237 22.786s-9.32-9.787-9.735-22.214C98.601 301.36 107.251 291 107.251 291s9.32 9.787 9.735 22.214z" id="Path" fill="#36AAE1"/><circle id="Oval" fill="#F2F2F2" cx="106.5" cy="366.5" r="19.5"/><circle id="Oval" fill="#3F3D56" cx="113.5" cy="356.5" r="6.5"/><path id="Rectangle" fill="#2F2E41" d="M5 407h195v1H5zm289 2h195v1H294z"/><path d="M50.217 408l-.924-.48c12-23.308 5.583-53.578-1.913-74.867A229.942 229.942 0 0028 291.558l.879-.558a231.117 231.117 0 0119.481 41.304c7.565 21.484 14.027 52.056 1.857 75.696z" id="Path" fill="#2F2E41"/><path id="Rectangle" fill="#2F2E41" transform="rotate(-79.645 56.038 310.16)" d="M37.238 309.636l37.6.005v1.042l-37.6-.005z"/><path id="Rectangle" fill="#2F2E41" transform="rotate(-42.94 31.017 342.194)" d="M30.486 316.569h1.043l.018 51.25h-1.042z"/><path id="Rectangle" fill="#2F2E41" transform="rotate(-54.137 68.289 376.834)" d="M53.176 376.308l30.225.01v1.043l-30.225-.01z"/><circle id="Oval" fill="#36AAE1" cx="62" cy="277" r="5"/><circle id="Oval" fill="#3F3D56" cx="5" cy="317" r="5"/><circle id="Oval" fill="#3F3D56" cx="28" cy="322" r="5"/><circle id="Oval" fill="#36AAE1" cx="18" cy="342" r="5"/><circle id="Oval" fill="#3F3D56" cx="83" cy="355" r="5"/><circle id="Oval" fill="#3F3D56" cx="66" cy="361" r="5"/><circle id="Oval" fill="#3F3D56" cx="78" cy="378" r="5"/><circle id="Oval" fill="#3F3D56" cx="23" cy="283" r="5"/><path id="Rectangle" fill="#3F3D56" d="M107 93h251v151H107z"/><circle id="Oval" fill="#36AAE1" cx="116.5" cy="99.5" r="2.5"/><circle id="Oval" fill="#36AAE1" cx="125.5" cy="99.5" r="2.5"/><circle id="Oval" fill="#36AAE1" cx="135.5" cy="99.5" r="2.5"/><path id="Rectangle" fill="#2F2E41" d="M107 105h251v1H107z"/><path id="Path" fill="#5D3CFF" d="M253 136v46.89h-67.808L172.665 198l1.43-15.11H168V136z"/><path id="Rectangle" fill="#000" opacity=".1" d="M222 152h31v31h-31z"/><path id="Path" fill="#36AAE1" d="M229 158h85v46.89h-6.096l1.431 15.11-12.525-15.11H229z"/><ellipse id="Oval" fill="#000" opacity=".1" cx="173" cy="203" rx="19" ry="2"/><ellipse id="Oval" fill="#000" opacity=".1" cx="309.5" cy="228" rx="21.5" ry="2"/></g></g></g></g></g></svg>