<svg width="576" height="470" xmlns="http://www.w3.org/2000/svg"><g id="Page-1" stroke="none" stroke-width="1" fill="none" fill-rule="evenodd"><g id="undraw_code_typing_7jnv" fill-rule="nonzero"><path d="M521.425 188.098C494.228 80.718 400.253 3.204 289.945.095 231.63-1.55 170.266 17.87 125.589 85.825c-79.867 121.478 4.908 205.423 64.01 245.312a370.337 370.337 0 0176.44 68.984c39.922 47.566 116.723 106.674 208.189 14.06 66.295-67.125 65.314-154.557 47.198-226.083z" id="Path" fill="#F2F2F2"/><path id="Path" fill="#000" opacity=".1" d="M401 289.181L456.91 234 401 178.819 418.045 162 491 234l-72.955 72L401 289.181z"/><path d="M240 236h22.51v-22H240v22zm113-22h-22.51v22H353v-22zm-67.755 22h22.51v-22h-22.51v22z" id="Shape" fill="#000" opacity=".1"/><path id="Path" fill="#000" opacity=".1" d="M210 288.181L154.034 233l55.91-55.181L192.897 161 120 233l72.955 72z"/><path d="M573 428.682C573 437.709 445.625 469 288.5 469S4 437.71 4 428.682c0-9.027 127.375 7.628 284.5 7.628S573 419.655 573 428.682z" id="Path" fill="#3F3D56"/><path d="M576 429.682C576 438.709 447.73 470 289.5 470S3 438.71 3 429.682c0-9.027 128.27 7.628 286.5 7.628S576 420.655 576 429.682z" id="Path" fill="#000" opacity=".1"/><ellipse id="Oval" fill="#3F3D56" cx="286.5" cy="429" rx="286.5" ry="16"/><path d="M352 347c0 35.928 22.363 65 50 65" id="Path" fill="#3F3D56"/><path d="M402 414c0-37.586 26.389-68 59-68m-92 5c0 34.27 15.207 62 34 62" id="Path" fill="#36AAE1"/><path d="M403 414c0-47.535 29.072-86 65-86" id="Path" fill="#5D3CFF"/><path d="M389 413.432s7.525-.196 9.793-1.559c2.267-1.363 11.575-2.99 12.137-.804.563 2.186 11.309 10.871 2.813 10.929-8.495.058-19.74-1.117-22.003-2.28-2.263-1.164-2.74-6.286-2.74-6.286z" id="Path" fill="#A8A8A8"/><path d="M413.897 420.11c-8.496.068-19.742-1.302-22.005-2.659-1.724-1.033-2.41-4.74-2.64-6.451l-.252.01s.477 5.972 2.74 7.329c2.264 1.356 13.509 2.726 22.005 2.659 2.453-.02 3.3-.878 3.253-2.15-.34.768-1.276 1.248-3.101 1.262z" id="Path" fill="#000" opacity=".2"/><path d="M486 217.598s-18.503-14.839-19.907-9.4c-1.405 5.44 13.576 17.802 13.576 17.802l6.331-8.402z" id="Path" fill="#FFB9B9"/><path d="M486 217.598s-18.503-14.839-19.907-9.4c-1.405 5.44 13.576 17.802 13.576 17.802l6.331-8.402z" id="Path" fill="#000" opacity=".1"/><path d="M541.52 178s-21.189 35.913-21.64 41.044c-.45 5.13-.45 5.558-2.253 5.13-1.804-.427-26.599-2.993-28.853-2.138-2.254.855-6.762-5.13-6.762-5.13s-8.566 8.123-6.763 9.833c1.804 1.71 7.214 2.565 8.115 4.703.902 2.138 2.254 4.276 6.312 3.848 4.057-.428 31.557 6.84 35.164 5.558 3.606-1.283 4.508-3.42 6.311-3.42s5.41-1.71 5.41-2.138c0-.428 12.623-23.087 12.623-23.087S564.061 181.42 541.52 178z" id="Path" fill="#D0CDE1"/><path d="M541.52 178s-21.189 35.913-21.64 41.044c-.45 5.13-.45 5.558-2.253 5.13-1.804-.427-26.599-2.993-28.853-2.138-2.254.855-6.762-5.13-6.762-5.13s-8.566 8.123-6.763 9.833c1.804 1.71 7.214 2.565 8.115 4.703.902 2.138 2.254 4.276 6.312 3.848 4.057-.428 31.557 6.84 35.164 5.558 3.606-1.283 4.508-3.42 6.311-3.42s5.41-1.71 5.41-2.138c0-.428 12.623-23.087 12.623-23.087S564.061 181.42 541.52 178z" id="Path" fill="#000" opacity=".1"/><path d="M508.985 151.456a38.781 38.781 0 00.116 7.319c.686 5.274 3.076 10.77.818 15.694-.819 1.787-2.207 3.344-2.963 5.152-1.6 3.828-.15 8.074-.367 12.148-.281 5.263-3.577 10.335-8.589 13.219 8.564.27 16.708-4.031 22.096-9.892 5.389-5.862 8.39-13.132 10.639-20.406a44.97 44.97 0 002.207-10.56 15.47 15.47 0 00-.7-6.12 23.408 23.408 0 00-3.1-5.377c-1.349-1.927-2.735-3.892-4.726-5.326-2.452-1.766-7.18-3.54-10.432-3.282-3.99.315-4.831 4.618-5 7.431z" id="Path" fill="#2F2E41"/><path d="M522 166.806s5.304 18.243.964 23.388c-4.339 5.145 26.036-2.339 26.036-2.339s-14.946-14.5-7.714-23.855L522 166.806z" id="Path" fill="#FFB9B9"/><path d="M522 166.806s5.304 18.243.964 23.388c-4.339 5.145 26.036-2.339 26.036-2.339s-14.946-14.5-7.714-23.855L522 166.806z" id="Path" fill="#000" opacity=".1"/><path id="Path" fill="#36AAE1" d="M401 279.181L456.91 224 401 168.819 418.045 152 491 224l-72.955 72L401 279.181z"/><path id="Path" fill="#FFB9B9" d="M509 394.438v12.687l5.893 7.875 5.107-2.625L518.429 394z"/><path d="M510.511 410.213s-1.81-5.918-4.98-1.69c-3.17 4.227-6.34 13.527-8.15 13.95-1.811.422-14.489 13.527-1.811 13.527 12.677 0 16.752-5.496 16.752-5.496S525 425.854 525 425.01c0-.846-1.811-16.487-2.717-16.487-.905 0-1.358 2.96-3.622 2.96s-8.15-1.269-8.15-1.269z" id="Path" fill="#2F2E41"/><path id="Path" fill="#FFB9B9" d="M537.458 400.974L537 414.13l11 4.87v-19z"/><path d="M546.386 411.01s-5.663-6.141-8.712-4.825a30.01 30.01 0 00-4.357 2.193s-1.742 5.703-2.613 10.529c-.872 4.826-1.307 7.02-2.179 8.774-.87 1.755-1.742 8.335 6.97 9.212 8.713.878 11.327-3.948 11.327-3.948L549 421.54s-.871-10.529-2.614-10.529zm-33.97-138.267s-13.522 28.56-11.657 54.485c0 0-4.663 10.106-1.865 25.925 2.798 15.818 6.528 47.455 6.528 47.455s12.59 1.318 13.522-.879c0 0 .933-21.97 1.865-22.849.933-.879-.466-21.09-1.865-25.046-1.399-3.954 13.056-43.06 13.056-43.06L528.27 260l-15.854 12.743z" id="Path" fill="#2F2E41"/><path d="M512.416 272.743s-13.522 28.56-11.657 54.485c0 0-4.663 10.106-1.865 25.925 2.798 15.818 6.528 47.455 6.528 47.455s12.59 1.318 13.522-.879c0 0 .933-21.97 1.865-22.849.933-.879-.466-21.09-1.865-25.046-1.399-3.954 13.056-43.06 13.056-43.06L528.27 260l-15.854 12.743z" id="Path" fill="#000" opacity=".1"/><path d="M510 270.574l8.134 18.108s3.853 41.073 5.993 46.372c0 0 .857 15.016 4.71 19.874 3.852 4.858 6.85 47.698 6.85 47.698s10.702 3.092 11.558 0c.856-3.092 3.425-24.29 3.425-24.29s.856-18.108-3.853-30.032c-4.71-11.925 5.565-54.764 5.565-54.764s10.703-20.758-4.709-37.54L510 270.574z" id="Path" fill="#2F2E41"/><circle id="Oval" fill="#FFB9B9" cx="532" cy="154" r="18"/><path d="M553.58 180s-19.702 0-22.451 2.235a3.722 3.722 0 01-5.04 0s-6.874.447-8.706 5.81c-1.833 5.364-7.332 12.516-7.332 12.516s-8.247 5.81-3.665 21.008c4.582 15.197.916 39.78.916 39.78s-3.665 5.365 0 7.6c3.666 2.234 5.04 3.128 4.582 4.916-.458 1.788 41.696-14.75 41.696-17.879 0-3.129-.916-5.81 0-7.151.917-1.341 1.833-3.576.917-5.811-.917-2.235.916-2.682.458-4.917s2.291-18.773 4.124-25.925c1.833-7.151 1.374-31.735-5.499-32.182z" id="Path" fill="#D0CDE1"/><path d="M486 223.598s-18.503-14.839-19.907-9.4c-1.405 5.44 13.576 17.802 13.576 17.802l6.331-8.402z" id="Path" fill="#FFB9B9"/><path d="M541.52 184s-21.189 35.913-21.64 41.044c-.45 5.13-.45 5.558-2.253 5.13-1.804-.427-26.599-2.993-28.853-2.138-2.254.855-6.762-5.13-6.762-5.13s-8.566 8.123-6.763 9.833c1.804 1.71 7.214 2.566 8.115 4.703.902 2.138 2.254 4.276 6.312 3.848 4.057-.428 31.557 6.84 35.164 5.558 3.606-1.283 4.508-3.42 6.311-3.42s5.41-1.71 5.41-2.138c0-.428 12.623-23.087 12.623-23.087S564.061 187.42 541.52 184z" id="Path" fill="#D0CDE1"/><path d="M524.472 165.172c-.256-1.733-1.194-3.305-1.675-4.994-.76-2.731-.31-5.639 1.247-8.049 2.651-4.052 7.857-5.847 11.487-9.151.075 1.683 1.309 3.12 2.673 4.203 1.364 1.083 2.928 1.96 4.083 3.242a12.44 12.44 0 012.378 4.56 15.232 15.232 0 01.94 5.979c-.106 2.051-1.096 3.972-2.739 5.314-1.352 1.011-3.241 1.589-3.894 3.098a5.013 5.013 0 00-.218 2.339c.31 4.694.6 9.472-.569 14.043-1.168 4.572-4.03 8.988-8.514 11.015 3.686.247 7.449.489 11.024-.392 3.576-.88 6.996-3.097 8.228-6.394.608-1.626.666-3.434 1.53-4.953 2.187-3.844 8.226-4.02 11.193-7.363 1.187-1.338 1.761-3.062 2.187-4.762 2.505-10.004.745-20.626-3.068-30.253-1.315-3.318-2.951-6.659-5.77-8.991-2.4-1.984-5.463-3.078-8.492-4.012-4.421-1.362-8.976-2.479-13.623-2.623a18.23 18.23 0 00-5.98.66 18.063 18.063 0 00-5.263 2.838c-7.28 5.36-12.236 13.93-11.579 22.637.398 5.269 2.757 10.255 5.788 14.691 1.06 1.551 3.564 4.86 5.891 3.884 2.111-.885 3.012-4.695 2.735-6.566z" id="Path" fill="#2F2E41"/><path d="M240 226h22.51v-22H240v22zm113-22h-22.51v22H353v-22zm-67.755 22h22.51v-22h-22.51v22z" id="Shape" fill="#36AAE1"/><ellipse id="Oval" fill="#2F2E41" cx="108.5" cy="121.5" rx="18.5" ry="14.5"/><path d="M114.45 225.622s16.302 1.092 19.2-1.093c2.9-2.184 15.217 2.913 16.304 5.825 1.087 2.913-17.39 3.277-20.289 3.277C126.767 233.631 113 238 113 238l1.45-12.378z" id="Path" fill="#A0616A"/><path d="M76.21 401.806s-8.282 22.105-3.962 24.772c4.321 2.668 49.69.763 49.69.763s7.561-4.955-1.08-8.385c0 0-7.202-.38-11.883-3.43-4.68-3.049-10.081-8.765-10.081-8.765s-.36-8.385-3.241-6.48c-1.743 1.216-2.92 3.154-3.24 5.336l-16.204-3.81z" id="Path" fill="#2F2E41"/><path d="M76.21 401.806s-8.282 22.105-3.962 24.772c4.321 2.668 49.69.763 49.69.763s7.561-4.955-1.08-8.385c0 0-7.202-.38-11.883-3.43-4.68-3.049-10.081-8.765-10.081-8.765s-.36-8.385-3.241-6.48c-1.743 1.216-2.92 3.154-3.24 5.336l-16.204-3.81z" id="Path" fill="#000" opacity=".1"/><path id="Path" fill="#36AAE1" d="M210 277.181L154.034 222l55.91-55.181L192.897 150 120 222l72.955 72z"/><path d="M64.692 409.806s-9.049 22.105-4.328 24.772c4.721 2.668 54.29.763 54.29.763s8.262-4.955-1.18-8.385c0 0-7.868-.38-12.982-3.43-5.115-3.049-11.016-8.765-11.016-8.765s-.393-8.385-3.54-6.48c-1.904 1.216-3.19 3.154-3.541 5.336l-17.703-3.81z" id="Path" fill="#2F2E41"/><path d="M109 269.588l-5.293 48.325s-1.89 23.012-7.56 27.998c0 0 0 7.287-1.89 9.588l-2.647 30.299s3.78 11.122 3.402 13.04c-.378 1.918 1.512 8.054 1.134 8.821-.378.767-18.146 0-18.146 0l3.78-61.748L93.5 260l15.5 9.588z" id="Path" fill="#2F2E41"/><path d="M109 269.588l-5.293 48.325s-1.89 23.012-7.56 27.998c0 0 0 7.287-1.89 9.588l-2.647 30.299s3.78 11.122 3.402 13.04c-.378 1.918 1.512 8.054 1.134 8.821-.378.767-18.146 0-18.146 0l3.78-61.748L93.5 260l15.5 9.588z" id="Path" fill="#000" opacity=".1"/><path d="M101 265.136s-4.441 40.156-6.46 48.732a107.291 107.291 0 00-2.422 17.154s-.404 12.476-4.038 15.984c-2.149 2.055-3.319 4.878-3.23 7.797 0 0-3.634 39.376-1.615 44.054 2.019 4.678 4.038 8.577 2.019 11.696-2.019 3.119-24.225 3.119-24.225.78 0-2.34 0-4.289-1.211-5.458-1.211-1.17 0-8.577 0-8.577s-4.845-34.697-.404-44.834c4.441-10.136 6.46-37.816 6.46-37.816s-3.23-31.578-7.267-36.646c-4.038-5.069.807-23.002.807-23.002L101 265.136z" id="Path" fill="#2F2E41"/><path d="M87 144.823c.465 1.088 1.579 1.694 2.592 2.268 5.875 3.324 10.793 8.144 15.638 12.909a19.334 19.334 0 01.729-12.752c.578-1.376 1.336-2.855.923-4.292-.304-1.057-1.18-1.82-2.03-2.494a62.865 62.865 0 00-6.188-4.337c-1.498-.92-4.578-3.372-6.298-3.105-.09 2.386-.137 4.52-1.154 6.75-.242.529-4.034 5.469-4.212 5.053z" id="Path" fill="#A0616A"/><circle id="Oval" fill="#A0616A" cx="110.5" cy="132.5" r="15.5"/><path d="M109.943 170.113s2.637-13.476-4.897-18.097a3485.217 3485.217 0 01-16.196-10.01s-2.637-.386-3.767 5.39c0 0-21.47 4.235-23.73 25.028-2.26 20.792 1.507 51.21 1.507 51.21s-3.39 26.568-7.533 40.815c0 0-3.39 3.08 11.676-1.54C82.07 258.289 108.436 276 108.436 276s2.637-2.695 2.637-4.62c0-1.926 3.013-13.092 3.013-13.092s2.637-47.36 3.767-52.75c1.13-5.391-4.52-34.655-7.91-35.425z" id="Path" fill="#575A89"/><path d="M106.218 135.714a6.086 6.086 0 012.91-.792 5.453 5.453 0 002.878-.876c1.402-1.1 1.505-3.224 2.53-4.694 1.484-2.129 4.446-2.385 7.002-2.278 1.563.065 3.246.16 4.563-.704 1.351-.887 1.964-2.558 2.42-4.131.539-1.861.887-4.137-.448-5.517-.928-.959-2.391-1.148-3.421-1.99-1.068-.872-1.508-2.293-2.089-3.558a9.583 9.583 0 00-3.03-3.878c-1.943-1.38-4.425-1.69-6.792-1.663-2.366.026-4.742.343-7.09.047-1.924-.243-3.842-.897-5.76-.607-2.444.369-4.466 2.253-5.67 4.457-1.204 2.203-1.72 4.719-2.222 7.19l-1.363 6.722c-.422 2.085-.847 4.225-.52 6.328.676 4.36 4.45 7.824 4.71 12.23.503-2.471 2.188-4.518 4.484-5.449.284-.142.606-.181.914-.113.375.122.594.505.83.826.62.842 2.568 2.12 3.672 1.522.988-.534.25-2.212 1.492-3.072z" id="Path" fill="#2F2E41"/><path d="M64.285 207.285s-2.69 18.27 8.458 16.608c0 0 5.766-.83 6.535 0 .769.83 29.216-4.567 33.06-9.134 0 0 4.613-1.661 6.92.83 2.306 2.491 25.372 4.983 18.452-2.491-6.92-7.474-17.683-9.135-17.683-9.135l-14.608.83s-7.689 2.492-12.302 0c-4.613-2.49-17.683-1.66-17.683-1.66l-11.149 4.152z" id="Path" fill="#A0616A"/><path d="M81.552 154S65 155.993 65 181.908V215s9.196-4.386 11.035-3.987c1.839.399 9.195-5.183 9.195-5.183s8.46-21.53 7.725-27.51c-.736-5.98-.368-23.523-11.403-24.32z" id="Path" fill="#575A89"/><ellipse id="Oval" fill="#2F2E41" cx="109.5" cy="124" rx="14.5" ry="7"/><ellipse id="Oval" fill="#2F2E41" cx="95" cy="125" rx="5" ry="14"/></g></g></svg>