<svg width="565" height="423" xmlns="http://www.w3.org/2000/svg"><g id="Page-1" stroke="none" stroke-width="1" fill="none" fill-rule="evenodd"><g id="undraw_palette_110c" transform="translate(0 -28)"><path d="M174 230.585C174 296.86 135.049 320 87 320S0 296.86 0 230.585C0 164.311 87 80 87 80s87 84.311 87 150.585z" id="Path" fill="#F2F2F2" fill-rule="nonzero"/><path id="Path" fill="#3F3D56" fill-rule="nonzero" d="M83.996 309.757l.892-55.199L122 186.269 85.028 245.9l.4-24.82 25.578-49.406-25.471 42.839.72-44.64 27.39-39.333-27.276 32.314.45-81.853-2.83 108.358.232-4.47-27.847-42.871 27.4 51.452-2.594 49.855-.077-1.324L49 196.885l32.005 49.79-.324 6.235-.058.093.026.512L74.066 380h8.796l1.055-65.332L115.844 265z"/><path d="M565 388.374C565 410.967 448.594 451 305 451S45 410.967 45 388.374c0-22.593 116.406-19.192 260-19.192s260-3.401 260 19.192z" id="Path" fill="#3F3D56" fill-rule="nonzero"/><path d="M565 388.374C565 410.967 448.594 451 305 451S45 410.967 45 388.374c0-22.593 116.406-19.192 260-19.192s260-3.401 260 19.192z" id="Path" fill="#000" fill-rule="nonzero" opacity=".1"/><ellipse id="Oval" fill="#3F3D56" fill-rule="nonzero" cx="305" cy="388" rx="260" ry="41"/><ellipse id="Oval" fill="#000" fill-rule="nonzero" opacity=".1" cx="313.5" cy="394" rx="62.5" ry="13"/><path d="M281.593 365s-.144 8.83-.862 11.17c-.719 2.34 0 5.283 0 5.283L278 389h9.7s2.3-11.019 2.3-12c0-.981-1.365-9.283-1.365-9.283L281.593 365z" id="Path" fill="#FFB9B9" fill-rule="nonzero"/><path d="M291.777 385.336s-2.68-7.506-14.037 0c0 0-4.494 6.78-1.971 8.877 2.523 2.099 6.86 4.924 10.488 3.31 3.628-1.615 5.047-3.39 5.52-6.7a17.014 17.014 0 000-5.487z" id="Path" fill="#2F2E41" fill-rule="nonzero"/><path d="M337.407 365s.144 8.83.862 11.17c.719 2.34 0 5.283 0 5.283L341 389h-9.7s-2.3-11.019-2.3-12c0-.981 1.365-9.283 1.365-9.283l7.042-2.717z" id="Path" fill="#FFB9B9" fill-rule="nonzero"/><path d="M329.223 385.336s2.68-7.506 14.037 0c0 0 4.494 6.78 1.971 8.877-2.523 2.099-6.86 4.924-10.488 3.31-3.628-1.615-5.047-3.39-5.52-6.7a17.014 17.014 0 010-5.487z" id="Path" fill="#2F2E41" fill-rule="nonzero"/><path d="M280 197.273s7.647 10.17 8.583 13.41c.936 3.238 6.788 2.937 6.398 0-.39-2.939-10.611-18.683-10.611-18.683l-4.37 5.273zM339.386 194s-11.918 18.752-8.895 20.836c3.023 2.083 14.509-16.348 14.509-16.348L339.386 194z" id="Path" fill="#FFB9B9" fill-rule="nonzero"/><path d="M331.22 209.744h-17.26c-3.18 0-13.627.816-15.292 0-1.666-.816-7.873-.742-7.873-.742s-12.643 28.35-9.236 50.986c3.407 22.635-7.192 100.933-2.195 103.308 4.996 2.375 9.462 5.343 13.777 5.492 4.315.148 12.34-1.707 13.248-2.969.909-1.262 5.375-111.249 5.375-111.249s1.59 108.503 4.542 110.952c2.953 2.45 11.432 4.082 16.73 3.266 5.3-.817 10.75-3.711 11.81-5.64 1.06-1.93-3.71-56.404-3.71-56.404s7.344-83.641-4.768-94.106l-5.148-2.894z" id="Path" fill="#2F2E41" fill-rule="nonzero"/><path d="M304.691 121.844s3.637 12.32-3.563 15.852c-7.2 3.53 6.181 32.304 6.181 32.304S326 145.284 326 139.874l-3.127-3.23s-6.11-10.593-4.218-13.898c1.89-3.306-13.964-.902-13.964-.902z" id="Path" fill="#FFB9B9" fill-rule="nonzero"/><path d="M304.691 121.844s3.637 12.32-3.563 15.852c-7.2 3.53 6.181 32.304 6.181 32.304S326 145.284 326 139.874l-3.127-3.23s-6.11-10.593-4.218-13.898c1.89-3.306-13.964-.902-13.964-.902z" id="Path" fill="#000" fill-rule="nonzero" opacity=".1"/><path d="M310.008 162.742s-4.606-12.056-4.07-16.586c.538-4.53-.739-11.939-2.71-12.151-1.972-.212-22.24 6.392-24.313 7.774-2.072 1.382-3.915 29.487-3.915 29.487l9.06 20.887s.767 17.124 5.066 17.892c4.3.768 44.911 2.918 46.217 1.46 1.305-1.46 14.663-41.314 14.663-41.314L353 146.847s-3.762-4.684-7.754-5.76c-3.992-1.074-16.89-5.682-18.348-5.835-1.459-.154-6.065.69-6.45 2.073-.383 1.382-10.44 25.417-10.44 25.417z" id="Path" fill="#D0CDE1" fill-rule="nonzero"/><circle id="Oval" fill="#FFB9B9" fill-rule="nonzero" cx="314.5" cy="113.5" r="14.5"/><path d="M317.703 83.9c-2.939-3.52-8.945-3.901-12.31-.78-.907.84-1.623 1.875-2.57 2.672-.92.72-1.942 1.305-3.032 1.733-3.589 1.56-7.4 2.67-10.748 4.69-3.348 2.022-6.282 5.22-6.696 9.088-.22 2.046.277 4.137-.1 6.16-.59 3.172-3.157 5.538-5.305 7.958-2.04 2.298-3.877 5.573-2.417 8.272 1.242 2.296 4.285 2.977 5.994 4.955 1.975 2.282 1.722 5.737.745 8.585-.978 2.848-2.568 5.524-2.97 8.506-.661 4.908 2.055 9.719 5.592 13.21 1.619 1.597 3.48 3.038 5.666 3.692a9.868 9.868 0 009.458-2.376 10.731 10.731 0 003.017-9.305c-.298-1.843-1.061-3.652-.863-5.509.407-3.813 4.597-6.219 5.59-9.925 1.015-3.792-1.549-7.486-3.057-11.112-1.903-4.574-2.172-9.64-2.217-14.588-.025-2.831.268-6.146 2.671-7.67 1.57-.997 3.57-.887 5.427-1.024 2.167-.159 4.324-.698 6.487-.5 2.164.2 4.449 1.388 5.036 3.466.658 2.325-1.005 4.686-.989 7.102.008 1.184.422 2.338.43 3.522.021 3.44-3.189 5.899-4.989 8.838a11.926 11.926 0 001.034 13.564c1.833 2.173 4.598 3.95 4.916 6.768.178 1.58-.492 3.115-.895 4.654-.403 1.539-.469 3.377.658 4.507.764.767 1.9 1.02 2.976 1.162 2.773.364 5.59.229 8.315-.401a3.97 3.97 0 001.91-.856c1.353-1.302.506-3.61 1.13-5.374.612-1.725 2.511-2.625 4.293-3.086 1.781-.462 3.707-.705 5.16-1.827 1.614-1.248 2.322-3.402 2.231-5.432-.09-2.03-.88-3.964-1.798-5.78a1.865 1.865 0 01-.3-1.115c.18-1.046 1.683-.956 2.752-.969 2.82-.034 4.984-2.902 5.062-5.702.078-2.799-1.423-5.411-3.217-7.573-1.793-2.161-3.925-4.05-5.498-6.376-2.689-3.974-3.622-9.045-6.888-12.568a12.443 12.443 0 00-5.874-3.487c-1.732-.467-4.331.118-5.682-1.107-.527-.478-.752-1.25-1.268-1.758-.838-.826-1.985-1.07-2.926-1.738-1.809-1.284-2.56-3.512-3.941-5.167z" id="Path" fill="#2F2E41" fill-rule="nonzero"/><path d="M283.832 143.605l-2.866-.605s-35.599 28.186-37.334 31.814c-1.734 3.627-6.41 6.876 3.47 12.77 9.88 5.895 34.241 15.416 34.241 15.416L287 192.95l-27.68-14.282s6.411-9.068 19.76-7.028l4.752-28.035zM350.435 146l2.466 1.133s37.145 27.112 32.735 33.909c-4.41 6.797-40.283 22.958-40.283 22.958L339 193.88s.493-.235 1.34-.644c5.352-2.584 24.859-12.092 23.697-12.874-1.345-.906-12.63-11.026-15.77-11.404-3.139-.377 2.168-22.958 2.168-22.958z" id="Path" fill="#D0CDE1" fill-rule="nonzero"/><path d="M534 343.646C534 374.3 516.093 385 493.997 385c-.51 0-1.021-.005-1.526-.016a55.58 55.58 0 01-3.043-.148c-19.94-1.428-35.428-12.68-35.428-41.19 0-29.512 37.084-66.763 39.836-69.487l.005-.006c.103-.104.156-.153.156-.153S534 312.997 534 343.646z" id="Path" fill="#36AAE1" fill-rule="nonzero"/><path d="M493.297 380.328l14.836-20.8-14.869 23.081-.038 2.391a57.116 57.116 0 01-3.085-.148l1.597-30.664-.01-.241.026-.044.153-2.894L477 327.867l14.95 20.97.039.613 1.204-23.175-12.76-23.914 12.918 19.843 1.26-48.045.005-.159v.153l-.213 37.892 12.705-15.018-12.76 18.284-.332 20.746 11.86-19.909-11.909 22.962-.185 11.538L511 322.932l-17.283 31.737-.42 25.659z" id="Path" fill="#3F3D56" fill-rule="nonzero"/><path d="M117 385.254C117 399.891 108.046 405 96.999 405c-.256 0-.511-.003-.764-.008a29.092 29.092 0 01-1.521-.07C84.744 404.24 77 398.867 77 385.254c0-14.09 18.542-31.878 19.918-33.178l.003-.003c.05-.05.078-.073.078-.073S117 370.62 117 385.254z" id="Path" fill="#36AAE1" fill-rule="nonzero"/><path d="M95.148 402.77l7.419-9.933-7.435 11.021-.019 1.142c-.52-.01-1.033-.034-1.542-.07l.798-14.642-.005-.115.013-.021.077-1.382L87 377.72l7.475 10.013.02.293.602-11.066-6.38-11.418 6.459 9.475.63-22.941.002-.076v.073l-.106 18.093 6.352-7.171-6.38 8.73-.166 9.906 5.93-9.506-5.954 10.963-.093 5.51L104 375.364l-8.642 15.154-.21 12.251z" id="Path" fill="#3F3D56" fill-rule="nonzero"/><path d="M453 394.254c0 14.637-8.954 19.746-20.001 19.746-.256 0-.511-.003-.764-.008a29.092 29.092 0 01-1.521-.07c-9.97-.682-17.714-6.055-17.714-19.668 0-14.09 18.542-31.878 19.918-33.178l.003-.003c.05-.05.078-.073.078-.073S453 379.62 453 394.254z" id="Path" fill="#5D3CFF" fill-rule="nonzero"/><path d="M432.148 411.77l7.419-9.933-7.435 11.021-.019 1.142c-.52-.01-1.033-.034-1.542-.07l.798-14.642-.005-.115.013-.021.077-1.382L424 386.72l7.475 10.013.02.293.602-11.066-6.38-11.418 6.459 9.475.63-22.941.002-.076v.073l-.106 18.093 6.352-7.171-6.38 8.73-.166 9.906 5.93-9.506-5.954 10.963-.093 5.51L441 384.364l-8.642 15.154-.21 12.251z" id="Path" fill="#3F3D56" fill-rule="nonzero"/><text id="?" stroke="#09638D" font-family="LucidaGrande-Bold, Lucida Grande" font-size="130" font-weight="bold" fill="#53B5E8"><tspan x="177" y="126">?</tspan></text></g></g></svg>