<svg width="561" height="307" xmlns="http://www.w3.org/2000/svg"><g id="Page-1" stroke="none" stroke-width="1" fill="none" fill-rule="evenodd"><g id="undraw_reading_0re1" fill-rule="nonzero"><ellipse id="Oval" fill="#3F3D56" cx="277" cy="289" rx="143" ry="18"/><path d="M517.209 136.877l-55.09 25.97 48.757-36.314a274.156 274.156 0 00-26.622-34.892L245.337 150.79l215.81-81.998A274.983 274.983 0 00429.808 45L65.754 103.407C27.101 151.551 6.03 211.355 6 273h548a270.784 270.784 0 00-36.791-136.123zM399 27.708A269.789 269.789 0 00279.562 0C195.329 0 120.02 38.503 70 99c85.655-18.92 234.787-51.67 329-71.292z" id="Path" fill="#F2F2F2"/><circle id="Oval" fill="#3FAAE1" opacity=".4" cx="454" cy="45" r="8"/><ellipse id="Oval" fill="#3FAAE1" opacity=".4" cx="439" cy="48.5" rx="6" ry="5.5"/><ellipse id="Oval" fill="#3FAAE1" opacity=".4" cx="65.5" cy="66" rx="17.5" ry="17"/><circle id="Oval" fill="#3FAAE1" opacity=".4" cx="32.5" cy="73.5" r="11.5"/><path id="Rectangle" fill="#2F2E41" d="M0 271h561v1H0z"/><path d="M496.506 272L453 206s65.886 23.492 58.409 66h-14.903z" id="Path" fill="#3F3D56"/><path d="M499.494 272L543 206s-65.886 23.492-58.409 66h14.903z" id="Path" fill="#3FAAE1"/><path d="M312.468 62.183c-11.336-19.215-33.762-20.11-33.762-20.11s-21.852-2.804-35.87 26.46c-13.067 27.277-31.1 53.613-2.904 59.998l5.093-15.903 3.154 17.087c4.015.29 8.042.359 12.064.207 30.196-.978 58.953.286 58.027-10.585-1.23-14.45 5.104-38.666-5.802-57.154zM237.62 230.06a44.37 44.37 0 01-1.457 6.223c-.716 1.994-1.82 3.838-2.474 5.852-2.085 6.422.805 13.581 5.421 18.538a30.57 30.57 0 0014.879 8.758c4.164 1.038 8.494 1.187 12.786 1.332 11.884.399 24.073.756 35.334-3.03a61.654 61.654 0 0010.266-4.622 7.676 7.676 0 002.663-2.08c.86-1.211.97-2.783.962-4.264-.026-4.994-1.047-9.963-.804-14.95.134-2.764.656-5.525.399-8.279-.728-6.41-5.44-11.675-11.774-13.155-3.195-.68-6.508-.31-9.76 0-8.442.805-16.92 1.18-25.4 1.127-8.665-.055-17.277-1.366-25.899-1.503-2.55-.04-2.498.738-3.31 3.184a59.17 59.17 0 00-1.831 6.869z" id="Path" fill="#2F2E41"/><path d="M264.299 106.411c-.414 2.186-.862 4.452-2.165 6.249-1.5 2.067-3.944 3.248-5.556 5.226-2.428 2.977-2.567 7.167-2.577 11.021-.01 3.55.062 7.338 2.026 10.285 1.274 1.913 3.214 3.254 5.11 4.542 7.365 5.004 15.324 10.098 24.204 10.263 3.68.068 7.624-.89 10.045-3.684a15.24 15.24 0 002.432-4.375 58.488 58.488 0 004.08-17.684c.201-2.858.182-5.799-.777-8.496-1.08-3.032-3.26-5.527-4.702-8.402a18.84 18.84 0 01-1.786-11.069c.072-.266.05-.55-.063-.802a1.154 1.154 0 00-.955-.39l-17.608-1.278a38.019 38.019 0 01-4.888-.564c-.95-.194-3.457-1.554-4.362-1.192-1.675.669-2.115 8.537-2.458 10.35z" id="Path" fill="#FFB8B8"/><path d="M264.299 106.411c-.414 2.186-.862 4.452-2.165 6.249-1.5 2.067-3.944 3.248-5.556 5.226-2.428 2.977-2.567 7.167-2.577 11.021-.01 3.55.062 7.338 2.026 10.285 1.274 1.913 3.214 3.254 5.11 4.542 7.365 5.004 15.324 10.098 24.204 10.263 3.68.068 7.624-.89 10.045-3.684a15.24 15.24 0 002.432-4.375 58.488 58.488 0 004.08-17.684c.201-2.858.182-5.799-.777-8.496-1.08-3.032-3.26-5.527-4.702-8.402a18.84 18.84 0 01-1.786-11.069c.072-.266.05-.55-.063-.802a1.154 1.154 0 00-.955-.39l-17.608-1.278a38.019 38.019 0 01-4.888-.564c-.95-.194-3.457-1.554-4.362-1.192-1.675.669-2.115 8.537-2.458 10.35z" id="Path" fill="#000" opacity=".1"/><circle id="Oval" fill="#FFB8B8" cx="281" cy="84" r="26"/><path d="M267.334 140.18c1.346 1.402 2.773 2.79 4.537 3.612a14.303 14.303 0 005.668 1.075c4.656.13 9.704-.72 12.943-4.054 4.175-4.3 4.038-11.234 7.31-16.25a3.625 3.625 0 011.055-1.148 3.429 3.429 0 011.794-.411c4.133-.039 7.734 2.632 10.984 5.178 1.455 1.14 2.947 2.321 3.866 3.923a13.264 13.264 0 011.303 3.978c1.613 7.843 2.135 15.862 2.653 23.85.287 4.413.573 8.83.552 13.252-.07 14.568-3.469 28.893-6.849 43.067-.435 1.826-1.031 3.867-2.698 4.742a6.674 6.674 0 01-2.355.573c-9.68 1.132-19.38 2.266-29.126 2.416-3.803.058-7.604-.033-11.404-.275a6.164 6.164 0 01-1.921-.334 5.412 5.412 0 01-2.095-1.772c-5.271-6.618-5.583-15.768-5.549-24.217a971.849 971.849 0 012.222-61.921c.116-1.702.141-3.77-1.09-5.109 2.217 3.536 5.3 6.806 8.2 9.825z" id="Path" fill="#D0CDE1"/><path d="M262.537 110.314c-.887 1.583-7.427 5.514-8.69 6.826-7.053 7.331-19.928 7.056-26.38 14.908-2.27 2.762-3.45 6.233-4.316 9.684-1.227 4.88-1.882 10.204.173 14.806 1.977 4.428 6.14 7.49 8.966 11.445 3.103 4.343 4.498 9.616 5.835 14.762.987 3.8 1.982 7.694 1.598 11.598-.437 4.44-2.616 8.504-3.902 12.78-1.287 4.275-1.509 9.367 1.466 12.727 2.185 2.469 5.612 3.448 8.888 3.998 4.196.622 8.427.985 12.67 1.088 3.744.163 7.872.194 10.751-2.173 2.272-1.867 3.259-4.898 3.387-7.811.128-2.914-.487-5.801-.872-8.693-.4-2.997-.553-6.02-.681-9.04a554.753 554.753 0 01-.236-40.683c.087-2.824.193-5.682-.418-8.442-.803-3.63-2.793-6.874-4.453-10.21-3.296-6.62-4.854-13.05-4.345-20.408.503-7.262 3.716-12.795.56-7.162zm36.423 2.053c1.334 1.362 5.866 1.812 7.563 2.69a26.602 26.602 0 004.971 1.71 64.718 64.718 0 0117.465 7.97c1.12.65 2.11 1.5 2.92 2.508.95 1.312 1.294 2.95 1.616 4.535.83 4.091 1.665 8.232 1.479 12.402-.199 4.426-1.54 8.712-2.87 12.94l-4.97 15.8c-3.711 11.793-7.445 23.703-8.49 36.016a84.232 84.232 0 00.766 20.455c.109.68.2 1.46-.251 1.981a1.968 1.968 0 01-1.217.557c-2.4.373-4.721-.843-6.895-1.92A76.663 76.663 0 00290 223.166a48.527 48.527 0 006.537-13.398 80.676 80.676 0 001.975-9.214l2.313-13.296c.94-4.86 1.603-9.77 1.983-14.704.175-1.852.067-3.72-.322-5.539a26.785 26.785 0 00-2.112-4.995c-3.81-7.88-5.599-16.875-4.1-25.491.657-3.77 1.932-7.547 1.4-11.337-.51-3.644.02-6.476-.92-10.082-3.861-14.808-.303-5.306 2.207-2.742z" id="Path" fill="#3FAAE1"/><path d="M228.013 145.715c-1.703 3.651-4.551 6.762-5.52 10.69a24.1 24.1 0 00-.482 5.586c-.023 2.827-.038 5.71.803 8.4.54 1.733 1.42 3.33 2.055 5.028a18.772 18.772 0 011.156 7.447c-.171 3.518-1.328 6.932-1.419 10.452-.142 5.536 2.337 10.74 4.756 15.682 1.232-3.152 3.748-5.582 6.876-6.64a10.852 10.852 0 019.346 1.154c.638-.609.706-1.608.731-2.505.18-6.423.352-12.845.518-19.268.262-9.933.51-20-1.701-29.67-.999-4.367-2.553-8.716-5.402-12.103-1.5-1.783-6.593-6.48-9.055-4.482-1.108.898-.849 3.343-1.024 4.582a19.92 19.92 0 01-1.638 5.647zm107.065-10.458c.846 2.568.897 5.311.914 8.008.034 5.5-.04 11.001-.225 16.5-.094 2.816-.223 5.67-1.1 8.355-.577 1.77-1.468 3.43-2.065 5.195-1.787 5.287-.81 11.022-.657 16.588a18.386 18.386 0 01-.469 5.366c-.943 3.45-3.479 6.238-5.248 9.364-1.681 2.97-2.695 6.298-4.702 9.067-2.008 2.77-5.482 4.965-8.85 4.115-2.552-.645-4.366-2.846-5.62-5.106a24.49 24.49 0 01-2.656-16.245c1.259-6.755 5.33-12.747 6.798-19.462 2.016-9.22-1.048-18.736-.957-28.163a13.292 13.292 0 01.609-4.366c.77-2.153 2.424-3.873 3.952-5.6a70.923 70.923 0 005.311-6.794c1.094-1.59 2.58-5.68 4.519-6.02 4.33-.759 9.372 5.938 10.446 9.198z" id="Path" fill="#3FAAE1"/><path d="M206.798 228.752c-2.315-.57-4.7-.818-7.087-.737-5.07.274-9.777 2.67-12.919 6.575-3.142 3.906-4.418 8.946-3.502 13.836a28.693 28.693 0 002.808 7.511c1.88 3.734 4.134 7.46 7.613 9.852 2.035 1.4 4.391 2.272 6.719 3.13l18.324 6.758c2.696.994 5.392 1.988 8.115 2.91a161.721 161.721 0 0042.382 8.248c4.4.257 8.867.328 13.16-.653 1.018-.232 2.105-.58 2.694-1.425a4.45 4.45 0 00.602-1.947l1.128-7.727c.159-1.088.312-2.234-.096-3.258-.516-1.298-1.811-2.115-3.046-2.81-12.047-6.773-26.113-10.51-36.254-19.806-2.387-2.189-4.384-5.658-7.285-7.144-3.289-1.686-7.162-2.648-10.562-4.202-7.432-3.396-14.74-7.298-22.794-9.11z" id="Path" fill="#2F2E41"/><path d="M225.08 236.75c6.378 1.956 33.305 15.513 37.92 20.247-.619.218-21.609-11.3-22.239-11.485-5.725-1.683-11.482-3.376-16.919-5.839-1.093-.495-7.105-2.823-6.833-4.175.307-1.524 6.939.904 8.07 1.251z" id="Path" fill="#000" opacity=".1"/><path d="M304.586 288.988a1.68 1.68 0 001.067-.288c.27-.32.39-.726.333-1.128l-.031-10.262c-3.213-1.406-6.806-1.856-10.332-2.29L279.168 273c.378.046-2.573 6.511-2.12 7.374.797 1.521 6.891 2.87 8.611 3.588 5.98 2.496 12.193 5.241 18.927 5.026z" id="Path" fill="#FFB8B8"/><path d="M254.852 278.709c-3.019.475-6.387.896-8.342 3.22-2.479 2.946-1.424 7.34-.241 10.99a4.714 4.714 0 001.028 2c.807.788 2.044.903 3.175.974 2.753.172 5.682.307 8.087-1.028a35.422 35.422 0 003.142-2.31 20.248 20.248 0 015.775-2.611 58.97 58.97 0 0111.595-2.364c1.55-.07 3.086-.337 4.567-.796 1.451-.54 2.795-1.613 3.217-3.089.557-1.95-.59-3.939-1.689-5.65-1.37-2.13-2.82-4.374-4.862-5.943-2.978-2.288-4.452-.531-7.452.933a63.731 63.731 0 01-18 5.674z" id="Path" fill="#FFB8B8"/><path d="M247.63 279.227l-19.23-5.81c-2.339-.706-4.717-1.419-7.156-1.417-2.439.002-4.99.82-6.572 2.717-1.491 1.789-1.918 4.234-2.29 6.553l-.795 4.961c-.404 2.522-.809 5.091-.445 7.62.363 2.527 1.626 5.052 3.82 6.276 2.661 1.484 5.922.76 8.892.138a94.793 94.793 0 0118.224-1.997c2.301-.028 4.716.001 6.75-1.1 2.417-1.31 3.864-4.08 4.112-6.865.379-4.239-1.003-9.774-5.31-11.076zm64.324-4.259c2.433-.45 4.58-1.908 6.911-2.768 3.282-1.211 6.837-1.211 10.314-1.198 1.276.005 2.635.036 3.698.781 1.53 1.075 1.923 3.226 2.184 5.145l1.57 11.584c.296 2.179.59 4.416.13 6.562-.462 2.147-1.85 4.216-3.87 4.77-2.454.672-4.86-.98-7.177-2.066-5.791-2.713-12.523-2.02-18.562-4.048-1.12-.376-2.32-.951-2.778-2.094a5.008 5.008 0 01-.216-2.001c.103-3.724-.641-8.808.422-12.366.956-3.2 4.659-2.301 7.374-2.301z" id="Path" fill="#2F2E41"/><path d="M351.102 223.974a33.464 33.464 0 0111.609-.78c3.103.336 6.3 1.186 8.567 3.3 2.758 2.574 3.644 6.554 3.718 10.294.121 7.45-2.389 14.71-7.102 20.54a18.804 18.804 0 01-4.06 3.846 26.91 26.91 0 01-5.282 2.506l-41.004 15.92c-10.787 4.188-21.612 8.388-32.864 11.15a2.599 2.599 0 01-1.987.099 2.546 2.546 0 01-1.46-1.33 83.227 83.227 0 01-8.986-16.182 1.077 1.077 0 01-.21-.984c.098-.343.358-.617.7-.735l29.002-16.403c2.077-1.175 4.178-2.366 5.903-4.003a14.434 14.434 0 003.03-4.153c.601-1.236.658-4.153 1.425-5.067.752-.894 3.324-.966 4.512-1.317a41.346 41.346 0 004.912-1.828c6.487-2.857 12.264-7.008 18.484-10.353a47.85 47.85 0 0111.093-4.52z" id="Path" fill="#2F2E41"/><path d="M336.628 234.135c-4.99 3.695-11.453 7.091-16.4 10.883-1.688 1.295-29.83 16.89-30.228 18.96 4.615.767 34.012-19.503 38.218-21.526 4.206-2.022 7.934-4.874 11.629-7.706.941-.721 4.931-2.89 2.228-3.697-1.522-.454-4.323 2.348-5.447 3.086z" id="Path" fill="#000" opacity=".1"/><path id="Path" fill="#2F2E41" d="M306.965 61.71L285.228 50l-30.017 4.79L249 83l15.46-.612 4.319-10.364v10.194l7.133-.283 4.14-16.5L282.64 83l25.36-.532z"/><path id="Rectangle" fill="#5D3CFF" d="M255 118h48v58h-48z"/><path d="M232.392 217.227c1.093 1.61 2.375 3.185 4.131 4.053a8.183 8.183 0 007.102-.188 12.414 12.414 0 005.126-5.066c2.405-4.189 2.903-9.2 2.603-14.004-.3-4.804-1.34-9.535-1.8-14.326-.335-3.484-.363-6.988-.39-10.486a3.447 3.447 0 01.447-2.12c.533-.718 1.509-.916 2.373-1.17 4.855-1.421 8.077-5.908 10.388-10.352 1.542-2.967 2.884-6.21 2.586-9.532-.297-3.321-2.718-6.668-6.083-7.006-2.773-.28-5.334 1.457-7.335 3.372a30.862 30.862 0 00-9.21 18.147c-.439 3.378-.313 6.847-1.245 10.125-1.989 7-8.213 11.292-11.314 17.591-3.418 6.941-1.532 14.821 2.62 20.962zm93.623-24.287c-1.482 3.36-4.295 5.994-7.799 7.303a11.033 11.033 0 01-6.78.405c-2.257-.61-4.093-2.211-4.966-4.33a11.396 11.396 0 01-.56-3.252c-.322-4.836-.197-9.82 1.605-14.338.696-1.742 1.633-3.395 2.182-5.186.539-2.069.815-4.194.82-6.329l.593-13.197a8.377 8.377 0 00-.2-2.861c-.592-1.91-2.423-3.15-4.103-4.29-4.057-2.75-8.066-5.959-10.032-10.378a7.116 7.116 0 01-.694-4.299c.555-2.62 3.268-4.317 5.95-4.889a13.592 13.592 0 0110.266 1.907c3.012 1.973 5.067 5.06 5.688 8.546.265 1.49.262 3.01.417 4.514.33 3.19 1.368 6.266 2.018 9.41 1.602 7.742.772 15.745 2.355 23.486 1.324 6.472 6.316 10.696 3.24 17.778z" id="Path" fill="#FFB8B8"/><path d="M30.137 271L29 270.979a242.518 242.518 0 014.038-36.118c4.918-25.543 13.097-42.32 24.309-49.861l.653.892C31.81 203.509 30.15 270.327 30.137 271zm12.907 0L42 270.979c.022-1.19.675-29.229 11.4-36.979l.6.88c-10.293 7.437-10.951 35.834-10.956 36.12z" id="Path" fill="#2F2E41"/><circle id="Oval" fill="#3FAAE1" cx="62" cy="181" r="5"/><circle id="Oval" fill="#3FAAE1" cx="58" cy="227" r="5"/><path d="M39.78 189.968C40.74 196.32 38.239 202 38.239 202s-4.059-4.617-5.019-10.968S34.762 179 34.762 179s4.059 4.617 5.019 10.968zm18.335 14.906c-6.075 2.164-12.115.543-12.115.543s3.81-5.128 9.885-7.291c6.075-2.164 12.115-.543 12.115-.543s-3.81 5.128-9.885 7.291zm-.305 42.386c-2.852.845-5.89.969-8.81.358 3.787-4.552 10.051-6.58 16-5.182-1.908 2.175-4.387 3.838-7.19 4.823z" id="Path" fill="#2F2E41"/></g></g></svg>