<?xml version="1.0" encoding="UTF-8"?>
<svg width="483px" height="542px" viewBox="0 0 483 542" version="1.1" xmlns="http://www.w3.org/2000/svg" xmlns:xlink="http://www.w3.org/1999/xlink">
    <!-- Generator: Sketch 61 (89581) - https://sketch.com -->
    <title>undraw_Memory_storage_logoV2 Copy</title>
    <desc>Created with Sketch.</desc>
    <g id="Page-1" stroke="none" stroke-width="1" fill="none" fill-rule="evenodd">
        <g id="undraw_Memory_storage_logoV2-Copy">
            <ellipse id="Oval" fill="#3F3D56" fill-rule="nonzero" cx="237.5" cy="510" rx="182.5" ry="32"></ellipse>
            <path d="M88,206 C88,157.951226 156.948148,119 242,119 C327.051852,119 396,157.951226 396,206" id="Path" stroke="#3F3D56" stroke-width="2"></path>
            <path d="M341,433 C341,472.796874 365.599612,505 396,505" id="Path" fill="#3F3D56" fill-rule="nonzero"></path>
            <path d="M398,505 C398,465.203125 425.73047,433 460,433" id="Path" fill="#36AAE1" fill-rule="nonzero"></path>
            <path d="M362,435 C362,472.585938 378.101563,503 398,503" id="Path" fill="#36AAE1" fill-rule="nonzero"></path>
            <path d="M396,500 C396,449.70117 428.203101,409 468,409" id="Path" fill="#3F3D56" fill-rule="nonzero"></path>
            <path d="M385,503.289661 C385,503.289661 392.52487,503.045158 394.792674,501.341488 C397.060479,499.637817 406.367818,497.603536 406.930406,500.335852 C407.492995,503.068169 418.23889,513.925143 409.743349,513.997435 C401.247808,514.069728 390.003494,512.601359 387.740051,511.146798 C385.476607,509.692238 385,503.289661 385,503.289661 Z" id="Path" fill="#A8A8A8" fill-rule="nonzero"></path>
            <g id="mongodb" transform="translate(132.000000, 0.000000)" fill-rule="nonzero">
                <ellipse id="Oval-Copy" fill="#FFFFFF" cx="67.5" cy="68" rx="67.5" ry="68"></ellipse>
                <path d="M71.1770858,127.963636 L68.2348621,126.870219 C68.2348621,126.870219 68.5941824,110.561128 63.2106057,109.390757 C59.6228512,104.864025 63.7861396,-82.5814279 76.7045455,108.765826 C76.7045455,108.765826 72.2542674,111.184368 71.4648524,115.321258 C70.6031069,119.379504 71.1770858,127.963636 71.1770858,127.963636 L71.1770858,127.963636 Z" id="Path" fill="#FFFFFF"></path>
                <path d="M71.1770858,127.963636 L68.2348621,126.870219 C68.2348621,126.870219 68.5941824,110.561128 63.2106057,109.390757 C59.6228512,104.864025 63.7861396,-82.5814279 76.7045455,108.765826 C76.7045455,108.765826 72.2542674,111.184368 71.4648524,115.321258 C70.6031069,119.379504 71.1770858,127.963636 71.1770858,127.963636 L71.1770858,127.963636 Z" id="Path" fill="#A6A385"></path>
                <path d="M72.3499885,111.272727 C72.3499885,111.272727 99.9867473,92.8984096 93.5192618,54.6725737 C87.2845157,26.8807855 72.5810594,17.7720845 70.9643964,14.2684784 C69.1942426,11.7772314 67.5,7.41818182 67.5,7.41818182 L68.6553552,84.7236097 C68.6553552,84.8020675 66.2687337,108.390879 72.3508225,111.272727" id="Path" fill="#FFFFFF"></path>
                <path d="M72.3499885,111.272727 C72.3499885,111.272727 99.9867473,92.8984096 93.5192618,54.6725737 C87.2845157,26.8807855 72.5810594,17.7720845 70.9643964,14.2684784 C69.1942426,11.7772314 67.5,7.41818182 67.5,7.41818182 L68.6553552,84.7236097 C68.6553552,84.8020675 66.2687337,108.390879 72.3508225,111.272727" id="Path" fill="#499D4A"></path>
                <path d="M66.66887,112.509091 C66.66887,112.509091 39.5742473,94.6177073 41.1825004,63.1145431 C42.7097311,31.6105353 61.8441106,16.1308008 65.5423957,13.330557 C67.9547757,10.8413577 68.0349271,9.9073811 68.1961005,7.41818182 C69.884505,10.9189081 69.5630289,59.7697604 69.8034823,65.5253489 C70.5265865,87.6946484 68.5175772,108.309568 66.66887,112.509091 Z" id="Path" fill="#FFFFFF"></path>
                <path d="M66.66887,112.509091 C66.66887,112.509091 39.5742473,94.6177073 41.1825004,63.1145431 C42.7097311,31.6105353 61.8441106,16.1308008 65.5423957,13.330557 C67.9547757,10.8413577 68.0349271,9.9073811 68.1961005,7.41818182 C69.884505,10.9189081 69.5630289,59.7697604 69.8034823,65.5253489 C70.5265865,87.6946484 68.5175772,108.309568 66.66887,112.509091 Z" id="Path" fill="#58AA50"></path>
            </g>
            <path d="M409.896696,514.199367 C401.400561,514.260078 390.155466,513.027371 387.891864,511.806257 C386.167984,510.876319 385.481073,507.539475 385.251224,506 C385.092051,506.006061 385,506.008672 385,506.008672 C385,506.008672 385.476641,511.383626 387.740243,512.60474 C390.003845,513.825855 401.248939,515.058556 409.745075,514.997846 C412.197577,514.980328 413.044707,514.20759 412.998197,513.063091 C412.657487,513.754551 411.722124,514.186336 409.896696,514.199367 Z" id="Path" fill="#000000" fill-rule="nonzero" opacity="0.2"></path>
            <path d="M213.421693,127.892868 C214.148587,128.228517 215.022961,127.728175 215.451468,127.04826 C217.083129,124.459236 214.079031,121.120838 214.729511,118.125165 C215.250648,115.725188 217.958629,114.300728 218.512311,111.908146 C219.0503,109.583364 217.392559,106.962961 218.513027,104.8594 C219.390852,103.211395 221.583571,102.777719 223.418309,103.066427 C225.253047,103.355136 226.994519,104.167393 228.848073,104.281201 C231.317976,104.432857 233.672384,103.337877 236.087517,102.795347 C238.502651,102.252817 241.448535,102.465234 242.869316,104.505528 C244.69362,107.125293 242.843057,110.773227 243.478272,113.908401 C243.982676,116.397939 246.052159,118.459343 246.096625,120.999785 C246.112425,121.902731 243.755405,121.175331 243.880687,122.06956 C244.005969,122.963789 242.891944,122.176423 243.782442,122.070186 C244.528632,121.886123 245.070693,121.236821 245.122593,120.464901 C245.228475,119.720093 246.618322,119.471819 246.602285,118.719583 C246.564709,116.95665 249.7296,118.145317 250.250812,116.461912 C251.449464,112.537567 251.203524,108.309618 249.558075,104.553064 C248.848281,102.949339 247.881649,101.431554 247.539207,99.7099133 C247.074269,97.372413 247.805832,94.8630742 247.038993,92.6076888 C246.005548,89.5682377 242.585959,88.0188172 239.411187,87.7041213 C236.236415,87.3894254 233.010189,87.9527269 229.853531,87.4887049 C227.025703,87.0730012 224.28805,85.8387588 221.435779,86.0175858 C218.013317,86.2321631 215.035099,88.452919 212.662689,90.9464084 C210.29028,93.4398978 208.277786,96.3077797 205.583405,98.4438969 C204.758513,99.0155402 203.997445,99.6753721 203.313482,100.411877 C201.941152,102.09607 201.801966,104.495302 202.183725,106.639767 C202.565484,108.784232 203.39617,110.829811 203.746913,112.979643 C204.076528,114.999986 203.974843,117.064076 204.116814,119.106488 C204.258786,121.148899 204.679744,123.253254 205.901192,124.889931 C206.892211,126.244745 208.448341,127.063484 210.118636,127.10889 C210.689717,127.122147 211.172054,126.605366 211.748445,126.740121 C212.46894,126.908559 212.782213,127.597597 213.421693,127.892868 Z" id="Path" fill="#2F2E41" fill-rule="nonzero"></path>
            <polygon id="Path" fill="#A0616A" fill-rule="nonzero" points="188 274.562714 190.333105 288 195 282.062072 192.333105 273"></polygon>
            <path d="M191.567165,177 L188.276862,185.730932 C188.276862,185.730932 185,230.202306 185,233.508689 C185,236.815072 187.38806,279.196531 188.283583,281 C188.283583,281 192.164179,275.289018 197.238808,276.190753 C202.313437,277.092487 200.223881,261.161857 200.223881,261.161857 L205,221.786145 L204.104465,201.948002 L191.567165,177 Z" id="Path" fill="#575A89" fill-rule="nonzero"></path>
            <path d="M191.567165,177 L188.276862,185.730932 C188.276862,185.730932 185,230.202306 185,233.508689 C185,236.815072 187.38806,279.196531 188.283583,281 C188.283583,281 192.164179,275.289018 197.238808,276.190753 C202.313437,277.092487 200.223881,261.161857 200.223881,261.161857 L205,221.786145 L204.104465,201.948002 L191.567165,177 Z" id="Path" fill="#000000" fill-rule="nonzero" opacity="0.1"></path>
            <path d="M213,126.099752 C213,126.099752 222.900002,151.161782 217.200002,155.935503 C211.5,160.709223 249,147.879848 249,147.879848 L248.099987,144.597915 C248.099987,144.597915 235.799991,139.824194 241.799988,126.099752 C247.799985,112.37531 213,126.099752 213,126.099752 Z" id="Path" fill="#A0616A" fill-rule="nonzero"></path>
            <path d="M213,126.099752 C213,126.099752 222.900002,151.161782 217.200002,155.935503 C211.5,160.709223 249,147.879848 249,147.879848 L248.099987,144.597915 C248.099987,144.597915 235.799991,139.824194 241.799988,126.099752 C247.799985,112.37531 213,126.099752 213,126.099752 Z" id="Path" fill="#000000" fill-rule="nonzero" opacity="0.1"></path>
            <path d="M196.626394,466.235355 C196.626394,466.235355 192.460843,465.043861 190.080529,468.022618 C187.700215,471.001374 178.774043,478.448165 178.774043,478.448165 C178.774043,478.448165 161.516763,476.660903 159.136449,485.299237 C156.756135,493.93757 186.21252,493.937552 193.353461,491.852439 C200.494403,489.767326 201.982098,491.852439 201.982098,491.852439 C201.982098,491.852439 224,493.639702 224,490.065176 C224,486.490651 221.917228,474.27792 221.917228,474.27792 L196.626394,466.235355 Z" id="Path" fill="#575A89" fill-rule="nonzero"></path>
            <path d="M265.667869,486.54091 L261.891897,498.711819 C261.891897,498.711819 250.56398,515.142635 256.954103,518.489632 C263.344227,521.836629 286,525.183651 286,516.359713 L286,499.624672 C286,499.624672 283.676328,487.758007 281.352656,486.540929 C279.028984,485.32385 265.667869,486.54091 265.667869,486.54091 Z" id="Path" fill="#575A89" fill-rule="nonzero"></path>
            <path d="M200.280292,266.438663 C200.280292,266.438663 187.706998,277.534304 188.005223,279.048766 C188.303447,280.563229 194.267746,377.791754 194.267746,377.791754 L197.548141,440.793418 C197.548141,440.793418 193.373116,455.635165 195.460632,458.966978 C197.548148,462.298792 192.478467,463.20747 192.478467,463.20747 C192.478467,463.20747 213.950021,482.895493 222.896503,474.414496 L231.246555,364.464482 L254.209194,444.428133 C254.209194,444.428133 258.086002,486.833096 262.55924,486.833096 C267.032478,486.833096 285.223661,487.741787 284.925442,485.318633 C284.627224,482.89548 285.820103,464.419044 283.732575,453.514907 C281.645047,442.610769 267.628914,356.286381 267.628914,356.286381 C267.628914,356.286381 266.42393,282.282006 269.56126,275.364768 C272.698589,268.44753 267.927127,261.178101 267.927127,261.178101 L247.052009,253 L222.00186,256.028931 L200.280292,266.438663 Z" id="Path" fill="#2F2E41" fill-rule="nonzero"></path>
            <circle id="Oval" fill="#A0616A" fill-rule="nonzero" cx="226" cy="116" r="22"></circle>
            <path d="M277,161.14252 C274.865171,155.133364 269.842044,150.59062 263.625977,149.047515 C257.494869,147.513284 251.49775,145.490924 245.692638,143 C245.692638,143 224.111829,153.280779 219.856463,153.280779 C215.601098,153.280779 215.601092,150.559394 215.601092,150.559394 C215.601092,150.559394 204.658709,162.04968 198.883563,163.259187 C193.108417,164.468693 184.597681,178.680353 187.637229,186.542131 C189.70169,191.582367 192.690784,196.196505 196.451923,200.149002 C196.451923,200.149002 195.236106,242.481627 199.18752,250.343399 C199.18752,250.343399 189.460961,268.788328 198.579612,269.997835 C207.698264,271.207342 242.653083,266.974078 248.732186,271.207336 C254.811289,275.440594 266.057617,270.300195 267.577391,276.04535 C269.097165,281.790506 272.440671,283 272.440671,283 C272.440671,283 277.607908,274.83585 274.56836,269.997854 C271.528812,265.159858 277,161.14252 277,161.14252 Z" id="Path" fill="#575A89" fill-rule="nonzero"></path>
            <path d="M256.392106,274 L251,277.096158 C251,277.096158 256.729108,295.3635 259.088159,295.98273 C261.44721,296.60196 267,280.363063 267,280.363063 L256.392106,274 Z" id="Path" fill="#A0616A" fill-rule="nonzero"></path>
            <path d="M209.421658,123.892868 C210.148551,124.228517 211.022919,123.728175 211.451425,123.048254 C213.083093,120.459235 210.078989,117.120831 210.729506,114.125158 C211.250637,111.72518 213.958624,110.300726 214.5123,107.908137 C215.050295,105.583361 213.392554,102.962951 214.513021,100.859397 C215.390846,99.2113915 217.583565,98.7777093 219.418303,99.0664175 C221.253041,99.3551257 222.994507,100.167384 224.848067,100.281197 C227.317963,100.432847 229.672371,99.3378673 232.087504,98.7953434 C234.502637,98.2528194 237.448527,98.4652239 238.869309,100.505525 C240.693613,103.125284 238.843044,106.773218 239.478258,109.908392 C239.982662,112.397937 245.729604,114.145334 246.25081,112.461911 C247.449464,108.537567 247.203524,104.309618 245.558072,100.553067 C244.848285,98.9493411 243.881678,97.4315566 243.539211,95.7099154 C243.074273,93.3724147 243.80583,90.8630756 243.038998,88.6076899 C242.005553,85.5682383 238.585957,84.0188176 235.411192,83.7041217 C232.236427,83.3894257 229.010189,83.9527273 225.853537,83.4887052 C223.02571,83.0729952 220.288057,81.8387588 217.43578,82.0175858 C214.013318,82.2321632 211.035106,84.4529194 208.662691,86.9464029 C206.290276,89.4398864 204.277788,92.3077813 201.583407,94.4438926 C200.758515,95.0155385 199.997447,95.6753724 199.313485,96.4118788 C197.941154,98.0960726 197.801963,100.495305 198.183728,102.63977 C198.565493,104.784235 199.396173,106.829815 199.74691,108.979647 C200.07653,110.999984 199.97484,113.064075 200.116811,115.106493 C200.258782,117.14891 200.679746,119.25326 201.901195,120.889931 C202.892213,122.244746 204.448343,123.063488 206.118638,123.108896 C206.689713,123.122153 207.172049,122.605366 207.748441,122.740127 C208.468905,122.908559 208.782178,123.597597 209.421658,123.892868 Z" id="Path" fill="#2F2E41" fill-rule="nonzero"></path>
            <path d="M263.857032,167.263158 L273.780004,162 C273.780004,162 297.900467,218.541358 292.099344,234.180453 C286.29822,249.819547 264.009704,282 264.009704,282 C264.009704,282 246.301014,278.39098 248.132924,274.781955 C249.964834,271.172929 261.872425,248.015059 262.788393,245.007517 C263.704361,241.999975 269.810803,222.451131 267.062906,220.345864 C264.31501,218.240597 258.971882,169.368425 258.971882,169.368425 L263.857032,167.263158 Z" id="Path" fill="#000000" fill-rule="nonzero" opacity="0.1"></path>
            <path d="M266.567151,161 L278.78001,164.246342 C278.78001,164.246342 302.900467,219.729273 297.099343,235.075611 C291.298219,250.42195 269.009704,282 269.009704,282 C269.009704,282 251.301014,278.45854 253.132924,274.917073 C254.964834,271.375607 266.872425,248.651241 267.788393,245.699999 C268.70436,242.748756 274.810809,223.565857 272.062906,221.5 C269.315003,219.434143 256.186126,168.378051 256.186126,168.378051 L266.567151,161 Z" id="Path" fill="#575A89" fill-rule="nonzero"></path>
            <path d="M396,207 C396,256.153361 327.051858,296 242,296 C156.948142,296 88,256.153343 88,207" id="Path" stroke="#3F3D56" stroke-width="2"></path>
            <path d="M371,298 C336.391003,316.066986 291.232787,327 241.834112,327 C194.471055,327 151.006181,316.949489 117,300.196917" id="Path" stroke="#3F3D56" stroke-width="2"></path>
            <path d="M319,100 C384.788798,117.097395 431.643084,154.705729 436,199" id="Path" stroke="#3F3D56" stroke-width="2"></path>
            <path d="M54,171 C65.1103947,150.265558 85.4071207,132.018417 112,118" id="Path" stroke="#3F3D56" stroke-width="2"></path>
            <g id="docker" transform="translate(0.000000, 171.000000)" fill-rule="nonzero">
                <ellipse id="Oval" fill="#FFFFFF" cx="67.5" cy="68" rx="67.5" ry="68"></ellipse>
                <path d="M33.0884601,90.1759362 L33.0884601,83.9046677 C33.0884601,83.0806097 33.601687,82.4186811 34.451719,82.4186811 L34.6869479,82.4186811 C35.5365981,82.4186811 36.0475338,83.0813769 36.0475338,83.9046677 L36.0475338,97.1076009 C36.0475338,100.327174 34.4627931,102.889034 31.7011437,104.521051 C30.4360823,105.273331 28.9920424,105.668622 27.5216288,105.665195 L26.9347019,105.665195 C23.7262703,105.665195 21.1773198,104.073377 19.5486646,101.303394 C18.7981081,100.033826 18.4043255,98.5838475 18.4090909,97.1076009 L18.4090909,96.5192618 C18.4090909,93.2985389 19.9946832,90.7382115 22.7540414,89.1031287 C24.0188681,88.3493004 25.4637083,87.953899 26.9347019,87.9590299 L27.5216288,87.9590299 C29.6929145,87.9590299 31.5350324,88.8037846 33.0884601,90.1759362 Z M21.3678706,96.8128561 C21.3678706,99.138615 22.4909362,100.88715 24.5213137,102.002502 C25.3423239,102.453242 26.2335973,102.695477 27.1703128,102.695477 C29.4447021,102.695477 31.1317826,101.618453 32.295326,99.6840257 C32.836429,98.7840785 33.0884601,97.7994255 33.0884601,96.7526811 C33.0884601,94.7366152 32.1376157,93.1632399 30.518889,91.9946117 C29.5374953,91.2863057 28.4327592,90.9310027 27.2279744,90.9310027 C24.7489053,90.9310027 22.964831,92.1881693 21.8940809,94.4211731 C21.5328363,95.1762402 21.3678706,95.9776839 21.3678706,96.8128561 Z M46.3128349,87.9590299 L46.7229582,87.9590299 C50.1513442,87.9590299 52.75872,89.6282253 54.4110509,92.6320103 C55.0716777,93.8336012 55.4252849,95.1451939 55.4252849,96.5192618 L55.4252849,97.1076009 C55.4252849,100.327174 53.8435991,102.892484 51.0777493,104.521434 C49.7973551,105.275351 48.3829263,105.66515 46.898998,105.66515 L46.3128349,105.66515 C43.1044033,105.66515 40.5546891,104.073377 38.9267976,101.303394 C38.1758753,100.033926 37.7816977,98.5839501 37.7860916,97.1076009 L37.7860916,96.5192618 C37.7860916,93.2981556 39.3781623,90.7462609 42.1306469,89.1038952 C43.4102773,88.3407794 44.8258517,87.9590299 46.3128349,87.9590299 Z M40.7452398,96.8128561 C40.7452398,99.0703906 41.8488304,100.731153 43.7486099,101.899016 C44.640647,102.447109 45.6231863,102.695477 46.6652965,102.695477 C48.8877522,102.695477 50.5305364,101.56441 51.6738409,99.6817261 C52.2191444,98.7840785 52.4658294,97.7978924 52.4658294,96.7526811 C52.4658294,94.6534426 51.4584689,93.0497887 49.7362567,91.8876761 C48.7926677,91.2502769 47.7421565,90.9310027 46.6057256,90.9310027 C44.1266564,90.9310027 42.3425821,92.1881693 41.2722139,94.4211731 C40.9102056,95.1762402 40.7452398,95.9776839 40.7452398,96.8128561 L40.7452398,96.8128561 Z M67.7263097,91.1682547 C67.2795272,90.9582156 66.4432427,90.8884581 65.9605649,90.8700611 C63.4883695,90.77654 61.6997127,92.1739883 60.6503469,94.3629144 C60.2879568,95.1179809 60.1226091,95.9171249 60.1226091,96.7526811 C60.1226091,99.2965271 61.4534095,101.077641 63.7155794,102.163481 C64.5419352,102.559795 65.6088666,102.634918 66.511978,102.634918 C67.3062578,102.634918 68.4289418,102.146616 69.1338651,101.810477 L69.2560616,101.752219 L69.8032749,101.752219 L69.8636095,101.764483 C70.5364556,101.905148 71.0443366,102.333275 71.0443366,103.059978 L71.0443366,103.353956 C71.0443366,105.162283 67.7518947,105.576228 66.4955577,105.664383 C62.0621024,105.972159 58.7463668,103.528349 57.4823929,99.2838791 C57.2628204,98.5468265 57.1639173,97.814757 57.1639173,97.0466587 L57.1639173,96.4590868 C57.1639173,93.2383638 58.7562953,90.687235 61.5083981,89.0464024 C62.7880287,88.2836705 64.2032208,87.9003879 65.6898224,87.9003879 L66.2763674,87.9003879 C67.8534705,87.9003879 69.3060858,88.349978 70.6082468,89.242643 L70.7151686,89.3169998 L70.7827588,89.4289185 C70.9232852,89.6627211 71.0443366,89.9333184 71.0443366,90.2115812 L71.0443366,90.5055594 C71.0443366,91.263692 70.4791763,91.6715047 69.7971649,91.8033536 L69.740649,91.8133193 L69.5657547,91.8133193 C69.1243182,91.8133193 68.1203943,91.3545301 67.7263097,91.1682547 L67.7263097,91.1682547 Z M77.3241102,93.179338 C78.4735247,92.0241243 79.6267579,90.8712109 80.7933561,89.7351615 C81.1183232,89.4181869 82.3490746,88.0766977 82.833662,88.0766977 L83.3636911,88.0766977 L83.4240256,88.0893463 C84.0991631,88.2300105 84.6047528,88.6589038 84.6047528,89.3871405 L84.6047528,89.6807349 C84.6047528,90.1774693 84.0250812,90.7546929 83.7054601,91.0946644 C83.02574,91.8179186 82.3101247,92.5174093 81.614366,93.2257152 L78.0393438,96.8684325 C79.5786427,98.4168939 81.1164142,99.9665051 82.6431114,101.526848 C83.0665512,101.95753 83.4867423,102.391419 83.9036481,102.828476 C84.0506662,102.983705 84.2675658,103.17688 84.3909085,103.391901 C84.5234153,103.593508 84.6047528,103.820794 84.6047528,104.063412 L84.6047528,104.370038 L84.5875692,104.440945 C84.4214578,105.118589 83.9930046,105.66515 83.244931,105.66515 L83.0093198,105.66515 C82.5197686,105.66515 81.9668277,105.10939 81.6315503,104.791649 C80.9403742,104.137769 80.2732557,103.45016 79.5958263,102.782098 L77.3241102,100.543729 L77.3241102,104.121288 C77.3241102,104.945345 76.8101198,105.607657 75.9612336,105.607657 L75.7282954,105.607657 C74.8782636,105.607657 74.3650366,104.945345 74.3650366,104.121288 L74.3650366,83.9621599 C74.3650366,83.1381025 74.8786453,82.4788567 75.7282954,82.4788567 L75.9612336,82.4788567 C76.8101198,82.4788567 77.3241102,83.1381025 77.3241102,83.9621599 L77.3241102,93.179338 L77.3241102,93.179338 Z M114.203509,88.0766977 L114.497545,88.0766977 C115.385,88.0766977 115.977273,88.6769183 115.977273,89.5626844 C115.977273,90.7922542 114.806092,91.1069292 113.793003,91.1069292 C112.464113,91.1069292 111.195174,91.9145058 110.27908,92.8202021 C109.136921,93.9505025 108.637059,95.3981607 108.637059,96.9895498 L108.637059,104.179547 C108.637059,105.003604 108.124214,105.66515 107.273801,105.66515 L107.040099,105.66515 C106.189685,105.66515 105.677222,105.003987 105.677222,104.179547 L105.677222,96.5767546 C105.677222,93.6572914 107.093178,91.2740404 109.453869,89.6025454 C110.863333,88.6040946 112.47786,88.077081 114.203509,88.077081 L114.203509,88.0766977 Z M93.1726628,102.325609 C94.2495228,102.703142 95.4772196,102.6491 96.5819559,102.455925 C97.1471162,102.21484 98.5920942,101.582041 99.1236506,101.674795 L99.2065154,101.688977 L99.2828886,101.726539 C99.607474,101.884451 99.9171665,102.107904 100.082896,102.439444 C100.470107,103.216357 100.284139,103.997488 99.5234635,104.438646 L99.270287,104.585443 C96.4635775,106.211327 93.4781549,105.985957 90.6802284,104.467392 C89.3425545,103.741455 88.3191557,102.664047 87.5642081,101.350538 L87.3877864,101.043529 C85.5857647,97.9113442 85.8290126,94.6166478 87.8612995,91.6381588 C88.5627859,90.6086623 89.4796445,89.8133509 90.5515403,89.1912832 L90.9570809,88.9563309 C93.600352,87.4247341 96.4334105,87.5297533 99.1480899,88.8739254 C100.607961,89.5967963 101.790598,90.6742037 102.605498,92.0911989 L102.752134,92.3464653 C103.344026,93.3759618 102.57724,94.2728429 101.785633,94.8860953 C100.866866,95.5974674 99.9393151,96.4537209 99.0587334,97.2164528 C97.0951829,98.9178437 95.1346865,100.623068 93.1726628,102.325609 L93.1726628,102.325609 Z M90.6313498,100.534146 C92.8270751,98.6445635 95.0235638,96.7530644 97.2135608,94.8554323 C97.9620167,94.2076853 98.7826449,93.5354076 99.5249909,92.8543147 C98.9292813,92.1007813 97.9341404,91.5576696 97.0886907,91.2337961 C95.3817531,90.581066 93.6988732,90.8003036 92.1336077,91.7071497 C90.0849005,92.8945589 89.2123384,94.7852921 89.2887116,97.1382633 C89.3192609,98.0650403 89.5674731,98.9580886 90.0574065,99.746501 C90.2300095,100.024381 90.4228515,100.285396 90.6313498,100.534146 Z M74.6625097,41.0191856 L83.3942397,41.0191856 L83.3942397,49.9784147 L87.808984,49.9784147 C89.8481442,49.9784147 91.9449661,49.613913 93.8756772,48.95735 C94.8246118,48.6342428 95.8892525,48.1850357 96.8252038,47.619694 C95.5925427,46.0045414 94.9632292,43.9650951 94.7784062,41.9547782 C94.5263753,39.2200574 95.076261,35.6608959 96.9199063,33.5206462 L97.8379106,32.4551208 L98.9315726,33.3378205 C101.685203,35.5581762 104.001215,38.6612315 104.40943,42.1985459 C107.725165,41.2196423 111.618281,41.451145 114.540696,43.1441039 L115.739753,43.8386118 L115.108911,45.0750813 C112.637098,49.9167062 107.469316,51.4168739 102.417238,51.1512592 C94.8574524,70.0505375 78.3986789,78.9978848 58.442784,78.9978848 C48.1324227,78.9978848 38.673621,75.1294143 33.28703,65.9482644 L33.1988192,65.7987844 L32.4140861,64.1958964 C30.5933527,60.1545657 29.9884781,55.7272693 30.3986014,51.3034224 L30.5219439,49.9784147 L37.9889366,49.9784147 L37.9889366,41.0191856 L46.7202851,41.0191856 L46.7202851,32.2550474 L64.1841275,32.2550474 L64.1841275,23.4909091 L74.6625097,23.4909091 L74.6625097,41.0191856" id="Shape" fill="#364548"></path>
                <path d="M102.109665,43.9061949 C102.691724,39.3165056 99.3060583,35.7116968 97.2063916,34 C94.7866486,36.8379347 94.4107589,44.2755732 98.2068656,47.4070077 C96.0882143,49.3159117 91.6242392,51.0460966 87.053192,51.0460966 L31.4120168,51.0460966 C30.9677835,55.8865317 31.8053721,60.3441076 33.718613,64.1592197 L34.3515505,65.3339889 C34.7523146,66.0235157 35.1902517,66.6901018 35.6633678,67.3307119 C37.9509796,67.4797722 40.0601388,67.5310003 41.9897062,67.4878611 L41.9904656,67.4878611 C45.7823958,67.4031238 48.876462,66.9486229 51.2214066,66.1243585 C51.5660308,66.0156116 51.933535,66.2039395 52.051748,66.5498672 C52.169961,66.8957956 51.9962151,67.2744641 51.6591852,67.4054346 C51.3470828,67.5155933 51.0220711,67.6180483 50.6864281,67.7154967 L50.685289,67.7154967 C48.838873,68.2504984 46.8588074,68.6102475 44.3042758,68.7700932 C44.4561505,68.7727891 44.1463262,68.7932033 44.1455668,68.7932033 C44.0586186,68.7989808 43.9492688,68.8116913 43.8619409,68.8163134 C42.8565307,68.8737036 41.7713864,68.8856444 40.6619421,68.8856444 C39.4484637,68.8856444 38.2535899,68.8625336 36.9174727,68.7932033 L36.8833009,68.8163134 C41.5192745,74.1023905 48.7682514,77.2727273 57.8549114,77.2727273 C77.0852792,77.2727273 93.3966162,68.6248835 100.619774,49.210375 C105.744025,49.7438359 110.66894,48.4180797 112.909091,43.9816882 C109.340796,41.8929097 104.751904,42.5588691 102.109665,43.9061949" id="Path" fill="#22A0C8"></path>
                <path d="M102.740941,44.4927976 C103.326002,39.9177394 99.9228733,36.3244221 97.8123766,34.6181818 C95.3801521,37.4470698 95.002324,44.8609984 98.8180112,47.9824505 C96.6884316,49.8852692 92.2014305,51.6099387 87.6068061,51.6099387 L34.9905472,51.6099387 C34.7623234,58.999295 37.4880324,64.6083102 42.3104993,67.9992897 L42.3116442,67.9992897 C46.1231334,67.9148226 49.233159,67.4617707 51.5901988,66.6401335 C51.9366006,66.5317335 52.3060004,66.7194611 52.4248232,67.0642866 C52.543646,67.4091115 52.3690038,67.7865733 52.0302356,67.9171259 C51.7165234,68.0269336 51.3898351,68.1290621 51.0524609,68.2262001 L51.051316,68.2262001 C49.1953761,68.7594957 47.0341201,69.1641711 44.4664122,69.3235075 C44.4656489,69.3235075 44.404204,69.2639964 44.4034408,69.2639964 C50.9818566,72.6588154 60.5203114,72.646529 71.4563505,68.4204749 C83.7186061,63.6810894 95.1294117,54.6522986 103.090909,44.3253987 C102.971073,44.3799185 102.854289,44.4355901 102.740941,44.4927976" id="Path" fill="#37B1D9"></path>
                <path d="M31.9090909,56.8727273 C32.2557719,59.472644 33.006279,61.9068798 34.1187059,64.1240692 L34.7537797,65.3019881 C35.1558282,65.9934065 35.5952459,66.6617829 36.0700245,67.3040627 C38.3657384,67.4535229 40.4820162,67.5048883 42.418477,67.4616335 C46.2232055,67.3766687 49.3277146,66.9209494 51.6805736,66.0944756 C52.026361,65.9854376 52.3951056,66.1742705 52.5137176,66.5211255 C52.6323295,66.8679805 52.4579972,67.2476647 52.1198298,67.3789863 C51.806674,67.4894399 51.4805653,67.59217 51.1437895,67.6898792 L51.1426466,67.6898792 C49.2899987,68.2263145 47.1440054,68.6102005 44.580852,68.7708604 C44.4928484,68.7762676 44.3393182,68.7774261 44.2505526,68.7824469 C43.2425111,68.8396047 42.1647523,68.8747489 41.0511825,68.8747489 C39.8339894,68.8747489 38.5889857,68.8511906 37.2491208,68.7820606 C41.9007414,74.0823064 49.2191387,77.2727273 58.3364674,77.2727273 C74.8552443,77.2727273 89.2268853,70.9166028 97.5681818,56.8727273 L31.9090909,56.8727273" id="Path" fill="#1B81A5"></path>
                <path d="M34.9772727,57.4909091 C35.9657134,62.0169594 38.3410981,65.5700243 41.7895816,67.9896615 C45.5980527,67.9054207 48.7056157,67.4535811 51.0607892,66.634144 C51.4069167,66.5260345 51.7760241,66.7132589 51.8947527,67.0571615 C52.0134814,67.4010634 51.8389775,67.7775145 51.5004775,67.9077178 C51.1870137,68.0172318 50.8605842,68.1190865 50.5234771,68.2159643 L50.5223331,68.2159643 C48.6678627,68.7478325 46.4743786,69.1284495 43.9083225,69.287742 C50.481148,72.6727072 59.9845934,72.6240773 70.9112107,68.4097192 C77.5214077,65.8595077 83.8833502,62.0632921 89.5909091,57.4909091 L34.9772727,57.4909091" id="Path" fill="#1D91B4"></path>
                <path d="M39.2727273,42.323209 L46.9650835,42.323209 L46.9650835,50.0727273 L39.2727273,50.0727273 L39.2727273,42.323209 Z M39.9135629,42.9691977 L40.5206295,42.9691977 L40.5206295,49.4271296 L39.9135629,49.4271296 L39.9135629,42.9691977 Z M41.0547238,42.9691977 L41.6862438,42.9691977 L41.6862438,49.4271296 L41.055112,49.4271296 L41.055112,42.9691977 L41.0547238,42.9691977 Z M42.2199501,42.9691977 L42.8514701,42.9691977 L42.8514701,49.4271296 L42.2199501,49.4271296 L42.2199501,42.9691977 Z M43.3859526,42.9691977 L44.0170844,42.9691977 L44.0170844,49.4271296 L43.3859526,49.4271296 L43.3859526,42.9691977 Z M44.551567,42.9691977 L45.1826989,42.9691977 L45.1826989,49.4271296 L44.551567,49.4271296 L44.551567,42.9691977 Z M45.7167932,42.9691977 L46.3242479,42.9691977 L46.3242479,49.4271296 L45.7167932,49.4271296 L45.7167932,42.9691977 Z M48.1481647,33.3818182 L55.8409091,33.3818182 L55.8409091,41.1309454 L48.1477765,41.1309454 L48.1477765,33.3818182 L48.1481647,33.3818182 Z M48.7893884,34.0278069 L49.3960668,34.0278069 L49.3960668,40.4853477 L48.7893884,40.4853477 L48.7893884,34.0278069 Z M49.9305494,34.0278069 L50.5616813,34.0278069 L50.5616813,40.4853477 L49.9309375,40.4853477 L49.9309375,34.0278069 L49.9305494,34.0278069 Z M51.0957756,34.0278069 L51.7269075,34.0278069 L51.7269075,40.4853477 L51.0957756,40.4853477 L51.0957756,34.0278069 Z M52.26139,34.0278069 L52.8925219,34.0278069 L52.8925219,40.4853477 L52.26139,40.4853477 L52.26139,34.0278069 Z M53.4270044,34.0278069 L54.0585244,34.0278069 L54.0585244,40.4853477 L53.4270044,40.4853477 L53.4270044,34.0278069 Z M54.5922306,34.0278069 L55.2000735,34.0278069 L55.2000735,40.4853477 L54.5922306,40.4853477 L54.5922306,34.0278069 Z" id="Shape" fill="#23A3C2"></path>
                <path d="M47.8640388,42.6545455 L55.8409091,42.6545455 L55.8409091,50.0727273 L47.8636364,50.0727273 L47.8636364,42.6545455 L47.8640388,42.6545455 Z M48.5289458,43.2729145 L49.1580314,43.2729145 L49.1580314,49.4547326 L48.5289458,49.4547326 L48.5289458,43.2729145 Z M49.7122546,43.2729145 L50.3666969,43.2729145 L50.3666969,49.4547326 L49.7126571,49.4547326 L49.7126571,43.2729145 L49.7122546,43.2729145 Z M50.9205176,43.2729145 L51.5749598,43.2729145 L51.5749598,49.4547326 L50.9205176,49.4547326 L50.9205176,43.2729145 Z M52.1291831,43.2729145 L52.7836253,43.2729145 L52.7836253,49.4547326 L52.1291831,49.4547326 L52.1291831,43.2729145 Z M53.3378486,43.2729145 L53.9926933,43.2729145 L53.9926933,49.4547326 L53.3378486,49.4547326 L53.3378486,43.2729145 Z M54.5461116,43.2729145 L55.1764047,43.2729145 L55.1764047,49.4547326 L54.5461116,49.4547326 L54.5461116,43.2729145 Z" id="Shape" fill="#34BBDE"></path>
                <path d="M56.4545455,42.6545455 L64.4318182,42.6545455 L64.4318182,50.0727273 L56.4545455,50.0727273 L56.4545455,42.6545455 Z M57.1191169,43.2729145 L57.748266,43.2729145 L57.748266,49.4547326 L57.1191169,49.4547326 L57.1191169,43.2729145 Z M58.3025452,43.2729145 L58.9570535,43.2729145 L58.9570535,49.4547326 L58.3025452,49.4547326 L58.3025452,43.2729145 Z M59.5113327,43.2729145 L60.1658409,43.2729145 L60.1658409,49.4547326 L59.5113327,49.4547326 L59.5113327,43.2729145 Z M60.7201201,43.2729145 L61.3746284,43.2729145 L61.3746284,49.4547326 L60.7201201,49.4547326 L60.7201201,43.2729145 Z M61.9285052,43.2729145 L62.5838185,43.2729145 L62.5838185,49.4547326 L61.9285052,49.4547326 L61.9285052,43.2729145 Z M63.1372927,43.2729145 L63.7668444,43.2729145 L63.7668444,49.4547326 L63.1372927,49.4547326 L63.1372927,43.2729145 L63.1372927,43.2729145 Z" id="Shape" fill="#23A3C2"></path>
                <path d="M56.4545455,33.3818182 L64.1470817,33.3818182 L64.1470817,41.1309454 L56.4545455,41.1309454 L56.4545455,33.3818182 Z M57.0953961,34.0278069 L57.7020887,34.0278069 L57.7020887,40.4853477 L57.0953961,40.4853477 L57.0953961,34.0278069 Z M58.2365837,34.0278069 L58.8677304,34.0278069 L58.8677304,40.4853477 L58.2365837,40.4853477 L58.2365837,34.0278069 Z M59.4022255,34.0278069 L60.0333721,34.0278069 L60.0333721,40.4853477 L59.4022255,40.4853477 L59.4022255,34.0278069 Z M60.5678671,34.0278069 L61.1990138,34.0278069 L61.1990138,40.4853477 L60.5678671,40.4853477 L60.5678671,34.0278069 Z M61.7331209,34.0278069 L62.3650437,34.0278069 L62.3650437,40.4853477 L61.7331209,40.4853477 L61.7331209,34.0278069 Z M62.8987625,34.0278069 L63.5058434,34.0278069 L63.5058434,40.4853477 L62.8987625,40.4853477 L62.8987625,34.0278069 L62.8987625,34.0278069 Z M65.330191,42.323209 L73.0227273,42.323209 L73.0227273,50.0727273 L65.330191,50.0727273 L65.330191,42.323209 Z M65.9714294,42.9691977 L66.5781224,42.9691977 L66.5781224,49.4271296 L65.9714294,49.4271296 L65.9714294,42.9691977 Z M67.1126175,42.9691977 L67.743764,42.9691977 L67.743764,49.4271296 L67.1126175,49.4271296 L67.1126175,42.9691977 Z M68.2778706,42.9691977 L68.9090177,42.9691977 L68.9090177,49.4271296 L68.2778706,49.4271296 L68.2778706,42.9691977 Z M69.4435128,42.9691977 L70.0750471,42.9691977 L70.0750471,49.4271296 L69.4435128,49.4271296 L69.4435128,42.9691977 Z M70.6091543,42.9691977 L71.2406892,42.9691977 L71.2406892,49.4271296 L70.6091543,49.4271296 L70.6091543,42.9691977 Z M71.7747959,42.9691977 L72.3818767,42.9691977 L72.3818767,49.4271296 L71.7747959,49.4271296 L71.7747959,42.9691977 Z" id="Shape" fill="#34BBDE"></path>
                <path d="M65.0454545,34 L73.0227273,34 L73.0227273,41.4181818 L65.0454545,41.4181818 L65.0454545,34 Z M65.7104283,34.6184002 L66.3395774,34.6184002 L66.3395774,40.800156 L65.7104283,40.800156 L65.7104283,34.6184002 Z M66.8938567,34.6184002 L67.548365,34.6184002 L67.548365,40.800156 L66.8938567,40.800156 L66.8938567,34.6184002 Z M68.1022417,34.6184002 L68.75675,34.6184002 L68.75675,40.800156 L68.1022417,40.800156 L68.1022417,34.6184002 Z M69.3110293,34.6184002 L69.9659401,34.6184002 L69.9659401,40.800156 L69.3110293,40.800156 L69.3110293,34.6184002 Z M70.5198168,34.6184002 L71.1747276,34.6184002 L71.1747276,40.800156 L70.5198168,40.800156 L70.5198168,34.6184002 Z M71.7286044,34.6184002 L72.358156,34.6184002 L72.358156,40.800156 L71.7286044,40.800156 L71.7286044,34.6184002 Z" id="Shape" fill="#23A3C2"></path>
                <path d="M65.0454545,25.3454545 L73.0227273,25.3454545 L73.0227273,32.7636364 L65.0454545,32.7636364 L65.0454545,25.3454545 Z M65.7104283,25.9633869 L66.3395774,25.9633869 L66.3395774,32.1449555 L65.7104283,32.1449555 L65.7104283,25.9630126 L65.7104283,25.9633869 Z M66.8938567,25.9633869 L67.548365,25.9633869 L67.548365,32.1449555 L66.8938567,32.1449555 L66.8938567,25.9630126 L66.8938567,25.9633869 Z M68.1022417,25.9633869 L68.75675,25.9633869 L68.75675,32.1449555 L68.1022417,32.1449555 L68.1022417,25.9630126 L68.1022417,25.9633869 Z M69.3110293,25.9633869 L69.9659401,25.9633869 L69.9659401,32.1449555 L69.3110293,32.1449555 L69.3110293,25.9630126 L69.3110293,25.9633869 Z M70.5198168,25.9633869 L71.1747276,25.9633869 L71.1747276,32.1449555 L70.5198168,32.1449555 L70.5198168,25.9630126 L70.5198168,25.9633869 Z M71.7286044,25.9633869 L72.358156,25.9633869 L72.358156,32.1449555 L71.7286044,32.1449555 L71.7286044,25.9630126 L71.7286044,25.9633869 Z" id="Shape" fill="#34BBDE"></path>
                <path d="M73.6363636,42.6545455 L81.6136364,42.6545455 L81.6136364,50.0727273 L73.6363636,50.0727273 L73.6363636,42.6545455 Z M74.3005323,43.2729145 L74.9304865,43.2729145 L74.9304865,49.4547326 L74.3009349,49.4547326 L74.3009349,43.2729145 L74.3005323,43.2729145 Z M75.4839608,43.2729145 L76.1388715,43.2729145 L76.1388715,49.4547326 L75.4843633,49.4547326 L75.4843633,43.2729145 L75.4839608,43.2729145 Z M76.6931508,43.2729145 L77.3480616,43.2729145 L77.3480616,49.4547326 L76.6931508,49.4547326 L76.6931508,43.2729145 Z M77.9015358,43.2729145 L78.5564466,43.2729145 L78.5564466,49.4547326 L77.9015358,49.4547326 L77.9015358,43.2729145 Z M79.1107259,43.2729145 L79.7652342,43.2729145 L79.7652342,49.4547326 L79.1107259,49.4547326 L79.1107259,43.2729145 Z M80.3191109,43.2729145 L80.9486626,43.2729145 L80.9486626,49.4547326 L80.3191109,49.4547326 L80.3191109,43.2729145 Z" id="Shape" fill="#23A3C2"></path>
                <path d="M54.8918061,62.4365571 C55.6659676,62.4261531 56.3857684,62.8363124 56.7757796,63.5100892 C57.1657908,64.183866 57.1656395,65.0169612 56.7753837,65.6905945 C56.3851279,66.3642272 55.6651782,66.7741213 54.8910205,66.7634324 C53.7162996,66.7472125 52.7725124,65.7831376 52.7727272,64.5996044 C52.7729422,63.4160712 53.7170795,62.4523443 54.8918061,62.4365571" id="Path" fill="#D3ECEC"></path>
                <path d="M54.6609559,63.0496983 C54.8515659,63.0496983 55.0334079,63.0868634 55.2011447,63.1544715 C54.9631855,63.29774 54.847363,63.5886539 54.9185364,63.8643049 C54.9897098,64.1399559 55.2302093,64.33191 55.5053582,64.3326759 C55.7359964,64.3326759 55.9361369,64.2002268 56.0398287,64.0041228 C56.2918978,64.6338838 56.1169257,65.3605392 55.6089736,65.793455 C55.1010215,66.2263715 54.379747,66.2635668 53.8328916,65.8850461 C53.2860362,65.5065253 53.0424219,64.8014556 53.2330105,64.1488676 C53.4235991,63.4962796 54.0034938,63.0499023 54.6609559,63.0496983 M17.7954545,57.9569308 L114.75,57.9569308 C112.639185,57.4018306 108.071025,56.6514174 108.824316,53.7818182 C104.98543,58.3886754 95.7282644,57.0139721 93.3917666,54.7425685 C90.7903215,58.6559459 75.64445,57.1681666 74.5880891,54.1194646 C71.3263707,58.0893799 61.2198465,58.0893799 57.9581279,54.1194646 C56.9010048,57.1681666 41.7555144,58.6559459 39.1536877,54.7421732 C36.8175714,57.0139721 27.5607867,58.3886754 23.721901,53.7822136 C24.4751918,56.6514174 19.9070323,57.4018306 17.7954545,57.9573262" id="Shape" fill="#364548"></path>
                <path d="M60.75,77.2286287 C55.5403211,74.8274807 52.6811539,71.5630411 51.0901626,68 C49.1548092,68.5362876 46.8289223,68.8793618 44.1259685,69.0266071 C43.107888,69.0819177 42.0367103,69.1103207 40.9132049,69.1103207 C39.6173261,69.1103207 38.2518054,69.0729485 36.8181818,68.9993261 C41.5957729,73.6371845 47.473014,77.2077001 58.3556254,77.2727273 C59.1590087,77.2727273 59.9562358,77.2577784 60.75,77.2286287" id="Path" fill="#BDD9D7"></path>
                <path d="M52.7723558,71.7090909 C52.0766891,70.6372477 51.4018217,69.2901733 50.9056066,68 C49.0373718,68.6056779 46.7914043,68.9926034 44.1818182,69.1590909 C45.9742837,70.2629671 48.5374425,71.2859176 52.7727273,71.7090909" id="Path" fill="#D3ECEC"></path>
            </g>
            <g id="nodejs-icon" transform="translate(214.000000, 261.000000)" fill-rule="nonzero">
                <ellipse id="Oval" fill="#FFFFFF" cx="67.5" cy="68" rx="67.5" ry="68"></ellipse>
                <path d="M63.0701677,14.7607428 C65.752895,13.2165751 69.2471461,13.2096003 71.9275612,14.7607428 C85.412486,22.4230689 98.9016492,30.0733828 112.384262,37.7403589 C114.920175,39.1768028 116.616436,42.0148162 116.591193,44.9531909 L116.591193,91.0526961 C116.6095,94.1127443 114.745617,97.0185691 112.070211,98.4224637 C98.6296003,106.042553 85.1959258,113.671942 71.7576269,121.292031 C69.0194109,122.866424 65.4550286,122.745138 62.8023577,121.041709 C58.7728716,118.692715 54.7364496,116.355345 50.7065784,114.008675 C49.8831098,113.515007 48.9548291,113.122087 48.3733531,112.319197 C48.8873948,111.622481 49.8064274,111.535682 50.5532136,111.231498 C52.2352167,110.693655 53.7800392,109.830317 55.325247,108.992553 C55.7159804,108.723631 56.1930296,108.826705 56.5675787,109.067339 C60.0132766,111.054026 63.4285325,113.098449 66.8857905,115.066149 C67.6233286,115.494331 68.3701149,114.925876 69.0005293,114.57248 C82.1898992,107.07639 95.3954532,99.6085859 108.582511,92.1101703 C109.071121,91.8737979 109.341243,91.3522299 109.301553,90.8139994 C109.310802,75.6067582 109.303865,60.3968042 109.306177,45.1895628 C109.362051,44.5788707 109.010622,44.0173904 108.461515,43.7674561 C95.0675302,36.1822415 81.6804816,28.585402 68.2888087,20.9982498 C67.8138916,20.6699226 67.1871044,20.6689989 66.7112324,20.9959249 C53.3195596,28.585402 39.9348228,36.1892164 26.54315,43.7740435 C25.9959692,44.0243653 25.6287415,44.5765457 25.6938637,45.1895628 C25.6961758,60.3968042 25.6938637,75.6067582 25.6938637,90.8163244 C25.6463039,91.3541901 25.9369242,91.8649258 26.4221537,92.0962204 C29.995784,94.1340567 33.5740384,96.1575556 37.1499806,98.188417 C39.1645309,99.2788279 41.6380195,99.9267196 43.8575699,99.0912802 C45.8162461,98.3848764 47.1892075,96.3749399 47.1518297,94.2836295 C47.1703259,79.1651246 47.1425816,64.0442947 47.1657019,48.9281146 C47.1167639,48.2569732 47.7498752,47.7024679 48.3987854,47.7656296 C50.1158543,47.7540047 51.8352352,47.7423799 53.552304,47.7702795 C54.2690339,47.7540047 54.7622673,48.4766829 54.6736394,49.1528617 C54.6667033,64.3670777 54.6921357,79.5816815 54.6620793,94.7958983 C54.6667033,98.8506455 53.0101326,103.262664 49.2804402,105.246638 C44.6856626,107.640195 39.0065421,107.132576 34.4672532,104.837443 C30.5375701,102.865094 26.7874547,100.537411 22.9275178,98.4244011 C20.2451757,97.0282567 18.390541,94.1108069 18.408767,91.0530837 L18.408767,44.9531909 C18.3812929,41.9539795 20.1449877,39.0644293 22.7598955,37.64891 C36.1981943,30.0226209 49.6341811,22.3905194 63.0701677,14.7607428 Z" id="Path" fill="#8CC84B"></path>
                <path d="M75.1561409,46.5150675 C81.0190767,46.1327612 87.295617,46.2885735 92.5714882,49.2146415 C96.6562697,51.4569321 98.9208812,56.1629305 98.9929632,60.760368 C98.8788655,61.380493 98.2389925,61.722577 97.654626,61.6800117 C95.9535652,61.6776687 94.2521191,61.7034421 92.5510584,61.6682965 C91.8294662,61.696413 91.4100795,61.0223981 91.3194951,60.3761092 C90.8307239,58.176384 89.6465733,55.9977461 87.6028334,54.9367389 C84.4655267,53.3454234 80.8278854,53.4254772 77.4068762,53.4586703 C74.9094431,53.5930047 72.2239022,53.812079 70.1080803,55.2999103 C68.4837272,56.4269132 67.990331,58.7020062 68.5700714,60.5342645 C69.1166618,61.8498822 70.6157386,62.2743629 71.842291,62.665651 C78.9078798,64.5377411 86.3951688,64.3514693 93.3258449,66.8151773 C96.1952527,67.8195608 99.0022144,69.7720955 99.9843817,72.8157062 C101.269139,76.8949409 100.705974,81.7708098 97.8411917,85.0456002 C95.517989,87.7404884 92.1343698,89.2072323 88.7596159,90.0038665 C84.2700952,91.018013 79.6109697,91.0437862 75.0516797,90.5935316 C70.7645283,90.0983692 66.3031471,88.9573076 62.9935368,85.9980465 C60.1634468,83.5085653 58.7811663,79.6296604 58.9183921,75.885871 C58.9511567,75.2536404 59.5725277,74.812758 60.1703852,74.8646958 C61.8833956,74.8506371 63.5964057,74.8459513 65.3094157,74.8670387 C65.9936178,74.8174445 66.5008908,75.4164818 66.5359681,76.0697999 C66.8520503,78.1656501 67.629535,80.3653753 69.4335148,81.6079684 C72.9150427,83.8834517 77.2835267,83.7276396 81.2700147,83.7912926 C84.572686,83.6428999 88.2800965,83.5979915 90.975274,81.3865511 C92.3972572,80.1252135 92.8185713,78.0149145 92.4342619,76.199448 C92.0179587,74.6667089 90.4352365,73.9524715 89.0760835,73.4854252 C82.101079,71.2501639 74.5301446,72.0612468 67.6225966,69.5334958 C64.8183324,68.5295024 62.10658,66.6312484 61.0292031,63.7126 C59.5258863,59.5818182 60.2147138,54.4724262 63.3797736,51.3081489 C66.4658135,48.1606635 70.9206423,46.9485301 75.1561409,46.514677 L75.1561409,46.5150675 Z" id="Path" fill="#8CC84B"></path>
            </g>
            <g id="react" transform="translate(348.000000, 120.000000)" fill-rule="nonzero">
                <ellipse id="Oval" fill="#FFFFFF" cx="67.5" cy="68" rx="67.5" ry="68"></ellipse>
                <path d="M3.68181818,65.9321008 C3.68181818,75.9019956 13.3659083,85.2087866 28.6329437,90.4549798 C25.5841817,105.884319 28.0868814,118.320873 36.4450413,123.166507 C45.0359745,128.147562 57.8348908,124.699738 69.9829709,114.024194 C81.824472,124.268565 93.7919078,128.300107 102.142842,123.440465 C110.726033,118.4454 113.336087,105.165698 110.203196,89.2543378 C126.105068,83.96923 135,76.0332672 135,65.9321008 C135,56.1936183 125.298362,47.7688889 110.236744,42.5564216 C113.609634,25.9876662 110.751839,13.8530881 102.047358,8.80717485 C93.6556499,3.94234379 81.5488603,8.18246745 69.5334246,18.6945704 C57.0328296,7.53700564 45.0457809,4.13068996 36.3505901,9.19061239 C27.9666238,14.0694527 25.5743753,26.7322303 28.6329437,42.4469422 C13.881003,47.6173818 3.68181818,56.2330516 3.68181818,65.9321008 Z" id="Path" fill="#FFFFFF"></path>
                <path d="M106.907004,47.8792552 C105.666033,47.4530786 104.414534,47.0582749 103.153697,46.6952199 C103.362789,45.8445977 103.556146,44.9901759 103.733669,44.132393 C106.574707,30.3248467 104.717145,19.201527 98.373571,15.5399029 C92.2916031,12.0280914 82.3443588,15.6897154 72.2980448,24.4423814 C71.3081101,25.3068218 70.340149,26.1961653 69.3950883,27.1095605 C68.7622064,26.5022068 68.1181411,25.906643 67.4632235,25.3231756 C56.9344591,15.9635107 46.3809271,12.0198258 40.0440609,15.6922984 C33.9677693,19.2139253 32.1679981,29.6713542 34.7257577,42.7567009 C34.980237,44.052532 35.2675638,45.3416799 35.5874601,46.6228966 C34.0941867,47.0475375 32.6519962,47.5000746 31.2722404,47.981541 C18.9287411,52.2899418 11.0454545,59.0428692 11.0454545,66.046862 C11.0454545,73.2812559 19.5076813,80.5373467 32.3651061,84.9366679 C33.4076534,85.2917392 34.4588782,85.6207399 35.5178016,85.923364 C35.1737923,87.3036743 34.8683794,88.6933403 34.6019203,90.0907347 C32.1633542,102.948779 34.0678712,113.158243 40.1281672,116.658173 C46.387635,120.271753 56.8931799,116.557437 67.1231868,107.604849 C67.9317417,106.897114 68.7433936,106.146502 69.5560764,105.359727 C70.5797077,106.348521 71.6306705,107.308555 72.7077404,108.238711 C82.6168011,116.77544 92.4030567,120.222677 98.4581932,116.713449 C104.711985,113.089019 106.743951,102.121195 104.105181,88.777034 C103.903945,87.7577919 103.669171,86.7168535 103.406016,85.6568009 C104.143881,85.4387978 104.867814,85.2135627 105.574203,84.9790288 C118.940394,80.5456118 127.636364,73.3778591 127.636364,66.046862 C127.636364,59.0175561 119.49921,52.2191682 106.907004,47.8792552 Z" id="Path" fill="#53C1DE"></path>
                <path d="M104.166224,80.362081 C103.531961,80.5756214 102.88075,80.7818524 102.217214,80.9818182 C100.748394,76.2552124 98.7660018,71.2289188 96.3409091,66.0365958 C98.6555835,60.9669676 100.56094,56.0054149 101.988673,51.3090909 C103.175541,51.6589005 104.327999,52.0269837 105.438345,52.415951 C116.17716,56.1735324 122.727273,61.7302835 122.727273,66.0115347 C122.727273,70.5721117 115.652802,76.4927691 104.166738,80.362081 L104.166224,80.362081 Z M98.9982411,89.9646404 C100.15513,95.8177448 100.3204,101.109725 99.5539158,105.246664 C98.865206,108.963913 97.4806233,111.442079 95.7685705,112.434678 C92.1249579,114.546961 84.3327131,111.801301 75.9300443,104.55948 C74.9665671,103.729325 73.9959263,102.842802 73.0227273,101.905034 C76.2805393,98.3363937 79.5363048,94.1876692 82.7137845,89.5808219 C88.303284,89.0842661 93.5837335,88.2720469 98.3724664,87.1636364 C98.6078352,88.1167769 98.8176209,89.0509578 98.9982411,89.9646404 L98.9982411,89.9646404 Z M50.9432634,112.115643 C47.3403215,113.38834 44.470708,113.424599 42.7363035,112.424364 C39.0448028,110.295433 37.5108207,102.074961 39.6036033,91.0495835 C39.8524688,89.7466157 40.1374164,88.4508016 40.4581173,87.1636364 C45.2511642,88.2239579 50.5569195,88.9869544 56.2277853,89.446928 C59.4650988,94.0036698 62.8557067,98.1921218 66.2727273,101.859996 C65.5465193,102.562628 64.8031259,103.24727 64.0432225,103.913301 C59.5029046,107.883162 54.9532647,110.698946 50.9437813,112.115643 L50.9432634,112.115643 Z M33.7728702,80.0804856 C28.1294787,78.1363749 23.4689942,75.6099604 20.2744187,72.8533077 C17.4040642,70.3754187 15.9545455,67.9155972 15.9545455,65.9193471 C15.9545455,61.6723477 22.2376715,56.2545455 32.7167191,52.5722983 C34.0319905,52.1121425 35.360346,51.690893 36.7000786,51.3090909 C38.148573,56.0568305 40.0483133,61.0208692 42.3409091,66.0406604 C40.0186059,71.1353044 38.0917191,76.178326 36.6299076,80.9818182 C35.6703781,80.7050131 34.7177446,80.4044784 33.7728702,80.0804856 L33.7728702,80.0804856 Z M39.7008214,41.5488772 C37.4860179,30.3921586 38.9566433,21.9764263 42.6577172,19.8646537 C46.6002447,17.6151121 55.3170898,20.8228679 64.5048477,28.8643621 C65.0920547,29.3784256 65.6818697,29.9166499 66.2727273,30.4733807 C62.849612,34.0970137 59.4666522,38.2223728 56.2349269,42.7183715 C50.6929638,43.224724 45.387761,44.0379723 40.5107084,45.1272727 C40.2102854,43.9411997 39.9402374,42.7478509 39.7008214,41.5483631 L39.7008214,41.5488772 Z M90.0016877,53.9742594 C88.8832544,52.0306562 87.723332,50.1115184 86.5227273,48.2181818 C90.1733322,48.6817243 93.6705201,49.2980831 96.9545455,50.0524858 C95.96873,53.2315726 94.739879,56.5558347 93.2928018,59.9636364 C92.235502,57.9453365 91.1382453,55.9484794 90.0016877,53.9742594 L90.0016877,53.9742594 Z M69.3692174,34.6181818 C71.6197226,37.0327957 73.8737667,39.7292731 76.0909091,42.6545455 C71.5934418,42.4440641 67.0884709,42.4430617 62.5909091,42.6515416 C64.8100735,39.7533041 67.0833268,37.0608318 69.3692174,34.6181818 L69.3692174,34.6181818 Z M48.631573,54.0142829 C47.5027806,55.9718681 46.4198376,57.955526 45.3836288,59.9636364 C43.9521501,56.56917 42.7274236,53.2317277 41.7272727,50.0088431 C45.0103546,49.2741475 48.511392,48.6738661 52.1590909,48.2181818 C50.9380377,50.1223438 49.7618742,52.0549101 48.631573,54.0142829 L48.631573,54.0142829 Z M52.7727273,84.0727273 C48.8476234,83.6562718 45.1458261,83.0920906 41.7272727,82.3847212 C42.7854596,79.1367723 44.0892305,75.7607609 45.6120648,72.3272727 C46.695916,74.3172896 47.8288515,76.2828037 49.0099317,78.2221841 C50.2151038,80.2005124 51.4697254,82.1512482 52.7727273,84.0727273 L52.7727273,84.0727273 Z M69.7344267,98.2909091 C67.3304848,95.6723218 64.932848,92.7763347 62.5909091,89.6612924 C64.8640139,89.7514604 67.1817817,89.7970748 69.5373826,89.7970748 C71.9576135,89.7970748 74.3499957,89.7424436 76.7045455,89.6363636 C74.3925575,92.8081587 72.0579749,95.708389 69.7344267,98.2909091 Z M93.5918599,71.7090909 C95.1744238,75.3354765 96.5085981,78.8438623 97.5681818,82.1799899 C94.1347526,82.9675332 90.4283055,83.6017815 86.5227273,84.0727273 C87.7742896,82.0781698 88.9862558,80.05878 90.1579073,78.0157571 C91.3489619,75.9394068 92.4938963,73.8366638 93.5918599,71.7090909 L93.5918599,71.7090909 Z M85.827708,75.873401 C84.0685525,78.9533417 82.210491,81.9748148 80.2564679,84.9330305 C76.8109334,85.1811477 73.2502741,85.3090909 69.6217729,85.3090909 C66.0081764,85.3090909 62.4927445,85.1956515 59.1073423,84.9744697 C57.1026398,82.0231417 55.2094287,78.9964389 53.4317702,75.9008545 C51.6624206,72.8216933 50.0097306,69.6759237 48.4772727,66.4703443 C50.0058328,63.2638043 51.6535287,60.1163493 53.4168656,57.0346541 L53.4168656,57.0356901 C55.1796493,53.9533385 57.0579558,50.9395775 59.0477239,48.0009236 C62.5014814,47.7377851 66.0426106,47.6 69.6222865,47.6 C73.2178949,47.6 76.7636497,47.7388211 80.2163796,48.0040315 C82.1860216,50.9381633 84.0523144,53.9414339 85.8117749,57.0082366 C87.5811758,60.0830757 89.2508607,63.2151132 90.8181818,66.3993795 C89.2669833,69.6160886 87.6026082,72.7760987 85.8282216,75.873401 L85.827708,75.873401 Z M95.8892193,19.8228937 C99.7706694,22.0524174 101.280465,31.0425478 98.8416043,42.8323551 C98.6817502,43.6003898 98.5079819,44.3654871 98.320384,45.1272727 C93.5114079,44.0222178 88.2889439,43.1996849 82.8212598,42.688795 C79.6359674,38.172017 76.3357598,34.0649727 73.0227273,30.5102005 C73.8908791,29.676708 74.7796903,28.8648237 75.6883385,28.075299 C84.2464076,20.6581987 92.2447808,17.7297775 95.8892193,19.8228937 L95.8892193,19.8228937 Z" id="Shape" fill="#FFFFFF"></path>
                <path d="M69.3409091,55.6363636 C75.1025281,55.6363636 79.7727273,60.3415614 79.7727273,66.1451943 C79.7727273,71.9493479 75.1025281,76.6545455 69.3409091,76.6545455 C63.5798074,76.6545455 58.9090909,71.9493479 58.9090909,66.1451943 C58.9090909,60.3415614 63.5798074,55.6363636 69.3409091,55.6363636" id="Path" fill="#53C1DE"></path>
            </g>
        </g>
    </g>
</svg>