<?xml version="1.0" encoding="UTF-8"?>
<svg width="690px" height="473px" viewBox="0 0 690 473" version="1.1" xmlns="http://www.w3.org/2000/svg" xmlns:xlink="http://www.w3.org/1999/xlink">
    <!-- Generator: Sketch 61.1 (89650) - https://sketch.com -->
    <title>undraw_manage_chats_ylx0</title>
    <desc>Created with Sketch.</desc>
    <g id="CONTACTPAGE" stroke="none" stroke-width="1" fill="none" fill-rule="evenodd">
        <g id="contactpage---Desktop-HD-candidats-Copy" transform="translate(-1090.000000, -463.000000)" fill-rule="nonzero">
            <g id="undraw_manage_chats_ylx0" transform="translate(1090.000000, 463.000000)">
                <path d="M410.944971,84 C409.31175,83.9685964 407.647782,83.9527802 406,83.9527802 L406,83 C407.666396,83 409.34814,83.0160496 411,83.0476866 L410.944971,84 Z" id="Path" fill="#E6E6E6"></path>
                <path d="M407.017691,347 C405.008313,347 402.982155,346.95464 400.994675,346.865389 L401.061822,345.368634 C404.03757,345.50251 407.084113,345.535427 410.078105,345.466665 L410.111679,346.964918 C409.083999,346.988306 408.05267,347 407.017691,347 Z M419.214818,346.447669 L419.079059,344.955266 C422.06575,344.683123 425.074339,344.30417 428.023076,343.830077 L428.259562,345.309311 C425.277976,345.78852 422.235081,346.171863 419.214818,346.447669 Z M391.906865,346.149913 C388.893896,345.808274 385.859761,345.358356 382.888392,344.81261 L383.158451,343.339227 C386.095514,343.878396 389.095344,344.32319 392.07474,344.660439 L391.906865,346.149913 Z M437.205776,343.552114 L436.868563,342.091901 C439.783727,341.414473 442.712763,340.62586 445.573912,339.747958 L446.011845,341.180371 C443.117115,342.068498 440.154514,342.866633 437.205776,343.552114 Z M373.982321,342.856392 C371.051103,342.105805 368.106745,341.241822 365.231724,340.289314 L365.700309,338.867142 C368.543946,339.808675 371.45473,340.662417 374.353108,341.404959 L373.982321,342.856392 Z M454.632528,338.205079 L454.096789,336.806302 C456.890067,335.732353 459.680422,334.547946 462.389026,333.286724 L463.01819,334.645977 C460.278927,335.921118 457.457914,337.118695 454.632506,338.205079 L454.632528,338.205079 Z M356.665781,337.11868 C353.857549,335.966456 351.056969,334.703038 348.341795,333.362805 L349.002343,332.018183 C351.686499,333.343051 354.455688,334.592572 357.232171,335.731604 L356.665781,337.11868 Z M471.142537,330.516281 L470.421405,329.203833 C473.041696,327.755329 475.6452,326.198546 478.157469,324.57593 L478.967654,325.835691 C476.426192,327.476616 473.793494,329.050921 471.142552,330.516281 L471.142537,330.516281 Z M340.297756,329.043632 C337.675276,327.516852 335.075419,325.881793 332.56972,324.182361 L333.407633,322.94162 C335.884864,324.621297 338.45552,326.238796 341.048807,327.748766 L340.297756,329.043632 Z M486.455588,320.629125 L485.562202,319.427893 C487.962068,317.634813 490.329819,315.73639 492.600497,313.784563 L493.574162,314.921423 C491.277183,316.895926 488.882428,318.816298 486.455558,320.629125 L486.455588,320.629125 Z M325.192738,318.803128 C322.808201,316.936162 320.455779,314.961658 318.20043,312.93372 L319.198908,311.818809 C321.428711,313.823308 323.754861,315.775869 326.113135,317.622347 L325.192738,318.803128 Z M500.289124,308.739666 L499.240965,307.671591 C501.375153,305.567593 503.464817,303.363362 505.451564,301.118926 L506.569754,302.113856 C504.560376,304.383171 502.447355,306.612258 500.289124,308.739666 L500.289124,308.739666 Z M311.624926,306.601291 C309.513729,304.424867 307.451427,302.148226 305.495338,299.835739 L306.63542,298.867118 C308.569624,301.154 310.608921,303.404309 312.696396,305.556581 L311.624926,306.601291 Z M512.386248,295.071023 L511.203856,294.155103 C513.031488,291.782618 514.802924,289.312844 516.468527,286.81527 L517.710793,287.64779 C516.026886,290.173898 514.235017,292.671479 512.38621,295.071023 L512.386248,295.071023 Z M299.840912,292.669284 C298.045029,290.226577 296.311913,287.690955 294.689017,285.134125 L295.95026,284.329398 C297.554934,286.857701 299.268685,289.364789 301.0445,291.781157 L299.840912,292.669284 Z M522.517066,279.873404 L521.220785,279.128667 C522.711219,276.522822 524.129387,273.832842 525.43661,271.131888 L526.781061,271.785913 C525.459196,274.517589 524.024975,277.238313 522.517029,279.873404 L522.517066,279.873404 Z M290.064041,277.265364 C288.61887,274.601724 287.24814,271.853949 285.989819,269.098855 L287.348867,268.475582 C288.593294,271.199212 289.948336,273.916265 291.377109,276.54991 L290.064041,277.265364 Z M530.480797,263.421882 L529.094012,262.862959 C530.212927,260.075682 531.249366,257.213793 532.174136,254.356271 L533.595951,254.818625 C532.660987,257.709056 531.612866,260.603877 530.480811,263.421882 L530.480797,263.421882 Z M282.486733,260.674834 C281.418545,257.834894 280.436479,254.921772 279.566823,252.016711 L280.998848,251.586547 C281.858294,254.4587 282.829403,257.338141 283.885184,260.14664 L282.486733,260.674834 Z M536.106792,246.031749 L534.655776,245.668887 C535.380555,242.757241 536.012634,239.784144 536.535233,236.832262 L538.006683,237.094164 C537.478232,240.079704 536.838851,243.086452 536.106777,246.031749 L536.106792,246.031749 Z M277.251652,243.177891 C276.584535,240.219424 276.011576,237.198772 275.549195,234.200437 L277.026482,233.971459 C277.483758,236.936144 278.050148,239.92241 278.709963,242.847219 L277.251652,243.177891 Z M539.28981,228.047948 L537.803756,227.88774 C538.122718,224.909519 538.343142,221.877893 538.459923,218.876636 L539.953272,218.935158 C539.835758,221.969706 539.612419,225.035717 539.28981,228.047948 Z M274.465296,225.127552 C274.209108,222.10947 274.05255,219.039069 274,216.001599 L275.494806,215.975994 C275.546258,218.979813 275.701359,222.015829 275.954997,225.000261 L274.465296,225.127552 Z M538.505179,209.839222 C538.420513,206.836864 538.232205,203.802683 537.945374,200.821174 L539.432878,200.677049 C539.723371,203.692577 539.913877,206.760783 540,209.796792 L538.505179,209.839222 Z M536.773162,191.862373 C536.280488,188.89879 535.680518,185.919108 534.988587,183.005634 L536.442525,182.658871 C537.142483,185.605261 537.749733,188.618961 538.247504,191.61657 L536.773162,191.862373 Z M532.598915,174.293738 C531.706994,171.433303 530.704861,168.56775 529.619519,165.777178 L531.01214,165.232892 C532.109889,168.055647 533.123704,170.953764 534.025109,173.846749 L532.598915,174.293738 Z M526.059884,157.484479 C524.782572,154.770355 523.395803,152.068666 521.93895,149.454408 L523.24399,148.723568 C524.71763,151.367828 526.119736,154.100238 527.411638,156.845084 L526.059884,157.484479 Z M517.277179,141.724266 C515.640045,139.208765 513.897078,136.721065 512.09864,134.330661 L513.291271,133.428638 C515.110876,135.84574 516.873574,138.361638 518.529663,140.905672 L517.277179,141.724266 Z M506.426694,127.30723 C504.466218,125.041196 502.4021,122.81357 500.291261,120.685803 L501.351079,119.629414 C503.485999,121.781326 505.573473,124.03419 507.556573,126.325469 L506.426694,127.30723 Z M493.71865,114.498555 C491.464759,112.517863 489.116717,110.591244 486.739481,108.772926 L487.645999,107.581934 C490.050246,109.420733 492.425291,111.368898 494.703996,113.371935 L493.71865,114.498555 Z M479.387343,103.537084 C476.883834,101.88191 474.294927,100.294039 471.692155,98.8181015 L472.427876,97.5137144 C475.060574,99.006844 477.678675,100.612275 480.210653,102.286836 L479.387343,103.537084 Z M463.690382,94.6390076 C460.986158,93.3426736 458.20383,92.1256871 455.420044,91.0210396 L455.97038,89.6281282 C458.785548,90.7452336 461.599992,91.9764685 464.3356,93.2870734 L463.690382,94.6390076 Z M446.919066,87.9835626 C444.066669,87.0745871 441.1464,86.2541284 438.238531,85.5445105 L438.591798,84.0886874 C441.533233,84.8063509 444.487083,85.6363235 447.371596,86.555562 L446.919066,87.9835626 Z M429.410563,83.711562 C426.463283,83.205317 423.458341,82.7945408 420.478221,82.4909422 L420.630033,81 C423.643735,81.3072619 426.682975,81.722795 429.663103,82.234561 L429.410563,83.711562 Z" id="Shape" fill="#E6E6E6"></path>
                <path d="M274.83012,208 L274,207.91546 C274.043433,206.268589 274.101278,204.61494 274.171908,203 L275,203.139567 C274.930384,204.736164 274.873146,206.371471 274.83012,208 Z" id="Path" fill="#E6E6E6"></path>
                <polygon id="Path" stroke="#FFFFFF" fill="#36AAE1" points="521 472 144 472 144 304 332.5 388.746667 521 304"></polygon>
                <polygon id="Path" stroke="#FFFFFF" stroke-width="4" fill="#36AAE1" points="144 303 521 303 332.873267 402"></polygon>
                <path d="M48.3310835,471 C48.1522397,470.719143 43.9352915,463.952253 42.4733214,449.900649 C41.1323625,437.009042 41.9946301,415.279232 53.7208077,384.967936 C75.9357118,327.545207 48.6012548,281.21339 48.3219578,280.751879 L49.6705227,280 C49.7412997,280.117024 56.7946716,291.92982 60.9613932,310.739935 C66.4669349,335.67813 64.4621637,361.60783 55.1820297,385.490194 C33.0052026,442.814886 49.4924582,469.951948 49.661397,470.219638 L48.3310835,471 Z" id="Path" fill="#3F3D56"></path>
                <circle id="Oval" fill="#36AAE1" cx="41" cy="269" r="9"></circle>
                <circle id="Oval" fill="#36AAE1" cx="72" cy="304" r="9"></circle>
                <circle id="Oval" fill="#36AAE1" cx="51" cy="328" r="9"></circle>
                <circle id="Oval" fill="#36AAE1" cx="76" cy="348" r="9"></circle>
                <circle id="Oval" fill="#36AAE1" cx="44" cy="379" r="9"></circle>
                <path d="M54.6296296,472 C54.6296296,472 44.4444444,448.571429 75,431 L54.6296296,472 Z" id="Path" fill="#3F3D56"></path>
                <path d="M43,471 C43,471 38.5376702,444.776681 4,445.001437 L43,471 Z" id="Path" fill="#3F3D56"></path>
                <path d="M208.085746,103.974489 C208.054383,83.321211 214.923977,63.2553119 227.593501,46.9928639 C190.358702,41.4786951 153.5287,59.2716815 134.560242,91.938273 C115.591784,124.604864 118.297024,165.579948 141.393728,195.442083 C164.490431,225.304219 203.336778,238.051914 239.520309,227.642994 C256.971019,235.260702 276.059799,238.30457 295,236.489702 L265.555841,215.436551 C273.602211,209.975917 280.744628,203.278516 286.72171,195.589446 C241.54215,188.846947 208.089664,149.873073 208.085746,103.974489 Z" id="Path" fill="#3F3D56"></path>
                <path d="M418,93.6124656 C418,54.07919 392.996045,18.9053664 355.751479,6.04364184 C318.506912,-6.81808271 277.234662,5.46866862 253,36.6327632 C285.478056,41.464079 312.951091,63.2553836 325.141167,93.8543302 C337.331243,124.453277 332.401512,159.2491 312.196237,185.224332 C325.234191,187.152042 338.53162,186.272206 351.204626,182.643309 C368.675411,190.260762 387.786151,193.304527 406.748141,191.489719 L377.270113,170.437278 C402.748244,153.23681 418.019852,124.431453 418,93.6124656 Z" id="Path" fill="#36AAE1"></path>
                <path d="M238.676631,41 C218.328026,66.8737539 213.365752,101.527691 225.645568,132.002154 C237.925384,162.476617 265.597725,184.181595 298.313868,189 C318.669668,163.12818 323.636124,128.470885 311.355235,97.9937579 C299.074345,67.516631 271.396641,45.8120814 238.676631,41 Z" id="Path" fill="#E6E6E6"></path>
                <rect id="Rectangle" fill="#3F3D56" x="0" y="472" width="690" height="1"></rect>
                <path d="M602.090278,119 L597.715119,148.491949 L547.710762,182.750207 C547.710762,182.750207 521.419832,195.511334 523.074996,203.439796 C524.550403,210.507202 544.837795,209.670692 551.222136,198.741977 L611.00575,171.212892 L631,131.119368 L602.090278,119 Z" id="Path" fill="#FFB8B8"></path>
                <polygon id="Path" fill="#FFB8B8" points="604 419 606.15625 450 627 448.52381 623.40625 419"></polygon>
                <path d="M610.231195,440.497398 C610.231195,440.497398 607.243446,429.28851 604.255698,430.035769 L599.774075,438.25562 C599.774075,438.25562 579.606771,456.9371 573.631274,457.684359 C573.631274,457.684359 554.210908,463.662432 573.631274,472.629542 L596.039389,472.629542 C596.039389,472.629542 610.978132,471.882283 613.965881,472.629542 C616.953629,473.376802 634.133184,473.376802 634.880121,468.893247 C635.627058,464.409691 632.63931,455.442581 632.63931,455.442581 C632.63931,455.442581 629.884732,433.396492 626.780402,437.694204 C625.158034,439.999669 623.37169,442.18516 621.435252,444.233693 L610.231195,440.497398 Z" id="Path" fill="#2F2E41"></path>
                <polygon id="Path" fill="#FFB8B8" points="660 420 662.15625 451 683 449.52381 679.40625 420"></polygon>
                <path d="M665.231195,440.588622 C665.231195,440.588622 662.243446,429.282327 659.255698,430.03608 L654.774075,438.327363 C654.774075,438.327363 634.606771,457.171187 628.631274,457.92494 C628.631274,457.92494 609.210908,463.954964 628.631274,473 L651.039389,473 C651.039389,473 665.978132,471.492494 668.965881,472.246247 C671.953629,473 689.133184,473 689.880121,468.477482 C690.627058,463.954964 687.63931,455.663681 687.63931,455.663681 C687.63931,455.663681 684.884732,433.426008 681.780402,437.761068 C680.158034,440.086568 678.37169,442.291051 676.435252,444.357386 L665.231195,440.588622 Z" id="Path" fill="#2F2E41"></path>
                <path d="M574.717105,223.668904 L571,228.925953 L571,239.44005 L594.789474,328.809873 L599.25,348.336053 C599.25,348.336053 599.25,423.436745 603.710526,423.436745 C608.171053,423.436745 628.243421,425.689766 628.243421,421.183724 C628.243421,416.677683 626.756579,314.540742 626.756579,314.540742 L646.828947,352.842094 C646.828947,352.842094 655.75,420.432717 658.723684,421.183724 C661.697368,421.934731 682.513158,421.183724 684,416.677683 L679.539474,373.870288 C679.539474,373.870288 680.282895,325.805845 667.644737,315.291748 C667.644737,315.291748 665.414474,302.524631 663.184211,297.267582 C660.953947,292.010534 657.236842,289.006506 659.467105,285.251472 C661.697368,281.496437 656.493421,240.191056 656.493421,240.191056 C656.493421,240.191056 657.980263,227.423939 655.006579,223.668904 C652.032895,219.91387 574.717105,223.668904 574.717105,223.668904 Z" id="Path" fill="#2F2E41"></path>
                <circle id="Oval" fill="#FFB8B8" cx="623" cy="31" r="23"></circle>
                <path d="M637.529412,45.9818182 L636.039216,60.8909091 L642,66.1090909 L604,84 C613.360667,67.9998916 616.132945,53.4307504 611.45098,43 L637.529412,45.9818182 Z" id="Path" fill="#FFB8B8"></path>
                <path d="M610.75,69.4818052 C610.75,69.4818052 604.75,81.4526934 612.25,78.4599713 L635.5,62 C635.5,62 661,71.7263467 670,82.9490544 L662.5,162.256189 L656.5,218.369728 C656.5,218.369728 660.25,225.103352 659.5,225.851533 C658.75,226.599713 658,225.103352 658.75,227.347894 C659.5,229.592436 661.75,227.347894 659.5,229.592436 C657.25,231.836977 655,229.592436 657.25,231.836977 C659.5,234.081519 657.25,234.829699 657.25,234.829699 C657.25,234.829699 654.25,216.873367 628,230.340616 C601.75,243.807865 590.5,247.548768 571,231.088797 L593.5,145.796218 L595.31674,113.627269 C595.923571,102.882147 597.840369,92.250791 601.024772,81.9681449 C602.744785,76.4141017 605.741147,70.9560724 610.750022,67.9854441 L610.75,69.4818052 Z" id="Path" fill="#D0CDE1"></path>
                <path d="M649.488926,134.519481 L660.742537,162.38961 L634.484111,218.12987 C634.484111,218.12987 628.482185,224.909091 632.233389,233.194805 C634.171406,237.622166 636.428101,241.901891 638.985556,246 C638.985556,246 645.737722,242.987013 645.737722,230.181818 L684,175.194805 L680.999037,130 L649.488926,134.519481 Z" id="Path" fill="#FFB8B8"></path>
                <path d="M649.890672,84.7306792 C649.890672,84.7306792 639.730446,95.047619 644.084829,111.259953 C648.439211,127.472287 652.067863,140 652.067863,140 C652.067863,140 669.485392,126.735363 684,134.84153 C684,134.84153 681.822809,86.941452 669.485392,82.5199063 C657.147976,78.0983607 649.890672,84.7306792 649.890672,84.7306792 Z" id="Path" fill="#D0CDE1"></path>
                <path d="M641.136087,12.258496 C641.136087,12.258496 633.980903,-2.992088 620.266794,0.527276959 C606.552685,4.04664192 598.801234,9.32569307 598.204967,14.6047442 C597.608701,19.8837954 598.503097,27.8023721 598.503097,27.8023721 C598.503097,27.8023721 599.993759,16.9509925 609.53401,19.2972407 C619.074261,21.643489 633.980903,19.8838028 633.980903,19.8838028 L636.365962,41 C636.365962,41 640.433174,36.7352169 643.4145,39.0814577 C646.395825,41.4276986 650.676353,16.9509851 641.136087,12.258496 Z" id="Path" fill="#2F2E41"></path>
                <path d="M523.449798,179.314559 L523.449798,179.314559 L537.24146,176.078918 C538.612233,175.757322 540.020016,176.44082 540.631189,177.724677 L554.758553,207.401359 C555.070484,208.056588 555.08064,208.817961 554.786299,209.481488 C554.491959,210.145015 553.923211,210.642869 553.232436,210.841662 L539.216305,214.875567 C537.663778,215.322381 536.024956,214.533266 535.386741,213.03158 L526.37241,191.821351 L526.097779,191.975464 L524.382097,187.957009 L524.667293,187.809322 L522.151019,181.888783 C521.932813,181.375355 521.951868,180.790121 522.202998,180.292374 C522.454127,179.794626 522.911196,179.436165 523.449798,179.314559 Z" id="Path" fill="#3F3D56"></path>
                <path d="M534.136831,176.434288 L535.745939,176.054796 C536.698044,175.830271 537.675172,176.31141 538.093553,177.210762 L551.875984,206.836348 C552.036566,207.181505 552.041418,207.580793 551.889274,207.929892 C551.737129,208.27899 551.443102,208.543217 551.084011,208.653541 L537.173313,212.927299 C536.360827,213.176917 535.49379,212.765601 535.158778,211.971619 L522.118661,181.066433 C521.947801,180.661496 521.96205,180.200263 522.157567,179.807062 C522.353084,179.413861 522.709745,179.129167 523.131407,179.02972 L524.657897,178.669728 C524.961647,178.598093 525.274811,178.742919 525.421706,179.022959 L525.421706,179.022959 C525.551387,179.27019 525.827859,179.398048 526.096019,179.334804 L533.342827,177.625799 C533.872555,177.500877 534.21852,176.981721 534.136824,176.434326 L534.136831,176.434288 Z" id="Path" fill="#36AAE1"></path>
            </g>
        </g>
    </g>
</svg>