<?xml version="1.0" encoding="UTF-8"?>
<svg width="513px" height="429px" viewBox="0 0 513 429" version="1.1" xmlns="http://www.w3.org/2000/svg" xmlns:xlink="http://www.w3.org/1999/xlink">
    <!-- Generator: Sketch 61.1 (89650) - https://sketch.com -->
    <title>undraw_unexpected_friends_tg6k</title>
    <desc>Created with Sketch.</desc>
    <g id="ENTREPRISEPAGE" stroke="none" stroke-width="1" fill="none" fill-rule="evenodd">
        <g id="Entreprisepage---Desktop-HD--Entreprise-PAGE" transform="translate(-1143.000000, -1047.000000)" fill-rule="nonzero">
            <g id="Content" transform="translate(121.000000, 1047.000000)">
                <g id="Cont1" transform="translate(85.000000, 0.000000)">
                    <g id="undraw_unexpected_friends_tg6k" transform="translate(937.000000, 0.000000)">
                        <polygon id="Rectangle" fill="#5D3CFF" transform="translate(144.482325, 166.146298) rotate(30.000000) translate(-144.482325, -166.146298) " points="115.809218 137.465417 173.141965 137.478883 173.155431 194.827179 115.822685 194.813713"></polygon>
                        <circle id="Oval" fill="#36AAE1" cx="438" cy="88" r="42"></circle>
                        <path d="M412.432196,30.2438371 C417.660905,43.2225321 430.967407,50 430.967407,50 C430.967407,50 435.796513,35.7348579 430.567804,22.7561629 C425.339095,9.77746791 412.032593,3 412.032593,3 C412.032593,3 407.203487,17.265148 412.432196,30.2438371 Z" id="Path" fill="#3F3D56"></path>
                        <path d="M417.925544,26.5378092 C428.971241,35.0761762 432,49.9600463 432,49.9600463 C432,49.9600463 417.120154,51.000513 406.074456,42.4621936 C395.028759,33.9238742 392,19.0399564 392,19.0399564 C392,19.0399564 406.879846,17.99946 417.925544,26.5378092 Z" id="Path" fill="#36AAE1"></path>
                        <path d="M433.340219,22.8436705 C428.181935,35.8223644 433.160098,50 433.160098,50 C433.160098,50 446.501497,43.1350233 451.659781,30.1563295 C456.818065,17.1776356 451.839902,3 451.839902,3 C451.839902,3 438.498503,9.86497666 433.340219,22.8436705 Z" id="Path" fill="#3F3D56"></path>
                        <path d="M439.63343,23.4680277 C441.770076,37.2751452 433.868744,50 433.868744,50 C433.868744,50 422.503224,40.3390839 420.366572,26.5319723 C418.22992,12.7248607 426.131258,0 426.131258,0 C426.131258,0 437.496778,9.66091605 439.63343,23.4680277 Z" id="Path" fill="#36AAE1"></path>
                        <circle id="Oval" fill="#F2F2F2" cx="436.5" cy="83.5" r="21.5"></circle>
                        <circle id="Oval" fill="#3F3D56" cx="427" cy="78" r="7"></circle>
                        <path d="M500,348 C492.820298,348 487,342.179702 487,335 C487,327.820298 492.820298,322 500,322 C507.179702,322 513,327.820298 513,335 C512.991895,342.176342 507.176342,347.991895 500,348 L500,348 Z M500,323.181818 C493.472998,323.181818 488.181818,328.472998 488.181818,335 C488.181818,341.527002 493.472998,346.818182 500,346.818182 C506.527002,346.818182 511.818182,341.527002 511.818182,335 C511.810923,328.476007 506.523993,323.189077 500,323.181818 L500,323.181818 Z" id="Shape" fill="#3F3D56"></path>
                        <path d="M156,215 C148.820298,215 143,209.179702 143,202 C143,194.820298 148.820298,189 156,189 C163.179702,189 169,194.820298 169,202 C168.991895,209.176342 163.176342,214.991895 156,215 L156,215 Z M156,190.181818 C149.472998,190.181818 144.181818,195.472998 144.181818,202 C144.181818,208.527002 149.472998,213.818182 156,213.818182 C162.527002,213.818182 167.818182,208.527002 167.818182,202 C167.810923,195.476007 162.523993,190.189077 156,190.181818 L156,190.181818 Z" id="Shape" fill="#3F3D56"></path>
                        <path d="M464.865047,95 L396.4491,171.363393 C406.47524,179.1425 411.319995,191.868269 409.005671,204.345868 C406.691347,216.823467 397.605182,226.965118 385.456271,230.630863 C373.30736,234.296608 360.128484,230.873086 351.299439,221.757825 L256,328.1276 C283.476456,349.482745 317.296324,361.051852 352.095087,361 C438.751312,361 509,290.747972 509,204.087952 C509.052233,163.365591 493.218329,124.228962 464.865047,95 L464.865047,95 Z" id="Path" fill="#F2F2F2"></path>
                        <circle id="Oval" fill="#5D3CFF" cx="377.5" cy="199.5" r="20.5"></circle>
                        <circle id="Oval" fill="#2F2E41" cx="270" cy="42" r="20"></circle>
                        <path d="M233,182 L237.583555,271.255673 C237.583555,271.255673 236.819629,335.336668 241.403184,336.099537 C245.98674,336.862406 254.389924,342.202491 256.681696,338.388145 C258.973467,334.573799 270.432373,217.091977 270.432373,217.091977 C270.432373,217.091977 273.488076,339.151014 282.65518,339.913883 C291.822285,340.676752 302.517247,336.099537 304.045099,336.862406 C305.57295,337.625275 304.809013,184.28859 304.809013,184.28859 L233,182 Z" id="Path" fill="#2F2E41"></path>
                        <path d="M247.025365,336.041644 C247.025365,336.041644 241.654395,336.041644 240.119826,338.32274 C238.585257,340.603835 233.214287,352.009324 233.214287,352.009324 C233.214287,352.009324 223.239646,361.086144 233.981563,361.846509 C244.723479,362.606874 250.094473,360.373324 250.094473,358.852593 C250.094473,357.331863 250.094473,353.530043 252.396317,352.769678 C254.698162,352.009313 257,348.207487 257,346.686757 C257,345.166026 254.698179,335.281279 247.025365,336.041644 Z" id="Path" fill="#2F2E41"></path>
                        <path d="M287.712875,336.020282 C287.712875,336.020282 283.858906,351.324507 287.712875,352.089719 C291.566845,352.85493 293.879227,354.385353 294.650026,356.680981 C295.420826,358.976609 303.128754,361.63093 309.295105,360.865719 C315.461456,360.100507 318.544632,355.915775 316.232256,353.620141 C313.91988,351.324507 302.357954,338.315916 301.587172,336.020282 C300.81639,333.724648 287.712875,336.020282 287.712875,336.020282 Z" id="Path" fill="#2F2E41"></path>
                        <path d="M260.722407,56.345515 C260.722407,56.345515 259.170568,68.0066413 256.066889,69.5614589 C252.963211,71.1162766 257.618729,79.6677736 257.618729,79.6677736 L271.585293,82 L284,71.8936854 C284,71.8936854 281.672241,57.1229238 281.672241,56.345515 C281.672241,55.5681062 260.722407,56.345515 260.722407,56.345515 Z" id="Path" fill="#9F616A"></path>
                        <path d="M260.722407,56.345515 C260.722407,56.345515 259.170568,68.0066413 256.066889,69.5614589 C252.963211,71.1162766 257.618729,79.6677736 257.618729,79.6677736 L271.585293,82 L284,71.8936854 C284,71.8936854 281.672241,57.1229238 281.672241,56.345515 C281.672241,55.5681062 260.722407,56.345515 260.722407,56.345515 Z" id="Path" fill="#000000" opacity="0.1"></path>
                        <circle id="Oval" fill="#9F616A" cx="269.5" cy="48.5" r="18.5"></circle>
                        <path d="M269.396424,78.5642482 C269.396424,78.5642482 261.729795,65.5262183 257.896513,66.2931599 C254.063231,67.0601014 242.179963,68.9774524 240.64664,68.2105108 C239.113318,67.4435693 229.146729,102.722875 229.146729,102.722875 C229.146729,102.722875 218.413474,172.514551 225.313424,180.95089 C232.213374,189.387229 255.979857,184.785598 259.046502,193.221955 C262.113146,201.658312 310.412786,188.620306 310.412786,184.018639 C310.412786,179.416972 311.179447,108.85839 311.946108,103.489799 C312.712769,98.121208 305.046152,69.7443763 305.046152,69.7443763 C305.046152,69.7443763 287.029624,64.7592591 283.962985,66.2931422 C280.896347,67.8270254 279.363019,72.4286923 269.396424,78.5642482 Z" id="Path" fill="#575A88"></path>
                        <path d="M242,70.6923041 L240.472206,68.3846111 C240.472206,68.3846111 224.430372,70.6923041 219.846965,69.9230731 C215.263559,69.1538421 201.51344,70.6923041 201.51344,70.6923041 C201.51344,70.6923041 204.569028,62.230769 207.624617,61.461538 C210.680206,60.692307 214.499697,58.384614 214.499697,58.384614 C214.499697,58.384614 206.860732,46.8461491 214.499697,43 C214.499697,43 179.360464,56.8461697 177.068749,69.9230731 C174.777034,82.9999764 230.541537,103 230.541537,103 L242,70.6923041 Z" id="Path" fill="#575A88"></path>
                        <path d="M299,71.8235752 L305.08375,70.2810877 L335.502526,73.3660626 L325.616422,62.5686561 C325.616422,62.5686561 331.700178,54.8562187 327.897831,51 C327.897831,51 368.202705,66.4248749 363.639893,76.4510376 C359.077082,86.4772004 311.167507,104.215806 308.886098,104.98705 C306.60469,105.758294 299,71.8235752 299,71.8235752 Z" id="Path" fill="#575A88"></path>
                        <path d="M219.261503,46.1165412 C221.122356,46.4873147 222.712525,47.653399 224.235283,48.7886234 C225.711627,49.8467034 227.127391,50.9873641 228.475847,52.2051858 C235.312299,58.616868 237.825655,68.2905019 240,77.4220948 C238.45204,78.7306363 235.924273,77.6424492 234.885376,75.8996016 C233.846479,74.156754 233.774457,72.0282139 233.366221,70.0392155 C232.957986,68.050217 231.959929,65.9126355 230.030576,65.2981303 C230.436279,66.560564 229.457116,67.9316681 228.23295,68.4329419 C227.008784,68.9342157 225.629938,68.795771 224.315828,68.6490644 C223.70477,68.61548 223.103814,68.4781835 222.538519,68.2430142 C221.518471,67.7481606 220.922428,66.6837549 220.367294,65.6928815 C218.920372,63.1104314 217.328753,60.6122988 215.600089,58.2104946 C215.208223,57.5898383 214.69753,57.0533201 214.097573,56.6319977 C211.689764,55.1574253 209.104052,53.2289859 210.302953,49.7284642 C211.292601,46.8389662 216.634503,45.5931372 219.261503,46.1165412 Z" id="Path" fill="#9F616A"></path>
                        <path d="M320.500822,50.0068105 C317.756443,50.1429164 315.390053,51.9208236 313.38046,53.7862116 C304.969775,61.6469358 299.554346,72.1651067 298.05524,83.5517737 C297.95739,84.3152275 297.926797,85.2140258 298.514078,85.714607 C299.174391,86.2774354 300.263184,85.944226 300.805463,85.2678695 C301.281222,84.5399582 301.578767,83.7110854 301.674175,82.847888 C302.207489,80.266666 303.117,77.7769083 304.373862,75.4575793 C305.018768,74.2682572 305.914656,73.0158801 307.255821,72.805317 C309.252996,72.4917506 310.746547,74.5972823 312.654285,75.2639801 C314.905934,76.0508601 317.428598,74.6416533 318.797419,72.6958686 C320.16624,70.750084 320.701327,68.3647856 321.455421,66.1110659 C322.209427,63.8576019 323.32765,61.5465864 325.385585,60.3445835 C327.576843,59.0647063 332.621843,58.1754563 330.482459,54.5834071 C328.927863,51.9731912 323.372506,49.8644282 320.500822,50.0068105 Z" id="Path" fill="#9F616A"></path>
                        <path d="M249.647705,37.9054263 C249.647705,37.9054263 244.744756,25.2016784 251.854027,21.0485431 L253.81524,26.6675081 C253.81524,26.6675081 271.711009,15.9181861 276.3688,18.3612141 L271.956143,24.2244801 C271.956143,24.2244801 292.793677,24.2244801 294.264557,32.286473 L286.91014,32.5307741 C286.91014,32.5307741 294.754854,37.6611311 295,45.9674251 L279.310566,46.9446527 L286.91014,51.3421007 C286.91014,51.3421007 258.473037,55.2509467 251.608905,44.0130168 L249.647705,37.9054263 Z" id="Path" fill="#2F2E41"></path>
                        <path d="M203.157895,52 L215,43 C215,43 211.052632,54.2500036 215,58 L200,61 L203.157895,52 Z" id="Path" fill="#575A88"></path>
                        <path d="M337,57.5 L327.04988,50 C327.04988,50 328.580668,59.749998 325.519091,62 C322.457514,64.2499997 333.938423,65 333.938423,65 L337,57.5 Z" id="Path" fill="#575A88"></path>
                        <circle id="Oval" fill="#36AAE1" cx="105" cy="340" r="42"></circle>
                        <path d="M65.2902804,289.921998 C73.5529396,300.967692 87.9608707,304 87.9608707,304 C87.9608707,304 88.9723788,289.123696 80.7097196,278.078002 C72.4470604,267.032308 58.0391293,264 58.0391293,264 C58.0391293,264 57.0276212,278.876304 65.2902804,289.921998 Z" id="Path" fill="#3F3D56"></path>
                        <path d="M69.2469196,285.435441 C82.2256292,290.666582 89,303.971813 89,303.971813 C89,303.971813 74.7317959,308.795694 61.7530863,303.564554 C48.7743767,298.333413 42,285.028199 42,285.028199 C42,285.028199 56.2682336,280.204301 69.2469196,285.435441 Z" id="Path" fill="#36AAE1"></path>
                        <path d="M83.2100292,277.845447 C81.5736001,291.652562 90.0369883,304 90.0369883,304 C90.0369883,304 101.153542,293.961669 102.789971,280.154553 C104.4264,266.347438 95.9630117,254 95.9630117,254 C95.9630117,254 84.8464642,264.038325 83.2100292,277.845447 Z" id="Path" fill="#3F3D56"></path>
                        <path d="M89.105588,277.020411 C94.8080107,289.722964 90.325156,304 90.325156,304 C90.325156,304 76.5968367,297.682119 70.894414,284.979589 C65.1919912,272.277059 69.6748401,258 69.6748401,258 C69.6748401,258 83.4031594,264.317851 89.105588,277.020411 Z" id="Path" fill="#36AAE1"></path>
                        <circle id="Oval" fill="#F2F2F2" cx="88.5" cy="341.5" r="21.5"></circle>
                        <circle id="Oval" fill="#3F3D56" cx="81" cy="349" r="7"></circle>
                        <circle id="Oval" fill="#36AAE1" cx="271" cy="320" r="42"></circle>
                        <path d="M252.087196,259.08895 C255.68734,272.619929 268.018636,281 268.018636,281 C268.018636,281 274.512956,267.442029 270.912811,253.91105 C267.312667,240.380071 254.981371,232 254.981371,232 C254.981371,232 248.487034,245.557953 252.087196,259.08895 Z" id="Path" fill="#3F3D56"></path>
                        <path d="M257.84464,256.477689 C267.785766,266.14267 269,281 269,281 C269,281 254.096485,280.187293 244.15536,270.522311 C234.214234,260.85733 233,246 233,246 C233,246 247.903509,246.812696 257.84464,256.477689 Z" id="Path" fill="#36AAE1"></path>
                        <path d="M274.298492,254.28181 C267.544019,266.432068 270.769944,281 270.769944,281 C270.769944,281 284.947033,275.868471 291.701505,263.71819 C298.455978,251.567909 295.230059,237 295.230059,237 C295.230059,237 281.05297,242.131535 274.298492,254.28181 Z" id="Path" fill="#3F3D56"></path>
                        <path d="M279.984021,255.681979 C280.443715,269.489095 270.832352,281 270.832352,281 C270.832352,281 260.475674,270.12515 260.015979,256.318027 C259.556285,242.510905 269.167648,231 269.167648,231 C269.167648,231 279.524326,241.874856 279.984021,255.681979 Z" id="Path" fill="#36AAE1"></path>
                        <circle id="Oval" fill="#F2F2F2" cx="269.5" cy="315.5" r="21.5"></circle>
                        <circle id="Oval" fill="#3F3D56" cx="269" cy="303" r="7"></circle>
                        <rect id="Rectangle" fill="#2F2E41" x="168" y="361" width="219" height="1"></rect>
                        <ellipse id="Oval" fill="#36AAE1" cx="476" cy="108.5" rx="12" ry="9.5"></ellipse>
                        <line x1="145" y1="306" x2="164" y2="291" id="Path" fill="#3F3D56"></line>
                        <path d="M146,318 C151.795848,313.402786 157.795848,309.069453 164,305" id="Path" fill="#3F3D56"></path>
                        <path d="M159,317 C165.67076,313.740955 171.756675,309.345572 177,304" id="Path" fill="#3F3D56"></path>
                        <circle id="Oval" fill="#3F3D56" cx="110.5" cy="369.5" r="10.5"></circle>
                        <ellipse id="Oval" fill="#F2F2F2" cx="58" cy="422" rx="58" ry="7"></ellipse>
                        <path d="M370,362 C362.820298,362 357,356.179702 357,349 C357,341.820298 362.820298,336 370,336 C377.179702,336 383,341.820298 383,349 C382.991895,356.176342 377.176342,361.991895 370,362 L370,362 Z M370,337.181818 C363.472998,337.181818 358.181818,342.472998 358.181818,349 C358.181818,355.527002 363.472998,360.818182 370,360.818182 C376.527002,360.818182 381.818182,355.527002 381.818182,349 C381.810923,342.476007 376.523993,337.189077 370,337.181818 L370,337.181818 Z" id="Shape" fill="#3F3D56"></path>
                    </g>
                </g>
            </g>
        </g>
    </g>
</svg>