<?xml version="1.0" encoding="UTF-8"?>
<svg width="501px" height="411px" viewBox="0 0 501 411" version="1.1" xmlns="http://www.w3.org/2000/svg" xmlns:xlink="http://www.w3.org/1999/xlink">
    <!-- Generator: Sketch 61.1 (89650) - https://sketch.com -->
    <title>undraw_online_discussion_5wgl</title>
    <desc>Created with Sketch.</desc>
    <g id="ENTREPRISEPAGE" stroke="none" stroke-width="1" fill="none" fill-rule="evenodd">
        <g id="Entreprisepage---Desktop-HD--Entreprise-PAGE" transform="translate(-1155.000000, -2680.000000)" fill-rule="nonzero">
            <g id="Content" transform="translate(121.000000, 1047.000000)">
                <g id="Cont3" transform="translate(85.000000, 1633.000000)">
                    <g id="undraw_online_discussion_5wgl" transform="translate(949.000000, 0.000000)">
                        <polygon id="Path" fill="#F2F2F2" points="115 83 117.126182 259.077492 209 304 206.873818 127.923029"></polygon>
                        <polygon id="Path" fill="#F2F2F2" points="87.27777 69 18 210.457328 112 256 109.854386 79.9382441"></polygon>
                        <polygon id="Path" fill="#F2F2F2" points="501 267.609645 315 177 317.132897 352.977751 432.133348 409"></polygon>
                        <polygon id="Path" fill="#F2F2F2" points="216 128 218.126194 304.076971 310 349 307.873806 172.922508"></polygon>
                        <polygon id="Rectangle" fill="#36AAE1" transform="translate(418.337236, 143.133426) rotate(-2.220710) translate(-418.337236, -143.133426) " points="412.539711 135.684918 424.134345 135.685241 424.13476 150.581934 412.540126 150.581611"></polygon>
                        <path d="M371.619091,187.82954 C371.619091,187.82954 355.749056,179.978617 356.003016,186.758918 C356.256976,193.539219 372,198 372,198 L371.619091,187.82954 Z" id="Path" fill="#FFB9B9"></path>
                        <path d="M380.567269,243.831659 C380.567269,243.831659 373.01364,262.299501 370.222754,275.625969 C367.431868,288.952436 363.181502,307.292324 368.648771,320.298913 C374.11604,333.305502 389.659997,371.53233 389.820115,375.656865 C389.980233,379.781401 388.488725,383.969912 391.791982,383.841963 C395.095239,383.714013 413.07103,378.06082 413.800775,375.554112 C414.530521,373.047404 407.667806,366.704078 407.667806,366.704078 L390.72161,313.660847 L408.402389,279.10392 L421.15547,330.657241 L423.65331,395 C423.65331,395 435.91244,391.220544 437.692161,394.456195 C437.692161,394.456195 443.184654,386.808112 443.882351,383.476499 C444.580048,380.144886 441.288438,316.659014 441.288438,316.659014 C441.288438,316.659014 452.541246,244.348288 443.457278,244.700159 C434.373309,245.05203 398.792447,223.298145 380.567269,243.831659 Z" id="Path" fill="#2F2E41"></path>
                        <path d="M391.687131,380.649602 C391.687131,380.649602 383.398645,399.033676 382.613467,399.885212 C381.828288,400.736748 376.427097,409.15672 380.51135,408.997778 C384.595603,408.838837 394.239432,404.358648 401.33768,397.514589 C408.435927,390.67053 417.794671,378.812633 416.946168,378.024677 C416.097666,377.23672 410.28466,375 410.28466,375 L391.687131,380.649602 Z" id="Path" fill="#2F2E41"></path>
                        <path d="M424.950682,391.475004 C424.950682,391.475004 424.43695,399.640407 422.888839,402.957036 C421.340727,406.273664 421.535967,411.15398 425.731646,410.996272 C429.927325,410.838564 440.771012,408.801752 440.771012,408.801752 C440.771012,408.801752 441.414906,403.889891 440.543233,403.108047 C439.671561,402.326204 435.957069,393.505119 437.53772,391.001875 C439.11837,388.498631 424.950682,391.475004 424.950682,391.475004 Z" id="Path" fill="#2F2E41"></path>
                        <path d="M431.004897,122 C431.004897,122 439.823436,135.539404 443.261019,138.673086 C446.698602,141.806768 437.027487,148.706237 437.027487,148.706237 L419.718043,151 C419.718043,151 419.935802,135.482885 419.044322,133.884435 C418.152843,132.285984 431.004897,122 431.004897,122 Z" id="Path" fill="#FFB9B9"></path>
                        <path d="M416.362794,139.789037 C416.362794,139.789037 419.921833,146.28412 423.224716,146.1557 C426.527598,146.027281 443.611558,138.72954 444.341241,136.213621 C445.070923,133.697701 450,154.235634 450,154.235634 L408.196802,228 L398,220.933826 L402.940728,177.624178 L406.998493,154.249262 L416.362794,139.789037 Z" id="Path" fill="#36AAE1"></path>
                        <path d="M445.836366,205.422563 C444.169911,208.903143 443.129105,212.532747 443.273425,216.248515 C443.279824,216.4133 443.286223,216.578064 443.300881,216.742511 C443.696219,224.367937 446.509772,233.186945 447.519173,239.600406 C448.251602,244.20103 448.043165,247.559138 445.346597,248.348414 C438.809048,250.251791 446.299787,251.612037 421.006796,260.017501 C395.713806,268.422965 391.299833,261.167671 391.235836,259.519883 C391.171839,257.872095 394.817809,245.353946 393.960619,244.562023 C393.103429,243.7701 381.96671,254.928004 378.601938,253.407992 C375.237166,251.88798 378.217946,243.521268 378.217946,243.521268 C378.217946,243.521268 385.797892,225.900035 385.637895,221.780541 C385.477898,217.661047 397.119808,198.232286 397.119808,198.232286 L405.038175,146.767476 C405.038175,146.767476 408.082953,140.048531 412.176921,139.064894 C416.27089,138.081257 419.66765,140.425124 419.66765,140.425124 L412.816869,155.542766 L405.588916,182.226836 L406.798104,192.081628 C406.798104,192.081628 415.203241,174.428421 420.723603,167.613632 C426.243965,160.798843 438.013869,144.665627 438.013869,144.665627 C438.013869,144.665627 440.761731,135.408496 438.687364,132.642091 C436.612686,129.867492 447.340198,129.452152 451.914158,140.826919 C454.338377,146.855525 458.27424,155.845623 460.739828,164.216025 C462.936897,171.631386 463.97472,178.563572 461.798063,182.525994 C458.471277,188.579246 450.102723,196.535725 445.836366,205.422563 Z" id="Path" fill="#575A89"></path>
                        <path d="M461.767897,182.238005 C458.357575,188.255674 449.778996,196.165394 445.405558,205 C444.263269,201.015271 442.869731,196.892382 442.869731,196.892382 C442.869731,196.892382 437.524923,169.203453 453.334681,162.047579 C455.954263,161.802333 458.574217,162.511148 460.683091,164.035654 C462.935314,171.407431 463.999185,178.298873 461.767897,182.238005 Z" id="Path" fill="#000000" opacity="0.1"></path>
                        <path d="M399.735679,181 L386.803315,184.737967 L368.847226,185.428142 L367,200.893334 L396.509264,203 C396.509264,203 403.879882,182.461142 399.735679,181 Z" id="Path" fill="#575A89"></path>
                        <path d="M422.035506,234 C422.035506,234 404.613755,236.78049 408.590086,241.82375 C412.566417,246.867011 428,241.564886 428,241.564886 L422.035506,234 Z" id="Path" fill="#FFB9B9"></path>
                        <path d="M442.774376,217 C443.170402,224.763479 445.988845,233.74215 447,240.271723 C441.418057,245.6326 436.109969,250.361057 434.109545,250.439774 C429.976407,250.602411 423.331333,250.02382 420.883506,250.960217 C418.435678,251.896615 417,235.991756 417,235.991756 C417,235.991756 418.460927,230.893842 424.977784,228.117193 C429.376518,226.238734 437.808234,221.143758 442.774376,217 Z" id="Path" fill="#000000" opacity="0.1"></path>
                        <path d="M452.825011,157.05558 C452.825011,157.05558 466.721373,154.864094 465.970642,178.002988 C465.219911,201.141881 467.435456,215.911866 461.846419,220.256107 C456.257382,224.600348 438.102671,244.289807 433.996775,244.449594 C429.890879,244.60938 423.289598,244.040931 420.857904,244.960915 C418.42621,245.880898 417,230.254832 417,230.254832 C417,230.254832 418.451298,225.246279 424.925197,222.5183 C431.399096,219.790322 446.651223,210.117965 446.523852,206.821522 C446.396481,203.525079 442.665942,192.115439 442.665942,192.115439 C442.665942,192.115439 437.477356,164.25562 452.825011,157.05558 Z" id="Path" fill="#575A89"></path>
                        <circle id="Oval" fill="#FFB9B9" cx="419" cy="124" r="18"></circle>
                        <path d="M406.748905,97.7077756 C406.307141,98.0893032 405.778117,98.3554166 405.208933,98.4824236 C404.614109,98.5887166 404.045249,98.1937278 403.935435,97.5981689 C403.516395,98.469271 403.043611,99.3976794 402.188065,99.8446575 C401.332518,100.291636 400.009586,99.916834 399.886265,98.9576819 C399.76135,99.6859454 399.439932,100.366037 398.956859,100.924221 C398.426037,101.431547 397.46343,101.55959 397,100.98979 C397.374667,103.04223 397.143416,105.152954 397.261078,107.236138 C397.378739,109.319323 397.932911,111.527798 399.503041,112.897638 C401.792898,114.895388 405.236281,114.402339 408.248403,114.023855 C408.703906,113.928035 409.176536,113.953951 409.618894,114.099004 C410.746727,114.580671 410.695563,116.154413 410.71077,117.383177 C410.900735,121.835195 414.270673,125.498598 418.682126,126.048705 C419.877695,126.233686 421.097617,125.935243 422.073753,125.218973 C422.928969,124.49235 423.365816,123.308038 424.345783,122.762195 C425.93986,121.87429 427.873175,123.169201 429.038653,124.575184 C430.204131,125.981167 431.352788,127.710655 433.158276,127.968023 C435.546145,128.308394 437.364854,125.869071 438.257144,123.62296 C440.744184,117.262982 440.563083,110.165689 437.754932,103.941476 C432.76902,93.0469293 415.736968,91.3237448 406.748905,97.7077756 Z" id="Path" fill="#2F2E41"></path>
                        <circle id="Oval" fill="#36AAE1" cx="310.5" cy="75.5" r="37.5"></circle>
                        <path d="M269.289475,35.0931729 C277.849883,43.9297399 291,45 291,45 C291,45 290.270938,31.7433838 281.710525,22.9068271 C273.150111,14.0702705 260,13 260,13 C260,13 260.729062,26.2566162 269.289475,35.0931729 Z" id="Path" fill="#3F3D56"></path>
                        <path d="M271.765241,30.9783437 C283.639363,34.2280409 291,45.384104 291,45.384104 C291,45.384104 279.108882,51.271364 267.234759,48.0216668 C255.360637,44.7719695 248,33.6159064 248,33.6159064 C248,33.6159064 259.891118,27.7286202 271.765241,30.9783437 Z" id="Path" fill="#36AAE1"></path>
                        <path d="M284.000554,22.5562682 C284.082009,34.98267 293.14749,45 293.14749,45 C293.14749,45 302.080902,34.8701389 301.999446,22.4437318 C301.917991,10.0173247 292.85251,0 292.85251,0 C292.85251,0 283.919093,10.1298611 284.000554,22.5562682 Z" id="Path" fill="#3F3D56"></path>
                        <path d="M289.528733,21.5404869 C295.924588,32.0338965 293.580729,45 293.580729,45 C293.580729,45 280.867136,40.9529279 274.47127,30.4595183 C268.075404,19.9661086 270.419275,7 270.419275,7 C270.419275,7 283.132878,11.0470772 289.528733,21.5404869 Z" id="Path" fill="#36AAE1"></path>
                        <circle id="Oval" fill="#F2F2F2" cx="306.5" cy="72.5" r="19.5"></circle>
                        <circle id="Oval" fill="#3F3D56" cx="297.5" cy="78.5" r="6.5"></circle>
                        <circle id="Oval" fill="#36AAE1" cx="108.5" cy="370.5" r="37.5"></circle>
                        <path d="M91.9836453,315.771931 C95.2409202,327.646058 106.397817,335 106.397817,335 C106.397817,335 112.273627,323.102186 109.016352,311.228059 C105.759077,299.353932 94.6021855,292 94.6021855,292 C94.6021855,292 88.7263757,303.897809 91.9836453,315.771931 Z" id="Path" fill="#3F3D56"></path>
                        <path d="M97.0841246,313.280239 C105.920681,321.840651 107,335 107,335 C107,335 93.7524364,334.280179 84.9158754,325.719761 C76.0793143,317.159344 75,304 75,304 C75,304 88.2475688,304.719821 97.0841246,313.280239 Z" id="Path" fill="#36AAE1"></path>
                        <path d="M110.802516,311.317965 C104.827401,322.087513 107.681103,335 107.681103,335 C107.681103,335 120.222372,330.451598 126.197487,319.68203 C132.172602,308.912461 129.318894,296 129.318894,296 C129.318894,296 116.777625,300.548417 110.802516,311.317965 Z" id="Path" fill="#3F3D56"></path>
                        <path d="M116.985618,313.213786 C117.399349,325.640185 108.74912,336 108.74912,336 C108.74912,336 99.4281067,326.212634 99.0143814,313.786209 C98.600656,301.359783 107.250885,291 107.250885,291 C107.250885,291 116.571893,300.787382 116.985618,313.213786 Z" id="Path" fill="#36AAE1"></path>
                        <circle id="Oval" fill="#F2F2F2" cx="106.5" cy="366.5" r="19.5"></circle>
                        <circle id="Oval" fill="#3F3D56" cx="113.5" cy="356.5" r="6.5"></circle>
                        <rect id="Rectangle" fill="#2F2E41" x="5" y="407" width="195" height="1"></rect>
                        <rect id="Rectangle" fill="#2F2E41" x="294" y="409" width="195" height="1"></rect>
                        <path d="M50.2170192,408 L49.2929937,407.520494 C61.2931499,384.211711 54.8762533,353.941638 47.3804603,332.652833 C42.2905938,318.343623 35.7985676,304.577777 28,291.558044 L28.8788417,291 C36.7179,304.085911 43.2437711,317.921814 48.3603379,332.303927 C55.9251777,353.787585 62.3872738,384.359642 50.2170192,408 Z" id="Path" fill="#2F2E41"></path>
                        <polygon id="Rectangle" fill="#2F2E41" transform="translate(56.037915, 310.159614) rotate(-79.644778) translate(-56.037915, -310.159614) " points="37.237634 309.636112 74.8380624 309.6409 74.838195 310.683115 37.2377666 310.678328"></polygon>
                        <polygon id="Rectangle" fill="#2F2E41" transform="translate(31.016613, 342.193670) rotate(-42.939680) translate(-31.016613, -342.193670) " points="30.4861127 316.568681 31.5287151 316.569055 31.547113 367.818659 30.5045106 367.818285"></polygon>
                        <polygon id="Rectangle" fill="#2F2E41" transform="translate(68.288678, 376.834358) rotate(-54.137150) translate(-68.288678, -376.834358) " points="53.1760568 376.307953 83.4009428 376.318283 83.401299 377.360763 53.176413 377.350432"></polygon>
                        <circle id="Oval" fill="#36AAE1" cx="62" cy="277" r="5"></circle>
                        <circle id="Oval" fill="#3F3D56" cx="5" cy="317" r="5"></circle>
                        <circle id="Oval" fill="#3F3D56" cx="28" cy="322" r="5"></circle>
                        <circle id="Oval" fill="#36AAE1" cx="18" cy="342" r="5"></circle>
                        <circle id="Oval" fill="#3F3D56" cx="83" cy="355" r="5"></circle>
                        <circle id="Oval" fill="#3F3D56" cx="66" cy="361" r="5"></circle>
                        <circle id="Oval" fill="#3F3D56" cx="78" cy="378" r="5"></circle>
                        <circle id="Oval" fill="#3F3D56" cx="23" cy="283" r="5"></circle>
                        <rect id="Rectangle" fill="#3F3D56" x="107" y="93" width="251" height="151"></rect>
                        <circle id="Oval" fill="#36AAE1" cx="116.5" cy="99.5" r="2.5"></circle>
                        <circle id="Oval" fill="#36AAE1" cx="125.5" cy="99.5" r="2.5"></circle>
                        <circle id="Oval" fill="#36AAE1" cx="135.5" cy="99.5" r="2.5"></circle>
                        <rect id="Rectangle" fill="#2F2E41" x="107" y="105" width="251" height="1"></rect>
                        <polygon id="Path" fill="#5D3CFF" points="253 136 253 182.890756 185.191768 182.890756 172.664634 198 174.095122 182.890756 168 182.890756 168 136"></polygon>
                        <rect id="Rectangle" fill="#000000" opacity="0.1" x="222" y="152" width="31" height="31"></rect>
                        <polygon id="Path" fill="#36AAE1" points="229 158 314 158 314 204.890756 307.903841 204.890756 309.335366 220 296.809787 204.890756 229 204.890756"></polygon>
                        <ellipse id="Oval" fill="#000000" opacity="0.1" cx="173" cy="203" rx="19" ry="2"></ellipse>
                        <ellipse id="Oval" fill="#000000" opacity="0.1" cx="309.5" cy="228" rx="21.5" ry="2"></ellipse>
                    </g>
                </g>
            </g>
        </g>
    </g>
</svg>