<?xml version="1.0" encoding="UTF-8"?>
<svg width="598px" height="447px" viewBox="0 0 598 447" version="1.1" xmlns="http://www.w3.org/2000/svg" xmlns:xlink="http://www.w3.org/1999/xlink">
    <!-- Generator: Sketch 61.1 (89650) - https://sketch.com -->
    <title>undraw_good_team_m7uu</title>
    <desc>Created with Sketch.</desc>
    <g id="ENTREPRISEPAGE" stroke="none" stroke-width="1" fill="none" fill-rule="evenodd">
        <g id="Entreprisepage---Desktop-HD--Entreprise-PAGE" transform="translate(-121.000000, -1805.000000)">
            <g id="Content" transform="translate(121.000000, 1047.000000)">
                <g id="Cont2" transform="translate(0.000000, 758.000000)">
                    <g id="undraw_good_team_m7uu">
                        <line x1="209" y1="137.5" x2="286" y2="137.5" id="Path" stroke="#3F3D56" stroke-width="2"></line>
                        <ellipse id="Oval" fill="#2F2E41" fill-rule="nonzero" transform="translate(110.825161, 219.893962) rotate(-69.082170) translate(-110.825161, -219.893962) " cx="110.825161" cy="219.893962" rx="21.1923897" ry="6.6458179"></ellipse>
                        <path d="M595.544867,273.29769 C603.944117,335.945613 592.506882,398.661709 534.332698,423.083208 C476.158513,447.504707 409.245146,420.038509 384.877511,361.735745 C360.509876,303.432982 418.003727,268.548019 446.08968,211.950226 C503.123886,97.0169945 569.461197,78.7459369 595.544867,273.29769 Z" id="Path" fill="#F2F2F2" fill-rule="nonzero"></path>
                        <ellipse id="Oval" fill="#3F3D56" fill-rule="nonzero" cx="491.5" cy="426.5" rx="91.5" ry="12.5"></ellipse>
                        <polygon id="Rectangle" fill="#2F2E41" fill-rule="nonzero" transform="translate(444.057150, 397.853714) rotate(-105.452270) translate(-444.057150, -397.853714) " points="437.614168 386.329546 450.491603 386.334306 450.500132 409.377882 437.622697 409.373122"></polygon>
                        <ellipse id="Oval" fill="#2F2E41" fill-rule="nonzero" transform="translate(429.915045, 398.984924) rotate(-15.452270) translate(-429.915045, -398.984924) " cx="429.915045" cy="398.984924" rx="4.01923041" ry="10.7311964"></ellipse>
                        <ellipse id="Oval" fill="#2F2E41" fill-rule="nonzero" transform="translate(494.752916, 351.134151) rotate(-82.281110) translate(-494.752916, -351.134151) " cx="494.752916" cy="351.134151" rx="21.1957282" ry="6.64476317"></ellipse>
                        <circle id="Oval" fill="#2F2E41" fill-rule="nonzero" cx="491" cy="391" r="42"></circle>
                        <polygon id="Rectangle" fill="#2F2E41" fill-rule="nonzero" transform="translate(444.057151, 390.341108) rotate(-105.452270) translate(-444.057151, -390.341108) " points="437.614169 378.816939 450.491604 378.8217 450.500133 401.865276 437.622697 401.860516"></polygon>
                        <ellipse id="Oval" fill="#2F2E41" fill-rule="nonzero" transform="translate(429.915046, 391.472320) rotate(-15.452270) translate(-429.915046, -391.472320) " cx="429.915046" cy="391.47232" rx="4.01923041" ry="10.7311964"></ellipse>
                        <circle id="Oval" fill="#FFFFFF" fill-rule="nonzero" cx="501.5" cy="366.5" r="14.5"></circle>
                        <circle id="Oval" fill="#3F3D56" fill-rule="nonzero" cx="507" cy="360" r="5"></circle>
                        <path d="M539.81018,418.972196 C555.678667,418.196656 567.831999,403.702268 566.955409,386.598065 C566.07882,369.493861 552.504254,356.256871 536.635773,357.032411 C520.767291,357.80795 518.277197,369.972528 519.15377,387.076732 C520.030343,404.180936 523.941699,419.747736 539.81018,418.972196 Z" id="Path" fill="#36AAE1" fill-rule="nonzero"></path>
                        <path d="M472.966583,372.968749 C467.380122,373.390493 462.485762,369.494291 462.03362,364.265459 C461.581478,359.036627 465.7427,354.454397 471.328908,354.029728 C476.916352,353.606429 478.440137,357.758412 478.892378,362.988282 C479.344619,368.218151 478.554021,372.545455 472.966583,372.968749 Z" id="Path" fill="#FFFFFF" fill-rule="nonzero"></path>
                        <polyline id="Path" stroke="#3F3D56" stroke-width="2" points="26 194.363465 263.056008 194.363465 299.808574 212.346785 358.366888 241 396.654315 169 505 169"></polyline>
                        <circle id="Oval" fill="#36AAE1" fill-rule="nonzero" cx="119.5" cy="201.5" r="7.5"></circle>
                        <circle id="Oval" fill="#36AAE1" fill-rule="nonzero" cx="188.5" cy="193.5" r="7.5"></circle>
                        <circle id="Oval" fill="#36AAE1" fill-rule="nonzero" cx="299.5" cy="212.5" r="7.5"></circle>
                        <circle id="Oval" fill="#36AAE1" fill-rule="nonzero" cx="458.5" cy="168.5" r="7.5"></circle>
                        <circle id="Oval" fill="#36AAE1" fill-rule="nonzero" cx="381.5" cy="197.5" r="7.5"></circle>
                        <circle id="Oval" stroke="#3F3D56" stroke-width="2" cx="229" cy="312" r="8"></circle>
                        <ellipse id="Oval" fill="#3F3D56" fill-rule="nonzero" cx="91.5" cy="434.5" rx="91.5" ry="12.5"></ellipse>
                        <circle id="Oval" fill="#2F2E41" fill-rule="nonzero" cx="86" cy="374" r="42"></circle>
                        <rect id="Rectangle" fill="#2F2E41" fill-rule="nonzero" x="67" y="407" width="13" height="23"></rect>
                        <rect id="Rectangle" fill="#2F2E41" fill-rule="nonzero" x="93" y="407" width="13" height="23"></rect>
                        <ellipse id="Oval" fill="#2F2E41" fill-rule="nonzero" cx="77.5" cy="430" rx="10.5" ry="4"></ellipse>
                        <ellipse id="Oval" fill="#2F2E41" fill-rule="nonzero" cx="103.5" cy="430" rx="10.5" ry="4"></ellipse>
                        <circle id="Oval" fill="#FFFFFF" fill-rule="nonzero" cx="87.5" cy="362.5" r="14.5"></circle>
                        <circle id="Oval" fill="#3F3D56" fill-rule="nonzero" cx="88" cy="363" r="5"></circle>
                        <path d="M45.6215419,334.630365 C42.2268524,319.216238 53.0783064,303.640916 69.8589469,299.841905 C86.6395874,296.042894 102.994913,305.458799 106.389608,320.872931 C109.784303,336.287063 98.6631582,341.972055 81.882523,345.771066 C65.1018879,349.570077 49.0162102,350.044491 45.6215419,334.630365 Z" id="Path" fill="#36AAE1" fill-rule="nonzero"></path>
                        <circle id="Oval" fill="#2F2E41" fill-rule="nonzero" cx="72" cy="251" r="42"></circle>
                        <rect id="Rectangle" fill="#2F2E41" fill-rule="nonzero" x="52" y="285" width="13" height="23"></rect>
                        <rect id="Rectangle" fill="#2F2E41" fill-rule="nonzero" x="78" y="285" width="13" height="23"></rect>
                        <ellipse id="Oval" fill="#2F2E41" fill-rule="nonzero" cx="62.5" cy="309" rx="10.5" ry="4"></ellipse>
                        <ellipse id="Oval" fill="#2F2E41" fill-rule="nonzero" cx="88.5" cy="308" rx="10.5" ry="4"></ellipse>
                        <circle id="Oval" fill="#FFFFFF" fill-rule="nonzero" cx="72.5" cy="241.5" r="14.5"></circle>
                        <circle id="Oval" fill="#3F3D56" fill-rule="nonzero" cx="73" cy="241" r="5"></circle>
                        <path d="M30.6215419,212.630365 C27.2268524,197.216238 38.0783064,181.640916 54.8589469,177.841905 C71.6395874,174.042894 87.9949131,183.458799 91.389608,198.872931 C94.7843029,214.287063 83.6631582,219.972055 66.882523,223.771066 C50.1018879,227.570077 34.0162102,228.044491 30.6215419,212.630365 Z" id="Path" fill="#36AAE1" fill-rule="nonzero"></path>
                        <ellipse id="Oval" fill="#2F2E41" fill-rule="nonzero" transform="translate(24.018711, 232.236108) rotate(-64.625740) translate(-24.018711, -232.236108) " cx="24.0187105" cy="232.236108" rx="6.65241845" ry="21.1713733"></ellipse>
                        <path d="M50,268.001151 C50,272.034851 60.7989024,280 72.7817965,280 C84.7646906,280 96,268.643872 96,264.610171 C96,260.576471 84.7646906,265.392705 72.7817965,265.392705 C60.7989024,265.392705 50,263.967461 50,268.001151 Z" id="Path" fill="#FFFFFF" fill-rule="nonzero"></path>
                        <rect id="Rectangle" fill="#36AAE1" fill-rule="nonzero" x="448" y="303" width="68" height="35"></rect>
                        <rect id="Rectangle" stroke="#3F3D56" stroke-width="2" x="442" y="308" width="68" height="35"></rect>
                        <rect id="Rectangle" fill="#5D3CFF" fill-rule="nonzero" x="121" y="107" width="19" height="19"></rect>
                        <rect id="Rectangle" stroke="#3F3D56" stroke-width="2" x="117" y="100" width="19" height="19"></rect>
                        <circle id="Oval" fill="#2F2E41" fill-rule="nonzero" cx="485" cy="102" r="42"></circle>
                        <polygon id="Rectangle" fill="#2F2E41" fill-rule="nonzero" transform="translate(506.124388, 143.466523) rotate(169.739174) translate(-506.124388, -143.466523) " points="499.696877 131.931425 512.557719 131.928176 512.551898 155.001621 499.691056 155.00487"></polygon>
                        <polygon id="Rectangle" fill="#2F2E41" fill-rule="nonzero" transform="translate(480.816699, 148.057240) rotate(169.738940) translate(-480.816699, -148.057240) " points="474.389208 136.522177 487.250011 136.518928 487.24419 159.592304 474.383386 159.595553"></polygon>
                        <ellipse id="Oval" fill="#2F2E41" fill-rule="nonzero" transform="translate(480.662079, 162.264043) rotate(-40.261060) translate(-480.662079, -162.264043) " cx="480.662079" cy="162.264043" rx="10.723298" ry="4.02219782"></ellipse>
                        <ellipse id="Oval" fill="#2F2E41" fill-rule="nonzero" transform="translate(505.443875, 157.771362) rotate(-40.261060) translate(-505.443875, -157.771362) " cx="505.443875" cy="157.771362" rx="10.723298" ry="4.02219782"></ellipse>
                        <circle id="Oval" fill="#FFFFFF" fill-rule="nonzero" cx="482.5" cy="90.5" r="14.5"></circle>
                        <circle id="Oval" fill="#3F3D56" fill-rule="nonzero" cx="476" cy="86" r="5"></circle>
                        <path d="M518.978629,55.5673041 C519.608227,39.9537398 506.249589,26.7289756 489.141257,26.0289303 C472.032924,25.3288851 457.653474,37.418659 457.02386,53.0322233 C456.394246,68.6457876 468.286721,72.1933077 485.395059,72.8933529 C502.503397,73.5933982 518.349015,71.1808577 518.978629,55.5673041 Z" id="Path" fill="#36AAE1" fill-rule="nonzero"></path>
                        <ellipse id="Oval" fill="#2F2E41" fill-rule="nonzero" transform="translate(446.413701, 93.949202) rotate(-77.089900) translate(-446.413701, -93.949202) " cx="446.413701" cy="93.949202" rx="6.65369181" ry="21.1672935"></ellipse>
                        <ellipse id="Oval" fill="#2F2E41" fill-rule="nonzero" transform="translate(529.508915, 107.787723) rotate(-77.089900) translate(-529.508915, -107.787723) " cx="529.508915" cy="107.787723" rx="6.65369181" ry="21.1672935"></ellipse>
                        <path d="M496.847725,118.215389 C497.452804,121.731838 496.228749,125.320781 493.636649,127.630299 C491.04455,129.939817 487.478208,130.619038 484.281031,129.412108 C481.083853,128.205177 478.741567,125.295455 478.136489,121.779006 C477.201118,116.343048 481.19605,114.419483 486.363014,113.435416 C491.529979,112.45135 495.912354,112.779431 496.847725,118.215389 Z" id="Path" fill="#FFFFFF" fill-rule="nonzero"></path>
                        <line x1="381" y1="53" x2="430" y2="91" id="Path" stroke="#3F3D56" stroke-width="2"></line>
                        <ellipse id="Oval" fill="#5D3CFF" fill-rule="nonzero" cx="359" cy="36.5" rx="36" ry="36.5"></ellipse>
                        <ellipse id="Oval" fill="#2F2E41" fill-rule="nonzero" transform="translate(478.864266, 361.207096) rotate(-82.281110) translate(-478.864266, -361.207096) " cx="478.864266" cy="361.207096" rx="21.1957282" ry="6.64476317"></ellipse>
                        <circle id="Oval" fill="#36AAE1" fill-rule="nonzero" cx="36.5" cy="422.5" r="7.5"></circle>
                        <rect id="Rectangle" fill="#5D3CFF" fill-rule="nonzero" x="138" y="413" width="19" height="19"></rect>
                        <circle id="Oval" fill="#36AAE1" fill-rule="nonzero" cx="137.5" cy="425.5" r="7.5"></circle>
                        <circle id="Oval" fill="#36AAE1" fill-rule="nonzero" cx="247.5" cy="136.5" r="7.5"></circle>
                        <circle id="Oval" fill="#5D3CFF" fill-rule="nonzero" cx="389.5" cy="364.5" r="3.5"></circle>
                        <line x1="406.5" y1="423" x2="406.5" y2="383" id="Path" stroke="#3F3D56" stroke-width="2" fill="#3F3D56" fill-rule="nonzero"></line>
                        <circle id="Oval" fill="#3F3D56" fill-rule="nonzero" cx="407.5" cy="382.5" r="5.5"></circle>
                        <path d="M407,408 C407,408 406.209302,390.086173 390,392.168413" id="Path" fill="#3F3D56" fill-rule="nonzero"></path>
                    </g>
                </g>
            </g>
        </g>
    </g>
</svg>