<?xml version="1.0" encoding="UTF-8"?>
<svg width="576px" height="470px" viewBox="0 0 576 470" version="1.1" xmlns="http://www.w3.org/2000/svg" xmlns:xlink="http://www.w3.org/1999/xlink">
    <!-- Generator: Sketch 61 (89581) - https://sketch.com -->
    <title>undraw_code_typing_7jnv</title>
    <desc>Created with Sketch.</desc>
    <g id="Page-1" stroke="none" stroke-width="1" fill="none" fill-rule="evenodd">
        <g id="undraw_code_typing_7jnv" transform="translate(288.000000, 235.000000) rotate(-360.000000) translate(-288.000000, -235.000000) translate(0.000000, 0.000000)" fill-rule="nonzero">
            <path d="M521.425191,188.098087 C494.227871,80.7174431 400.252538,3.20363498 289.945827,0.0946230642 C231.629982,-1.54901871 170.26543,17.870345 125.587511,85.8257663 C45.720905,207.303426 130.495501,291.248215 189.598105,331.137111 C218.15183,350.447141 243.880326,373.665792 266.038382,400.120549 C305.960268,447.68678 382.760872,506.794508 474.226922,414.181793 C540.521633,347.055976 539.541308,259.624206 521.425191,188.098087 Z" id="Path" fill="#F2F2F2"></path>
            <polygon id="Path" fill="#000000" opacity="0.1" points="401 289.18125 456.909091 234 401 178.81875 418.045455 162 491 234 418.045455 306 401 289.18125"></polygon>
            <path d="M240,236 L262.50996,236 L262.50996,214 L240,214 L240,236 Z M353,214 L330.49004,214 L330.49004,236 L353,236 L353,214 Z M285.24502,236 L307.75498,236 L307.75498,214 L285.24502,214 L285.24502,236 Z" id="Shape" fill="#000000" opacity="0.1"></path>
            <polygon id="Path" fill="#000000" opacity="0.1" points="210 288.18125 154.034091 233 209.943182 177.81875 192.897727 161 120 233 192.954545 305"></polygon>
            <path d="M573,428.681984 C573,437.709155 445.625009,469 288.5,469 C131.374991,469 4,437.709155 4,428.681984 C4,419.654813 131.374991,436.309717 288.5,436.309717 C445.625009,436.309717 573,419.654808 573,428.681984 Z" id="Path" fill="#3F3D56"></path>
            <path d="M576,429.681984 C576,438.709155 447.729579,470 289.5,470 C131.270421,470 3,438.709155 3,429.681984 C3,420.654813 131.270421,437.309717 289.5,437.309717 C447.729579,437.309717 576,420.654808 576,429.681984 Z" id="Path" fill="#000000" opacity="0.1"></path>
            <ellipse id="Oval" fill="#3F3D56" cx="286.5" cy="429" rx="286.5" ry="16"></ellipse>
            <path d="M352,347 C352,382.927734 374.363278,412 402,412" id="Path" fill="#3F3D56"></path>
            <path d="M402,414 C402,376.414066 428.38867,346 461,346" id="Path" fill="#36AAE1"></path>
            <path d="M369,351 C369,385.269532 384.207029,413 403,413" id="Path" fill="#36AAE1"></path>
            <path d="M403,414 C403,366.464846 432.072246,328 468,328" id="Path" fill="#5D3CFF"></path>
            <path d="M389,413.431725 C389,413.431725 396.524871,413.236123 398.792676,411.873186 C401.060481,410.51025 410.367821,408.88283 410.93041,411.068683 C411.492998,413.254536 422.238889,421.940114 413.743347,421.997948 C405.247805,422.055783 394.003489,420.881087 391.740045,419.717434 C389.476602,418.55378 389,413.431725 389,413.431725 Z" id="Path" fill="#A8A8A8"></path>
            <path d="M413.896695,420.110403 C405.40056,420.17786 394.155466,418.808186 391.891864,417.451393 C390.168013,416.418129 389.481073,412.710526 389.25123,411 C389.092051,411.006734 389,411.009636 389,411.009636 C389,411.009636 389.476641,416.981809 391.740249,418.338596 C394.003856,419.695384 405.248945,421.065057 413.74508,420.997607 C416.197576,420.978143 417.044712,420.119545 416.998196,418.847881 C416.657486,419.616111 415.722117,420.095865 413.896695,420.110403 Z" id="Path" fill="#000000" opacity="0.2"></path>
            <path d="M486,217.597835 C486,217.597835 467.497346,202.759185 466.092919,208.198529 C464.688493,213.637873 479.669027,226 479.669027,226 L486,217.597835 Z" id="Path" fill="#FFB9B9"></path>
            <path d="M486,217.597835 C486,217.597835 467.497346,202.759185 466.092919,208.198529 C464.688493,213.637873 479.669027,226 479.669027,226 L486,217.597835 Z" id="Path" fill="#000000" opacity="0.1"></path>
            <path d="M541.520028,178 C541.520028,178 520.331471,213.913138 519.88065,219.043602 C519.42983,224.174065 519.429824,224.601587 517.626547,224.174049 C515.82327,223.746511 491.028147,221.18129 488.774043,222.036366 C486.519939,222.891441 482.011738,216.905918 482.011738,216.905918 C482.011738,216.905918 473.446155,225.029124 475.249432,226.739275 C477.05271,228.449426 482.462553,229.304485 483.364206,231.442174 C484.265859,233.579863 485.618309,235.717552 489.67569,235.290014 C493.733071,234.862476 521.233113,242.130607 524.839667,240.847994 C528.446221,239.56538 529.347868,237.427692 531.151151,237.427692 C532.954434,237.427692 536.560994,235.717546 536.560994,235.290008 C536.560994,234.862471 549.183963,212.202987 549.183963,212.202987 C549.183963,212.202987 564.061042,181.420296 541.520028,178 Z" id="Path" fill="#D0CDE1"></path>
            <path d="M541.520028,178 C541.520028,178 520.331471,213.913138 519.88065,219.043602 C519.42983,224.174065 519.429824,224.601587 517.626547,224.174049 C515.82327,223.746511 491.028147,221.18129 488.774043,222.036366 C486.519939,222.891441 482.011738,216.905918 482.011738,216.905918 C482.011738,216.905918 473.446155,225.029124 475.249432,226.739275 C477.05271,228.449426 482.462553,229.304485 483.364206,231.442174 C484.265859,233.579863 485.618309,235.717552 489.67569,235.290014 C493.733071,234.862476 521.233113,242.130607 524.839667,240.847994 C528.446221,239.56538 529.347868,237.427692 531.151151,237.427692 C532.954434,237.427692 536.560994,235.717546 536.560994,235.290008 C536.560994,234.862471 549.183963,212.202987 549.183963,212.202987 C549.183963,212.202987 564.061042,181.420296 541.520028,178 Z" id="Path" fill="#000000" opacity="0.1"></path>
            <path d="M508.984875,151.456034 C508.792652,153.893728 508.831429,156.344546 509.100672,158.774704 C509.786982,164.048527 512.176771,169.545929 509.919351,174.468766 C509.09997,176.25562 507.711746,177.812578 506.955701,179.620911 C505.355211,183.449006 506.80618,187.694916 506.588636,191.769225 C506.307611,197.032334 503.0125,202.103802 498,204.987938 C506.563618,205.258205 514.707729,200.956893 520.096151,195.095547 C525.484573,189.234201 528.485364,181.964169 530.734994,174.690384 C531.891209,171.274478 532.632401,167.727896 532.942106,164.129415 C533.121495,162.062186 532.882945,159.979523 532.241109,158.009369 C531.449536,156.084632 530.407333,154.276489 529.142393,152.633332 C527.793154,150.706168 526.40685,148.741131 524.41618,147.307248 C521.964284,145.541171 517.236319,143.767935 513.983668,144.024944 C509.993952,144.340191 509.152761,148.642988 508.984875,151.456034 Z" id="Path" fill="#2F2E41"></path>
            <path d="M522,166.806498 C522,166.806498 527.303568,185.048763 522.964299,190.194014 C518.625029,195.339266 549,187.855261 549,187.855261 C549,187.855261 534.053577,173.355002 541.285717,164 L522,166.806498 Z" id="Path" fill="#FFB9B9"></path>
            <path d="M522,166.806498 C522,166.806498 527.303568,185.048763 522.964299,190.194014 C518.625029,195.339266 549,187.855261 549,187.855261 C549,187.855261 534.053577,173.355002 541.285717,164 L522,166.806498 Z" id="Path" fill="#000000" opacity="0.1"></path>
            <polygon id="Path" fill="#36AAE1" points="401 279.18125 456.909091 224 401 168.81875 418.045455 152 491 224 418.045455 296 401 279.18125"></polygon>
            <polygon id="Path" fill="#FFB9B9" points="509 394.437512 509 407.125351 514.892857 415 520 412.37493 518.428571 394"></polygon>
            <path d="M510.511259,410.213255 C510.511259,410.213255 508.700138,404.294981 505.530748,408.522296 C502.361357,412.749612 499.191914,422.049781 497.380817,422.472515 C495.56972,422.89525 482.892052,436 495.569696,436 C508.247341,436 512.322332,430.50446 512.322332,430.50446 C512.322332,430.50446 525,425.854384 525,425.008915 C525,424.163447 523.18888,408.522296 522.283354,408.522296 C521.377829,408.522296 520.925014,411.481436 518.661166,411.481436 C516.397318,411.481436 510.511259,410.213255 510.511259,410.213255 Z" id="Path" fill="#2F2E41"></path>
            <polygon id="Path" fill="#FFB9B9" points="537.458358 400.974391 537 414.12867 548 419 548 400"></polygon>
            <path d="M546.386217,411.010499 C546.386217,411.010499 540.723028,404.868802 537.67362,406.184881 C536.165052,406.796304 534.70818,407.529861 533.317316,408.378347 C533.317316,408.378347 531.5748,414.081351 530.703539,418.906969 C529.832278,423.732587 529.396631,425.926052 528.525387,427.680824 C527.654143,429.435597 526.782843,436.015987 535.495468,436.893373 C544.208093,437.770759 546.821848,432.945136 546.821848,432.945136 L549,421.539127 C549,421.539127 548.128739,411.010499 546.386217,411.010499 Z" id="Path" fill="#2F2E41"></path>
            <path d="M512.416134,272.742589 C512.416134,272.742589 498.89394,301.303543 500.759066,327.228099 C500.759066,327.228099 496.096242,337.334285 498.89394,353.152654 C501.691638,368.971024 505.421895,400.607804 505.421895,400.607804 C505.421895,400.607804 518.011523,401.926019 518.944089,399.728993 C518.944089,399.728993 519.876667,377.759034 520.809215,376.880235 C521.741763,376.001435 520.342926,355.789069 518.944089,351.834473 C517.545252,347.879876 532,308.77332 532,308.77332 L528.269736,260 L512.416134,272.742589 Z" id="Path" fill="#2F2E41"></path>
            <path d="M512.416134,272.742589 C512.416134,272.742589 498.89394,301.303543 500.759066,327.228099 C500.759066,327.228099 496.096242,337.334285 498.89394,353.152654 C501.691638,368.971024 505.421895,400.607804 505.421895,400.607804 C505.421895,400.607804 518.011523,401.926019 518.944089,399.728993 C518.944089,399.728993 519.876667,377.759034 520.809215,376.880235 C521.741763,376.001435 520.342926,355.789069 518.944089,351.834473 C517.545252,347.879876 532,308.77332 532,308.77332 L528.269736,260 L512.416134,272.742589 Z" id="Path" fill="#000000" opacity="0.1"></path>
            <path d="M510,270.574272 L518.133978,288.681697 C518.133978,288.681697 521.986912,329.754637 524.127434,335.054377 C524.127434,335.054377 524.983654,350.070293 528.836577,354.928382 C532.6895,359.786471 535.686242,402.625996 535.686242,402.625996 C535.686242,402.625996 546.388846,405.717505 547.24505,402.625996 C548.101253,399.534487 550.669885,378.335541 550.669885,378.335541 C550.669885,378.335541 551.526105,360.228116 546.816945,348.303714 C542.107786,336.379311 552.382303,293.539786 552.382303,293.539786 C552.382303,293.539786 563.084902,272.782491 547.673154,256 L510,270.574272 Z" id="Path" fill="#2F2E41"></path>
            <circle id="Oval" fill="#FFB9B9" cx="532" cy="154" r="18"></circle>
            <path d="M553.580403,180 C553.580403,180 533.877827,180 531.128627,182.234889 C529.717091,183.545335 527.499971,183.545335 526.088435,182.234889 C526.088435,182.234889 519.215443,182.681873 517.382643,188.045595 C515.549844,193.409318 510.051451,200.560964 510.051451,200.560964 C510.051451,200.560964 501.803865,206.37167 506.385858,221.568905 C510.967851,236.76614 507.30227,261.34987 507.30227,261.34987 C507.30227,261.34987 503.636671,266.713598 507.30227,268.948488 C510.967869,271.183377 512.342462,272.077327 511.884262,273.865238 C511.426063,275.65315 553.580397,259.114981 553.580397,255.986142 C553.580397,252.857302 552.663986,250.175435 553.580397,248.834502 C554.496809,247.493568 555.41322,245.258679 554.496809,243.023796 C553.580397,240.788912 555.41322,240.341929 554.955015,238.107039 C554.496809,235.87215 557.246043,219.333987 559.078808,212.182347 C560.911572,205.030708 560.453395,180.446978 553.580403,180 Z" id="Path" fill="#D0CDE1"></path>
            <path d="M486,223.597834 C486,223.597834 467.497346,208.759189 466.092919,214.198527 C464.688493,219.637866 479.669027,232 479.669027,232 L486,223.597834 Z" id="Path" fill="#FFB9B9"></path>
            <path d="M541.520028,184 C541.520028,184 520.331471,219.913137 519.88065,225.043601 C519.42983,230.174065 519.429824,230.601587 517.626547,230.174054 C515.82327,229.746522 491.028147,227.18129 488.774043,228.036366 C486.519939,228.891441 482.011738,222.905918 482.011738,222.905918 C482.011738,222.905918 473.446155,231.029108 475.249432,232.739281 C477.05271,234.449454 482.462558,235.304507 483.3642,237.44219 C484.265841,239.579874 485.618304,241.717568 489.675684,241.29003 C493.733065,240.862492 521.233113,248.130607 524.839667,246.847993 C528.446221,245.56538 529.347868,243.427691 531.151151,243.427691 C532.954434,243.427691 536.560994,241.717546 536.560994,241.290008 C536.560994,240.86247 549.183963,218.202986 549.183963,218.202986 C549.183963,218.202986 564.061042,187.420296 541.520028,184 Z" id="Path" fill="#D0CDE1"></path>
            <path d="M524.471857,165.171717 C524.215617,163.439206 523.278084,161.867445 522.797144,160.178292 C522.03653,157.446574 522.486916,154.539395 524.044109,152.129297 C526.695372,148.076626 531.900677,146.281692 535.530886,142.9777 C535.606122,144.660675 536.840035,146.098902 538.203869,147.181246 C539.567703,148.263589 541.131976,149.141601 542.286805,150.423384 C543.396106,151.775774 544.204989,153.326494 544.664825,154.982316 C545.376099,156.900969 545.694893,158.93024 545.60418,160.961741 C545.499131,163.01318 544.509484,164.934025 542.866356,166.275689 C541.51427,167.287032 539.624865,167.864616 538.971595,169.373953 C538.714774,170.12823 538.640574,170.927531 538.754494,171.712633 C539.064036,176.406796 539.35327,181.184563 538.185292,185.75612 C537.017313,190.327677 534.155808,194.744399 529.671172,196.770995 C533.356552,197.018437 537.11972,197.259679 540.69535,196.379241 C544.270979,195.498803 547.690547,193.28176 548.923314,189.985491 C549.53146,188.359385 549.588981,186.550824 550.453071,185.032038 C552.640109,181.187959 558.679202,181.012689 561.645794,177.669251 C562.832969,176.331266 563.407288,174.607108 563.832982,172.907028 C566.337894,162.903194 564.57794,152.280692 560.764683,142.654032 C559.450348,139.335963 557.814,135.995088 554.994875,133.663025 C552.59594,131.678554 549.532461,130.585163 546.502908,129.651377 C542.081592,128.288614 537.526976,127.172098 532.879577,127.028164 C530.860647,126.915956 528.836563,127.1396 526.899243,127.68894 C524.986806,128.342823 523.20706,129.302338 521.63743,130.525741 C514.35734,135.886793 509.400729,144.455051 510.058472,153.162762 C510.456462,158.43165 512.815348,163.417977 515.845694,167.85399 C516.905548,169.405469 519.409731,172.713673 521.73725,171.738146 C523.848178,170.853386 524.748608,167.042914 524.471857,165.171717 Z" id="Path" fill="#2F2E41"></path>
            <path d="M240,226 L262.50996,226 L262.50996,204 L240,204 L240,226 Z M353,204 L330.49004,204 L330.49004,226 L353,226 L353,204 Z M285.24502,226 L307.75498,226 L307.75498,204 L285.24502,204 L285.24502,226 Z" id="Shape" fill="#36AAE1"></path>
            <ellipse id="Oval" fill="#2F2E41" cx="108.5" cy="121.5" rx="18.5" ry="14.5"></ellipse>
            <path d="M114.449178,225.621529 C114.449178,225.621529 130.752382,226.713745 133.650727,224.529308 C136.549072,222.344871 148.867052,227.441893 149.953931,230.354472 C151.040809,233.267052 132.563849,233.631125 129.665498,233.631125 C126.767148,233.631125 113,238 113,238 L114.449178,225.621529 Z" id="Path" fill="#A0616A"></path>
            <path d="M76.2092286,401.806203 C76.2092286,401.806203 67.927625,423.910642 72.2484785,426.578417 C76.569332,429.246192 121.93793,427.340639 121.93793,427.340639 C121.93793,427.340639 129.499368,422.3862 120.857725,418.956197 C120.857725,418.956197 113.656356,418.575086 108.975463,415.526213 C104.294571,412.47734 98.8935481,406.760629 98.8935481,406.760629 C98.8935481,406.760629 98.5334799,398.376187 95.6529461,400.281747 C93.9102338,401.49702 92.7333757,403.43468 92.4123441,405.617297 L76.2092286,401.806203 Z" id="Path" fill="#2F2E41"></path>
            <path d="M76.2092286,401.806203 C76.2092286,401.806203 67.927625,423.910642 72.2484785,426.578417 C76.569332,429.246192 121.93793,427.340639 121.93793,427.340639 C121.93793,427.340639 129.499368,422.3862 120.857725,418.956197 C120.857725,418.956197 113.656356,418.575086 108.975463,415.526213 C104.294571,412.47734 98.8935481,406.760629 98.8935481,406.760629 C98.8935481,406.760629 98.5334799,398.376187 95.6529461,400.281747 C93.9102338,401.49702 92.7333757,403.43468 92.4123441,405.617297 L76.2092286,401.806203 Z" id="Path" fill="#000000" opacity="0.1"></path>
            <polygon id="Path" fill="#36AAE1" points="210 277.18125 154.034091 222 209.943182 166.81875 192.897727 150 120 222 192.954545 294"></polygon>
            <path d="M64.6915598,409.806204 C64.6915598,409.806204 55.6431628,431.910616 60.3640661,434.578409 C65.0849694,437.246202 114.654402,435.340632 114.654402,435.340632 C114.654402,435.340632 122.91598,430.386191 113.474179,426.95622 C113.474179,426.95622 105.60601,426.575108 100.491698,423.526226 C95.3773847,420.477343 89.4762935,414.760622 89.4762935,414.760622 C89.4762935,414.760622 89.0828839,406.37621 85.9356189,408.28174 C84.0315355,409.497008 82.745702,411.434668 82.3949444,413.617287 L64.6915598,409.806204 Z" id="Path" fill="#2F2E41"></path>
            <path d="M109,269.588252 L103.707321,317.913044 C103.707321,317.913044 101.817079,340.924849 96.1463505,345.910738 C96.1463505,345.910738 96.1463505,353.197809 94.2561078,355.49899 L91.6097488,385.797866 C91.6097488,385.797866 95.3902343,396.920238 95.0121846,398.837888 C94.634135,400.755538 96.5243833,406.892021 96.1463337,407.659083 C95.768284,408.426146 78,407.659083 78,407.659083 L81.7804855,345.910738 L93.5,260 L109,269.588252 Z" id="Path" fill="#2F2E41"></path>
            <path d="M109,269.588252 L103.707321,317.913044 C103.707321,317.913044 101.817079,340.924849 96.1463505,345.910738 C96.1463505,345.910738 96.1463505,353.197809 94.2561078,355.49899 L91.6097488,385.797866 C91.6097488,385.797866 95.3902343,396.920238 95.0121846,398.837888 C94.634135,400.755538 96.5243833,406.892021 96.1463337,407.659083 C95.768284,408.426146 78,407.659083 78,407.659083 L81.7804855,345.910738 L93.5,260 L109,269.588252 Z" id="Path" fill="#000000" opacity="0.1"></path>
            <path d="M101,265.136281 C101,265.136281 96.5587859,305.291541 94.5400527,313.868396 C93.2708019,319.516595 92.46084,325.251973 92.1175717,331.022099 C92.1175717,331.022099 91.7138299,343.497517 88.0801054,347.006234 C85.9310631,349.060839 84.7613828,351.884444 84.8501348,354.803372 C84.8501348,354.803372 81.2164163,394.178916 83.2351494,398.857202 C85.2538826,403.535487 87.2726157,407.434033 85.2538826,410.552909 C83.2351494,413.671785 61.0290847,413.671762 61.0290847,411.332625 C61.0290847,408.993488 61.0290847,407.044198 59.8178412,405.874624 C58.6065977,404.70505 59.8178412,397.297793 59.8178412,397.297793 C59.8178412,397.297793 54.9728853,362.600528 59.4140994,352.464247 C63.8553135,342.327966 65.8740407,314.648124 65.8740407,314.648124 C65.8740407,314.648124 62.6440701,283.069712 58.6066037,278.001557 C54.5691374,272.933402 59.4140994,255 59.4140994,255 L101,265.136281 Z" id="Path" fill="#2F2E41"></path>
            <path d="M87,144.822618 C87.4651845,145.911129 88.5786514,146.517184 89.5923273,147.09081 C95.4672804,150.415366 100.385031,155.235456 105.230115,160 C104.021139,155.791718 104.27873,151.282112 105.958518,147.247925 C106.536988,145.871935 107.295173,144.392893 106.881706,142.955525 C106.577631,141.898514 105.701363,141.136114 104.852571,140.461818 C102.875562,138.891336 100.809204,137.443255 98.664483,136.125271 C97.1662078,135.204535 94.0858155,132.753473 92.3664863,133.02016 C92.2762244,135.406328 92.2290901,137.539705 91.211788,139.769863 C90.9704514,140.298854 87.1778311,145.238738 87,144.822618 Z" id="Path" fill="#A0616A"></path>
            <circle id="Oval" fill="#A0616A" cx="110.5" cy="132.5" r="15.5"></circle>
            <path d="M109.943043,170.113411 C109.943043,170.113411 112.579723,156.636935 105.04639,152.016427 C97.5130574,147.395918 88.8497576,142.005329 88.8497576,142.005329 C88.8497576,142.005329 86.213078,141.620292 85.0830997,147.395924 C85.0830997,147.395924 63.6131528,151.631383 61.353157,172.423682 C59.0931611,193.21598 62.859819,223.634287 62.859819,223.634287 C62.859819,223.634287 59.469828,250.202196 55.3265031,264.448758 C55.3265031,264.448758 51.9365121,267.529093 67.0031438,262.90859 C82.0697756,258.288088 108.436364,276 108.436364,276 C108.436364,276 111.073044,273.304685 111.073044,271.379492 C111.073044,269.454298 114.086374,258.288059 114.086374,258.288059 C114.086374,258.288059 116.723053,210.927858 117.853031,205.537281 C118.98301,200.146703 113.333034,170.883486 109.943043,170.113411 Z" id="Path" fill="#575A89"></path>
            <path d="M106.217967,135.713829 C107.109304,135.209096 108.108864,134.937113 109.127843,134.922044 C110.148028,134.906453 111.144164,134.603199 112.006319,134.04575 C113.407834,132.946459 113.510638,130.821992 114.535921,129.351778 C116.020317,127.223225 118.981577,126.967025 121.537543,127.073525 C123.100874,127.138662 124.784434,127.234045 126.100895,126.370159 C127.45236,125.483304 128.06494,123.812314 128.520618,122.238691 C129.05951,120.377779 129.408056,118.102032 128.072703,116.721895 C127.145408,115.763499 125.681704,115.57395 124.651594,114.73226 C123.583513,113.859548 123.144,112.439249 122.563434,111.174099 C121.902787,109.632638 120.857775,108.295297 119.532813,107.2957 C117.589573,105.91625 115.107607,105.60692 112.741488,105.632773 C110.375369,105.658627 107.99932,105.976487 105.650947,105.679828 C103.726889,105.436772 101.808507,104.782894 99.8906845,105.072714 C97.4468773,105.442028 95.4251159,107.3257 94.220953,109.529523 C93.0167901,111.733346 92.5001059,114.248871 91.9990657,116.720379 L90.6364516,123.442275 C90.2138253,125.527118 89.7894626,127.66737 90.1157032,129.770201 C90.7919998,134.129396 94.5653213,137.594387 94.8253138,142 C95.3287445,139.528829 97.013926,137.481526 99.3104832,136.551032 C99.5939671,136.4094 99.9158945,136.369501 100.224301,136.437775 C100.599183,136.560199 100.818292,136.942854 101.054888,137.264196 C101.674774,138.106172 103.62209,139.383615 104.725921,138.78631 C105.713567,138.251884 104.976226,136.574238 106.217967,135.713829 Z" id="Path" fill="#2F2E41"></path>
            <path d="M64.2852557,207.28491 C64.2852557,207.28491 61.5942729,225.554088 72.7425489,223.893255 C72.7425489,223.893255 78.5088991,223.062835 79.2777424,223.893255 C80.0465857,224.723674 108.493918,219.325959 112.338152,214.758688 C112.338152,214.758688 116.951234,213.097854 119.25777,215.589107 C121.564305,218.08036 144.629712,220.571613 137.710094,213.097854 C130.790476,205.624096 120.026619,203.963287 120.026619,203.963287 L105.418534,204.793701 C105.418534,204.793701 97.7300666,207.284954 93.1169842,204.793701 C88.5039017,202.302448 75.4335089,203.132868 75.4335089,203.132868 L64.2852557,207.28491 Z" id="Path" fill="#A0616A"></path>
            <path d="M81.5521012,154 C81.5521012,154 65,155.993464 65,181.908498 L65,215 C65,215 74.1956118,210.614378 76.0347341,211.013072 C77.8738565,211.411766 85.2303459,205.830067 85.2303459,205.830067 C85.2303459,205.830067 93.6903066,184.300656 92.9546609,178.320264 C92.2190152,172.339871 92.5868353,154.797382 81.5521012,154 Z" id="Path" fill="#575A89"></path>
            <ellipse id="Oval" fill="#2F2E41" cx="109.5" cy="124" rx="14.5" ry="7"></ellipse>
            <ellipse id="Oval" fill="#2F2E41" cx="95" cy="125" rx="5" ry="14"></ellipse>
        </g>
    </g>
</svg>