<?xml version="1.0" encoding="UTF-8"?>
<svg width="561px" height="307px" viewBox="0 0 561 307" version="1.1" xmlns="http://www.w3.org/2000/svg" xmlns:xlink="http://www.w3.org/1999/xlink">
    <!-- Generator: Sketch 61 (89581) - https://sketch.com -->
    <title>undraw_reading_0re1</title>
    <desc>Created with Sketch.</desc>
    <g id="Page-1" stroke="none" stroke-width="1" fill="none" fill-rule="evenodd">
        <g id="undraw_reading_0re1" fill-rule="nonzero">
            <ellipse id="Oval" fill="#3F3D56" cx="277" cy="289" rx="143" ry="18"></ellipse>
            <path d="M517.20855,136.876848 L462.118788,162.846526 L510.875619,126.533201 C502.951282,114.213324 494.049101,102.545342 484.254446,91.6411509 L245.336907,150.789927 L461.146791,68.7921584 C451.28503,60.1254907 440.81199,52.1743791 429.808252,45 L65.7541647,103.40718 C27.1008409,151.551404 6.02975748,211.354841 6,273 L554,273 C553.977803,225.191214 541.286518,178.235259 517.20855,136.876848 Z" id="Path" fill="#F2F2F2"></path>
            <path d="M399,27.7079084 C361.801635,9.41837879 320.948699,-0.0588016206 279.561715,0 C195.328804,0 120.020182,38.5034672 70,99 C155.654815,80.0806362 304.786684,47.3301396 399,27.7079084 Z" id="Path" fill="#F2F2F2"></path>
            <circle id="Oval" fill="#3FAAE1" opacity="0.4" cx="454" cy="45" r="8"></circle>
            <ellipse id="Oval" fill="#3FAAE1" opacity="0.4" cx="439" cy="48.5" rx="6" ry="5.5"></ellipse>
            <ellipse id="Oval" fill="#3FAAE1" opacity="0.4" cx="65.5" cy="66" rx="17.5" ry="17"></ellipse>
            <circle id="Oval" fill="#3FAAE1" opacity="0.4" cx="32.5" cy="73.5" r="11.5"></circle>
            <rect id="Rectangle" fill="#2F2E41" x="0" y="271" width="561" height="1"></rect>
            <path d="M496.505606,272 L453,206 C453,206 518.885837,229.491525 511.408509,272 L496.505606,272 Z" id="Path" fill="#3F3D56"></path>
            <path d="M499.494394,272 L543,206 C543,206 477.114163,229.491525 484.591491,272 L499.494394,272 Z" id="Path" fill="#3FAAE1"></path>
            <path d="M312.467516,62.1825791 C301.132284,42.9679672 278.706433,42.0724812 278.706433,42.0724812 C278.706433,42.0724812 256.853717,39.2689944 242.835343,68.5330834 C229.769093,95.8096207 211.736009,122.145695 239.932161,128.530912 L245.025205,112.628111 L248.179297,129.714833 C252.193888,130.004506 256.221272,130.073559 260.243385,129.921682 C290.439187,128.943649 319.196123,130.207824 318.270193,119.337464 C317.039327,104.886881 323.37428,80.6708735 312.467516,62.1825791 Z" id="Path" fill="#2F2E41"></path>
            <path d="M237.620842,230.06002 C237.285095,232.166074 236.797761,234.245615 236.162573,236.282717 C235.447222,238.276681 234.342799,240.120718 233.688727,242.135248 C231.603838,248.556679 234.494113,255.716413 239.110337,260.672924 C243.113522,264.954039 248.280793,267.995574 253.988853,269.430649 C258.153292,270.468873 262.483355,270.618302 266.774996,270.762559 C278.658844,271.162022 290.848455,271.519406 302.109103,267.733603 C305.666789,266.508061 309.103152,264.960581 312.374723,263.110738 C313.407678,262.622904 314.317719,261.912607 315.038432,261.031683 C315.897278,259.819635 316.007154,258.247711 316,256.766569 C315.974391,251.772695 314.953062,246.804291 315.195556,241.816142 C315.329854,239.053212 315.851517,236.292424 315.594742,233.538024 C314.866512,227.128321 310.154169,221.863333 303.820743,220.383216 C300.626323,219.703236 297.313081,220.073763 294.060885,220.383736 C285.618988,221.187809 277.141142,221.56357 268.660538,221.509549 C259.995527,221.454726 251.384019,220.143574 242.762138,220.006641 C240.2124,219.966145 240.263909,220.745339 239.452162,223.191463 C238.704453,225.442839 238.092926,227.736434 237.620842,230.06002 L237.620842,230.06002 Z" id="Path" fill="#2F2E41"></path>
            <path d="M264.298858,106.411224 C263.884736,108.597293 263.437135,110.863321 262.134066,112.659813 C260.634849,114.726734 258.190436,115.907719 256.577599,117.885797 C254.149955,120.863213 254.010611,125.052916 254.000603,128.907131 C253.991385,132.457709 254.06292,136.244781 256.026886,139.192031 C257.30149,141.104811 259.24097,142.445837 261.136418,143.733618 C268.501674,148.737681 276.460606,153.831584 285.340743,153.996613 C289.020114,154.064986 292.965228,153.107025 295.38621,150.312902 C296.431496,149.000455 297.253393,147.522153 297.818378,145.938294 C300.088968,140.295404 301.465375,134.327677 301.897174,128.253732 C302.099406,125.396123 302.080081,122.455129 301.120705,119.758437 C300.04192,116.726102 297.860634,114.231099 296.419002,111.356113 C294.714846,107.937447 294.091542,104.074145 294.63315,100.287208 C294.704892,100.020555 294.682749,99.7370769 294.570492,99.4850323 C294.330132,99.2115703 293.976728,99.0672017 293.615347,99.094847 L276.007465,97.8169299 C274.367559,97.734779 272.734585,97.5464435 271.118645,97.2530882 C270.169425,97.0585082 267.662398,95.6994232 266.757331,96.0608163 C265.081967,96.7297917 264.64227,104.598407 264.298858,106.411224 Z" id="Path" fill="#FFB8B8"></path>
            <path d="M264.298858,106.411224 C263.884736,108.597293 263.437135,110.863321 262.134066,112.659813 C260.634849,114.726734 258.190436,115.907719 256.577599,117.885797 C254.149955,120.863213 254.010611,125.052916 254.000603,128.907131 C253.991385,132.457709 254.06292,136.244781 256.026886,139.192031 C257.30149,141.104811 259.24097,142.445837 261.136418,143.733618 C268.501674,148.737681 276.460606,153.831584 285.340743,153.996613 C289.020114,154.064986 292.965228,153.107025 295.38621,150.312902 C296.431496,149.000455 297.253393,147.522153 297.818378,145.938294 C300.088968,140.295404 301.465375,134.327677 301.897174,128.253732 C302.099406,125.396123 302.080081,122.455129 301.120705,119.758437 C300.04192,116.726102 297.860634,114.231099 296.419002,111.356113 C294.714846,107.937447 294.091542,104.074145 294.63315,100.287208 C294.704892,100.020555 294.682749,99.7370769 294.570492,99.4850323 C294.330132,99.2115703 293.976728,99.0672017 293.615347,99.094847 L276.007465,97.8169299 C274.367559,97.734779 272.734585,97.5464435 271.118645,97.2530882 C270.169425,97.0585082 267.662398,95.6994232 266.757331,96.0608163 C265.081967,96.7297917 264.64227,104.598407 264.298858,106.411224 Z" id="Path" fill="#000000" opacity="0.1"></path>
            <circle id="Oval" fill="#FFB8B8" cx="281" cy="84" r="26"></circle>
            <path d="M267.333633,140.180181 C268.67994,141.582178 270.106542,142.970365 271.870704,143.79223 C273.666767,144.531794 275.595633,144.897694 277.538811,144.867452 C282.195073,144.997947 287.242771,144.147916 290.481894,140.812748 C294.657289,136.513546 294.519758,129.579328 297.792588,124.563728 C298.05629,124.108991 298.416153,123.716872 298.847203,123.414585 C299.396172,123.116817 300.016575,122.974703 300.64095,123.003693 C304.774394,122.965194 308.375029,125.63613 311.624578,128.181526 C313.080298,129.321804 314.572236,130.503133 315.490606,132.105176 C316.133131,133.354235 316.573144,134.696757 316.794308,136.082898 C318.406887,143.925726 318.929139,151.944748 319.44745,159.933768 C319.733733,164.346464 320.020154,168.763408 319.998884,173.185264 C319.928789,187.753403 316.530119,202.077908 313.150399,216.251725 C312.714923,218.078022 312.118976,220.119387 310.451987,220.994168 C309.708922,221.327033 308.910817,221.521109 308.097386,221.566738 C298.417157,222.699405 288.716896,223.833441 278.971294,223.98298 C275.168106,224.041339 271.366567,223.949617 267.566677,223.707813 C266.912542,223.699205 266.263985,223.586559 265.645512,223.374134 C264.80612,222.972585 264.084774,222.36227 263.551077,221.602078 C258.279562,214.983815 257.968404,205.833966 258.002094,197.385047 C258.084479,176.728167 258.825257,156.087792 260.224431,135.463922 C260.339956,133.761647 260.365177,131.694258 259.134037,130.355159 C261.350768,133.890801 264.434032,137.160634 267.333633,140.180181 Z" id="Path" fill="#D0CDE1"></path>
            <path d="M262.537075,110.314152 C261.650033,111.897226 255.110253,115.828275 253.84768,117.140348 C246.793501,124.471099 233.918608,124.196021 227.467052,132.04784 C225.1972,134.810361 224.017876,138.281425 223.150532,141.732281 C221.923828,146.612914 221.268818,151.935689 223.323761,156.537702 C225.301098,160.96587 229.463612,164.027259 232.28969,167.982753 C235.392683,172.32583 236.787854,177.59922 238.124882,182.745467 C239.112095,186.545269 240.107472,190.43917 239.723005,194.343306 C239.285871,198.782201 237.107148,202.846663 235.820769,207.122296 C234.534391,211.397928 234.312362,216.490267 237.286668,219.850412 C239.471795,222.319008 242.899217,223.297648 246.175248,223.848179 C250.371218,224.469772 254.602404,224.832928 258.8442,224.935534 C262.58915,225.098664 266.717158,225.13038 269.596104,222.763425 C271.867723,220.895781 272.855036,217.865052 272.982828,214.95162 C273.110621,212.038189 272.495793,209.150557 272.110679,206.259229 C271.711454,203.261936 271.558024,200.238528 271.429667,197.218151 C270.853699,183.666098 270.775105,170.105335 271.193886,156.535862 C271.281121,153.712243 271.386918,150.853949 270.776238,148.093929 C269.973083,144.464032 267.983252,141.220006 266.322923,137.884823 C263.027367,131.264845 261.468825,124.834039 261.97824,117.47621 C262.481105,110.213712 265.693533,104.680764 262.537075,110.314152 Z" id="Path" fill="#3FAAE1"></path>
            <path d="M298.960638,112.366611 C300.294389,113.729453 304.82645,114.178733 306.523084,115.056424 C308.118992,115.789374 309.784304,116.36261 311.494405,116.767659 C317.683159,118.542657 323.569783,121.228716 328.958586,124.736541 C330.078257,125.3878 331.068162,126.237876 331.879083,127.244505 C332.828261,128.557277 333.172792,130.195337 333.494596,131.780113 C334.325336,135.871366 335.160257,140.011944 334.973573,144.181605 C334.775409,148.607656 333.434415,152.894299 332.104045,157.122695 L327.133248,172.922182 C323.422869,184.715392 319.688958,196.624707 318.644918,208.937712 C318.067321,215.761874 318.324138,222.630489 319.409745,229.393184 C319.518966,230.073073 319.610601,230.852406 319.159023,231.37441 C318.831531,231.696242 318.400648,231.893349 317.941752,231.931251 C315.542613,232.304207 313.220833,231.088033 311.047146,230.011891 C304.4034,226.724839 297.31312,224.418321 290,223.165108 C292.857738,219.0592 295.062622,214.540354 296.537172,209.767362 C297.374605,206.736645 298.034085,203.660083 298.512275,200.553251 L300.824667,187.256809 C301.765451,182.396893 302.427727,177.487759 302.808292,172.553141 C302.983099,170.701286 302.874579,168.833786 302.486428,167.014265 C301.953536,165.282746 301.245956,163.609215 300.374478,162.019194 C296.563578,154.138146 294.775485,145.14446 296.274932,136.528002 C296.931134,132.757183 298.20633,128.981318 297.674591,125.191179 C297.163344,121.54711 297.69467,118.715032 296.754229,115.108694 C292.892817,100.301446 296.451395,109.80267 298.960638,112.366611 Z" id="Path" fill="#3FAAE1"></path>
            <path d="M228.012935,145.715007 C226.309587,149.366232 223.461866,152.476741 222.492633,156.404198 C222.115483,158.239724 221.953874,160.115514 222.0113,161.990991 C221.988331,164.817596 221.973442,167.70152 222.813661,170.391674 C223.354621,172.123616 224.234699,173.720851 224.868718,175.418777 C225.752498,177.79094 226.146229,180.327811 226.024627,182.866472 C225.85357,186.383514 224.696876,189.797512 224.606478,193.317755 C224.464322,198.853631 226.943098,204.057812 229.3618,209 C230.594067,205.847787 233.110355,203.418069 236.238017,202.360351 C239.365679,201.302633 242.785824,201.724757 245.584192,203.513883 C246.222251,202.905195 246.29039,201.90566 246.315354,201.008873 C246.49414,194.586401 246.666592,188.163745 246.832712,181.740905 C247.094525,171.807563 247.343942,161.741484 245.13182,152.070755 C244.133052,147.704395 242.578972,143.354907 239.730012,139.968249 C238.229879,138.185022 233.137316,133.487882 230.674802,135.4856 C229.567394,136.383973 229.826216,138.829453 229.650746,140.067785 C229.385897,142.02525 228.833612,143.929548 228.012935,145.715007 L228.012935,145.715007 Z" id="Path" fill="#3FAAE1"></path>
            <path d="M335.078475,135.257055 C335.92443,137.824658 335.975035,140.568185 335.991885,143.264885 C336.026254,148.765863 335.951456,154.266114 335.767492,159.765637 C335.673301,162.581039 335.54361,165.435231 334.667766,168.119665 C334.090159,169.890016 333.198801,171.550156 332.602277,173.31454 C330.81454,178.602285 331.791321,184.337371 331.944596,189.902825 C332.052823,191.704139 331.895106,193.511267 331.476275,195.268882 C330.532818,198.719028 327.997343,201.506854 326.227716,204.63321 C324.547044,207.602395 323.53294,210.930524 321.525666,213.700322 C319.518391,216.470119 316.043604,218.664846 312.675571,217.814556 C310.123655,217.170295 308.310363,214.968683 307.056124,212.708763 C304.319207,207.739885 303.383157,202.016048 304.39954,196.464062 C305.65873,189.709183 309.729592,183.716723 311.197723,177.002035 C313.213789,167.781278 310.149711,158.266183 310.240898,148.838792 C310.199308,147.361012 310.404959,145.886496 310.849773,144.473162 C311.61984,142.319761 313.273764,140.600112 314.801678,138.873063 C316.710982,136.71479 318.484665,134.44598 320.113018,132.07905 C321.20686,130.489035 322.692471,126.399532 324.631768,126.059501 C328.9615,125.300336 334.004276,131.996681 335.078475,135.257055 Z" id="Path" fill="#3FAAE1"></path>
            <path d="M206.797906,228.752238 C204.482635,228.182597 202.097065,227.934347 199.711201,228.014773 C194.640148,228.289172 189.934282,230.684254 186.791967,234.590107 C183.649652,238.495959 182.374136,243.535647 183.290234,248.425797 C183.868367,251.044347 184.813345,253.572138 186.098359,255.937457 C187.977766,259.67108 190.231863,263.396134 193.711134,265.788728 C195.74642,267.188336 198.102017,268.060974 200.429619,268.919334 L218.754271,275.676983 C221.450032,276.671108 224.146195,277.665378 226.868646,278.587189 C240.545931,283.21508 254.805518,285.990141 269.251032,286.835232 C273.651108,287.091721 278.117797,287.163095 282.410331,286.18249 C283.428979,285.949784 284.515573,285.602885 285.10534,284.757202 C285.454626,284.161467 285.660561,283.495616 285.707491,282.81027 L286.835086,275.0828 C286.993858,273.994744 287.146623,272.849452 286.739247,271.825233 C286.222699,270.526534 284.927908,269.709562 283.693354,269.015448 C271.646191,262.242058 257.579686,258.505232 247.439421,249.20887 C245.052236,247.020356 243.054546,243.55134 240.154146,242.06473 C236.86513,240.378926 232.99169,239.416781 229.592036,237.86334 C222.159977,234.467321 214.852835,230.564781 206.797906,228.752238 Z" id="Path" fill="#2F2E41"></path>
            <path d="M225.079841,236.749094 C231.457622,238.705965 258.384632,252.263411 263,256.996937 C262.38135,257.215191 241.391283,245.696725 240.761434,245.511624 C235.036262,243.829121 229.279251,242.135579 223.842362,239.673308 C222.748613,239.177964 216.736684,236.84973 217.008965,235.498417 C217.316179,233.973562 223.947612,236.401691 225.079841,236.749094 Z" id="Path" fill="#000000" opacity="0.1"></path>
            <path d="M304.586048,288.988114 C304.967818,289.013836 305.346773,288.911376 305.652515,288.699769 C305.923424,288.380099 306.0435,287.973982 305.985864,287.572326 C305.975414,284.151669 305.964968,280.731015 305.954526,277.310362 C302.742406,275.904383 299.149429,275.453715 295.622726,275.020643 L279.167691,273 C279.545752,273.046428 276.594859,279.511061 277.047317,280.374113 C277.844787,281.895244 283.939211,283.243382 285.659198,283.961597 C291.638494,286.458359 297.851753,289.203253 304.586048,288.988114 Z" id="Path" fill="#FFB8B8"></path>
            <path d="M254.851723,278.708849 C251.83344,279.184336 248.464642,279.604649 246.509951,281.928511 C244.031148,284.875478 245.08639,289.268671 246.268866,292.919382 C246.444574,293.657902 246.797222,294.343817 247.297083,294.919305 C248.104063,295.706706 249.340684,295.82207 250.472002,295.892925 C253.224635,296.065317 256.153991,296.200395 258.559068,294.864958 C259.648444,294.152915 260.697208,293.381879 261.700562,292.555373 C263.474099,291.388145 265.423626,290.506589 267.476454,289.943575 C271.250265,288.769495 275.134917,287.977683 279.070569,287.580339 C280.621347,287.51046 282.156509,287.242806 283.637974,286.784015 C285.089181,286.243356 286.432931,285.171285 286.854514,283.69525 C287.411615,281.744736 286.265473,279.756114 285.166194,278.045526 C283.79686,275.914651 282.346157,273.670962 280.304407,272.102297 C277.325739,269.813802 275.852283,271.570583 272.851837,273.035042 C267.172925,275.80719 261.105177,277.719802 254.851723,278.708849 L254.851723,278.708849 Z" id="Path" fill="#FFB8B8"></path>
            <path d="M247.630009,279.227364 L228.399972,273.417512 C226.061239,272.710923 223.68255,271.998156 221.243796,272 C218.805042,272.001851 216.253501,272.819222 214.671849,274.716712 C213.180694,276.505654 212.753894,278.950641 212.38215,281.269954 L211.586943,286.231312 C211.182829,288.752617 210.777975,291.322413 211.141706,293.850134 C211.505437,296.377856 212.767794,298.903213 214.961937,300.126868 C217.623007,301.610913 220.884468,300.886058 223.854369,300.265313 C229.853344,299.011901 235.955118,298.343056 242.077687,298.267764 C244.379417,298.239625 246.793657,298.2691 248.827557,297.167224 C251.245244,295.857436 252.691646,293.087955 252.940372,290.302562 C253.31876,286.064468 251.936811,280.528582 247.630009,279.227364 Z" id="Path" fill="#2F2E41"></path>
            <path d="M311.954197,274.967545 C314.387035,274.518044 316.534147,273.060397 318.865331,272.200065 C322.14659,270.989032 325.702436,270.989049 329.178956,271.002423 C330.455194,271.007331 331.81424,271.0375 332.876588,271.783089 C334.407937,272.857842 334.800418,275.008656 335.060804,276.928497 L336.631813,288.511883 C336.927307,290.690595 337.221047,292.927603 336.760148,295.074174 C336.299248,297.220744 334.911329,299.290142 332.890783,299.843895 C330.436761,300.516454 328.031027,298.863854 325.713967,297.778256 C319.922666,295.064884 313.190617,295.758419 307.152143,293.730396 C306.031523,293.35404 304.831333,292.778538 304.374178,291.636195 C304.16763,290.992829 304.093941,290.310346 304.158053,289.634502 C304.26146,285.911258 303.516554,280.827103 304.579873,277.268735 C305.536145,274.068611 309.23853,274.967545 311.954197,274.967545 Z" id="Path" fill="#2F2E41"></path>
            <path d="M351.101544,223.974161 C354.893559,223.038183 358.824516,222.773818 362.710622,223.193427 C365.814175,223.529982 369.011788,224.380057 371.27774,226.494516 C374.035715,229.068126 374.921861,233.048258 374.995805,236.788346 C375.117042,244.237639 372.607015,251.497287 367.894465,257.327256 C366.743692,258.801826 365.375206,260.098569 363.834475,261.174401 C362.172413,262.197814 360.400988,263.038092 358.552183,263.680065 L317.548214,279.599829 C306.760968,283.787974 295.935658,287.988245 284.683988,290.74928 C284.062514,291.044596 283.34627,291.080564 282.697491,290.849035 C282.048712,290.617506 281.5223,290.138073 281.237491,289.519333 C277.644892,284.468039 274.630925,279.041095 272.250565,273.337489 C272.02181,273.062401 271.943649,272.694818 272.041125,272.352518 C272.138602,272.010218 272.399477,271.73618 272.740164,271.61821 L301.7426,255.215389 C303.82002,254.040453 305.920661,252.84861 307.645633,251.211828 C308.899059,250.016134 309.9254,248.609646 310.67629,247.058644 C311.277463,245.822653 311.333547,242.905897 312.10144,241.992311 C312.853273,241.097834 315.42518,241.026452 316.613019,240.674638 C318.288247,240.169539 319.928806,239.5591 321.524574,238.847087 C328.012198,235.990209 333.789329,231.83931 340.008595,228.494185 C343.496795,226.531047 347.224303,225.012206 351.101544,223.974161 L351.101544,223.974161 Z" id="Path" fill="#2F2E41"></path>
            <path d="M336.628409,234.13544 C331.637514,237.83015 325.175174,241.226436 320.228666,245.018499 C318.540477,246.312676 290.397919,261.907622 290,263.978815 C294.614813,264.745223 324.011646,244.475107 328.217574,242.452475 C332.423503,240.429842 336.151956,237.577507 339.846509,234.746206 C340.788038,234.024674 344.778217,231.85563 342.075395,231.049486 C340.552804,230.595376 337.752498,233.396811 336.628409,234.13544 Z" id="Path" fill="#000000" opacity="0.1"></path>
            <polygon id="Path" fill="#2F2E41" points="306.965035 61.7094099 285.22808 50 255.210866 54.7900372 249 83 264.459959 82.3884588 268.778855 72.0243289 268.778855 82.2176033 275.912318 81.9350558 280.052716 65.4356087 282.640398 83 308 82.4675279"></polygon>
            <rect id="Rectangle" fill="#5D3CFF" x="255" y="118" width="48" height="58"></rect>
            <path d="M232.391649,217.227421 C233.485225,218.837102 234.766569,220.41161 236.523126,221.279978 C238.792909,222.302109 241.414344,222.232835 243.62534,221.092295 C245.804391,219.940299 247.588042,218.17707 248.750738,216.02558 C251.156233,211.837391 251.654412,206.825783 251.354239,202.02176 C251.054066,197.217736 250.01372,192.487296 249.553272,187.695629 C249.218554,184.212399 249.191334,180.708425 249.164377,177.209709 C249.081277,176.473972 249.237808,175.73125 249.611308,175.089063 C250.144109,174.371689 251.119635,174.174031 251.984093,173.920791 C256.838919,172.498572 260.061418,168.011915 262.37172,163.568171 C263.914373,160.600975 265.255839,157.357409 264.95836,154.035969 C264.66088,150.714529 262.239509,147.368496 258.875239,147.029668 C256.101642,146.750324 253.540651,148.487275 251.539932,150.401756 C246.492852,155.261519 243.249208,161.653063 242.330173,168.549427 C241.890988,171.926573 242.016784,175.395623 241.085164,178.674166 C239.095974,185.674492 232.872189,189.966432 229.770619,196.265475 C226.353004,203.206338 228.239255,211.086168 232.391649,217.227421 Z" id="Path" fill="#FFB8B8"></path>
            <path d="M326.014753,192.939664 C324.53279,196.300177 321.720273,198.934248 318.216121,200.243496 C316.060214,201.087552 313.682086,201.229516 311.436614,200.648201 C309.179496,200.037891 307.34322,198.437007 306.470202,196.318433 C306.126649,195.265643 305.938293,194.170619 305.910781,193.066184 C305.588189,188.229502 305.712842,183.245451 307.51532,178.728178 C308.210532,176.985863 309.147906,175.333494 309.696568,173.542167 C310.235773,171.473319 310.511628,169.34764 310.517908,167.213089 L311.110442,154.016215 C311.208431,153.058143 311.140442,152.090831 310.90932,151.154735 C310.318295,149.245223 308.487317,148.004301 306.807313,146.865554 C302.750007,144.115412 298.74056,140.90629 296.774528,136.486995 C296.099091,135.156433 295.857193,133.656388 296.081274,132.188019 C296.635628,129.567489 299.348902,127.87097 302.03068,127.29944 C305.576392,126.543771 309.284929,127.232445 312.297175,129.205923 C315.309422,131.179402 317.363998,134.266442 317.984943,137.751902 C318.250267,139.241195 318.246619,140.76246 318.401917,142.266442 C318.731335,145.45675 319.770439,148.532031 320.420491,151.675242 C322.021704,159.41762 321.191995,167.421006 322.775404,175.162067 C324.099328,181.63446 329.091489,185.857758 326.014753,192.939664 Z" id="Path" fill="#FFB8B8"></path>
            <path d="M30.1374509,271 L29,270.978718 C29.4399249,258.86239 30.789319,246.792094 33.0377291,234.861335 C37.9563172,209.317697 46.1350786,192.541882 57.3468529,185 L58,185.891788 C31.809191,203.509372 30.1507819,270.326904 30.1374509,271 Z" id="Path" fill="#2F2E41"></path>
            <path d="M43.0438772,271 L42,270.979013 C42.0224434,269.789291 42.6748666,241.74999 53.4005848,234 L54,234.879179 C43.7070054,242.316527 43.0489765,270.714108 43.0438772,271 Z" id="Path" fill="#2F2E41"></path>
            <circle id="Oval" fill="#3FAAE1" cx="62" cy="181" r="5"></circle>
            <circle id="Oval" fill="#3FAAE1" cx="58" cy="227" r="5"></circle>
            <path d="M39.7806336,189.968051 C40.7407199,196.319305 38.2383907,202 38.2383907,202 C38.2383907,202 34.1794531,197.383219 33.2193668,191.031949 C32.2592805,184.680679 34.7616046,179 34.7616046,179 C34.7616046,179 38.8205421,183.616775 39.7806336,189.968051 Z" id="Path" fill="#2F2E41"></path>
            <path d="M58.1147803,204.874208 C52.0396241,207.03768 46,205.417309 46,205.417309 C46,205.417309 49.8100845,200.289264 55.8852144,198.125792 C61.9603442,195.96232 68,197.582691 68,197.582691 C68,197.582691 64.1899102,202.710736 58.1147803,204.874208 Z" id="Path" fill="#2F2E41"></path>
            <path d="M57.8107555,247.259058 C54.9578113,248.10516 51.9195681,248.229031 49,247.618279 C52.7867697,243.066059 59.0512291,241.037168 65,242.436308 C63.092155,244.610529 60.6130631,246.273575 57.8107555,247.259058 L57.8107555,247.259058 Z" id="Path" fill="#2F2E41"></path>
        </g>
    </g>
</svg>