<?xml version="1.0" encoding="UTF-8"?>
<svg width="565px" height="423px" viewBox="0 0 565 423" version="1.1" xmlns="http://www.w3.org/2000/svg" xmlns:xlink="http://www.w3.org/1999/xlink">
    <!-- Generator: Sketch 61 (89581) - https://sketch.com -->
    <title>undraw_palette_110c</title>
    <desc>Created with Sketch.</desc>
    <g id="Page-1" stroke="none" stroke-width="1" fill="none" fill-rule="evenodd">
        <g id="undraw_palette_110c" transform="translate(0.000000, -28.000000)">
            <path d="M174,230.585364 C174,296.859534 135.048784,320 87,320 C38.9512157,320 0,296.859534 0,230.585364 C0,164.311195 87,80 87,80 C87,80 174,164.311195 174,230.585364 Z" id="Path" fill="#F2F2F2" fill-rule="nonzero"></path>
            <polygon id="Path" fill="#3F3D56" fill-rule="nonzero" points="83.9961445 309.757231 84.8876562 254.558031 122 186.269284 85.0276205 245.899333 85.4282429 221.079535 111.00621 171.673032 85.5347375 214.511553 85.5347375 214.511553 86.2553508 169.872027 113.64474 130.538606 86.368945 162.852647 86.8192649 81 83.9885378 189.358178 84.2207974 184.888054 56.3739884 142.01689 83.7745344 193.469224 81.1796167 243.323554 81.1025349 241.999961 49 196.884554 81.0051684 246.674617 80.6806135 252.909533 80.6228022 253.003383 80.6491723 253.515478 74.0662864 380 82.8617238 380 83.9170343 314.668043 115.8436 264.999882"></polygon>
            <path d="M565,388.374013 C565,410.967378 448.594034,451 305,451 C161.405966,451 45,410.967378 45,388.374013 C45,365.780647 161.405966,369.182178 305,369.182178 C448.594034,369.182178 565,365.780642 565,388.374013 Z" id="Path" fill="#3F3D56" fill-rule="nonzero"></path>
            <path d="M565,388.374013 C565,410.967378 448.594034,451 305,451 C161.405966,451 45,410.967378 45,388.374013 C45,365.780647 161.405966,369.182178 305,369.182178 C448.594034,369.182178 565,365.780642 565,388.374013 Z" id="Path" fill="#000000" fill-rule="nonzero" opacity="0.1"></path>
            <ellipse id="Oval" fill="#3F3D56" fill-rule="nonzero" cx="305" cy="388" rx="260" ry="41"></ellipse>
            <ellipse id="Oval" fill="#000000" fill-rule="nonzero" opacity="0.1" cx="313.5" cy="394" rx="62.5" ry="13"></ellipse>
            <path d="M281.592813,365 C281.592813,365 281.449102,373.83019 280.73054,376.169813 C280.011977,378.509436 280.73054,381.452829 280.73054,381.452829 L278,389 L287.700597,389 C287.700597,389 290,377.981134 290,377 C290,376.018861 288.634733,367.716979 288.634733,367.716979 L281.592813,365 Z" id="Path" fill="#FFB9B9" fill-rule="nonzero"></path>
            <path d="M291.777272,385.335836 C291.777272,385.335836 289.096087,377.830205 277.740482,385.335836 C277.740482,385.335836 273.245552,392.115122 275.769021,394.21348 C278.292491,396.311838 282.629702,399.13653 286.257183,397.522416 C289.884665,395.908302 291.304123,394.132778 291.777272,390.823842 C292.074243,389.007131 292.074243,387.152548 291.777272,385.335836 Z" id="Path" fill="#2F2E41" fill-rule="nonzero"></path>
            <path d="M337.40719,365 C337.40719,365 337.550905,373.83019 338.269466,376.169813 C338.988027,378.509436 338.269466,381.452829 338.269466,381.452829 L341,389 L331.299394,389 C331.299394,389 329,377.981134 329,377 C329,376.018861 330.365265,367.716979 330.365265,367.716979 L337.40719,365 Z" id="Path" fill="#FFB9B9" fill-rule="nonzero"></path>
            <path d="M329.222728,385.335836 C329.222728,385.335836 331.903913,377.830205 343.25952,385.335836 C343.25952,385.335836 347.754445,392.115122 345.230981,394.21348 C342.707516,396.311838 338.3703,399.13653 334.742812,397.522416 C331.115324,395.908302 329.695877,394.132778 329.222728,390.823842 C328.925757,389.007131 328.925757,387.152548 329.222728,385.335836 Z" id="Path" fill="#2F2E41" fill-rule="nonzero"></path>
            <path d="M280,197.273197 C280,197.273197 287.646726,207.442931 288.583074,210.682177 C289.519421,213.921423 295.371498,213.620122 294.981356,210.682177 C294.591215,207.744232 284.369571,192 284.369571,192 L280,197.273197 Z" id="Path" fill="#FFB9B9" fill-rule="nonzero"></path>
            <path d="M339.386456,194 C339.386456,194 327.468431,212.752221 330.491119,214.835783 C333.513808,216.919345 345,198.487708 345,198.487708 L339.386456,194 Z" id="Path" fill="#FFB9B9" fill-rule="nonzero"></path>
            <path d="M331.219847,209.74393 L313.959621,209.74393 C310.780107,209.74393 300.333139,210.560301 298.667678,209.74393 C297.002217,208.927559 290.794612,209.001755 290.794612,209.001755 C290.794612,209.001755 278.152264,237.352061 281.558886,259.987775 C284.965508,282.623489 274.367132,360.920787 279.363511,363.295684 C284.359889,365.67058 288.826344,368.639196 293.141395,368.787625 C297.456447,368.936054 305.480937,367.080671 306.389366,365.819009 C307.297796,364.557346 311.764246,254.570045 311.764246,254.570045 C311.764246,254.570045 313.354003,363.073038 316.30641,365.522156 C319.258816,367.971274 327.737516,369.604011 333.036701,368.787635 C338.335887,367.971259 343.786485,365.076864 344.846323,363.14726 C345.906162,361.217655 341.13689,306.743525 341.13689,306.743525 C341.13689,306.743525 348.480053,223.102714 336.367624,212.638334 L331.219847,209.74393 Z" id="Path" fill="#2F2E41" fill-rule="nonzero"></path>
            <path d="M304.69126,121.844229 C304.69126,121.844229 308.327567,134.164895 301.127687,137.695816 C293.927807,141.226737 307.309401,170 307.309401,170 C307.309401,170 326,145.283541 326,139.874447 L322.872777,136.644031 C322.872777,136.644031 316.763789,126.051262 318.654665,122.745718 C320.545541,119.440174 304.69126,121.844229 304.69126,121.844229 Z" id="Path" fill="#FFB9B9" fill-rule="nonzero"></path>
            <path d="M304.69126,121.844229 C304.69126,121.844229 308.327567,134.164895 301.127687,137.695816 C293.927807,141.226737 307.309401,170 307.309401,170 C307.309401,170 326,145.283541 326,139.874447 L322.872777,136.644031 C322.872777,136.644031 316.763789,126.051262 318.654665,122.745718 C320.545541,119.440174 304.69126,121.844229 304.69126,121.844229 Z" id="Path" fill="#000000" fill-rule="nonzero" opacity="0.1"></path>
            <path d="M310.007838,162.742461 C310.007838,162.742461 305.401538,150.686407 305.938939,146.155822 C306.476341,141.625238 305.199034,134.217379 303.227453,134.005009 C301.255871,133.792639 280.98816,140.396574 278.915353,141.778795 C276.842545,143.161016 275,171.266153 275,171.266153 L284.059055,192.153028 C284.059055,192.153028 284.826771,209.277197 289.125978,210.045097 C293.425186,210.812996 334.037381,212.963117 335.342504,211.504109 C336.647626,210.045102 350.005884,170.191092 350.005884,170.191092 L353,146.846936 C353,146.846936 349.238132,142.162747 345.246016,141.087697 C341.253901,140.012647 328.356236,135.405234 326.897598,135.251657 C325.43896,135.098079 320.832659,135.942765 320.448778,137.324986 C320.064897,138.707207 310.007838,162.742461 310.007838,162.742461 Z" id="Path" fill="#D0CDE1" fill-rule="nonzero"></path>
            <circle id="Oval" fill="#FFB9B9" fill-rule="nonzero" cx="314.5" cy="113.5" r="14.5"></circle>
            <path d="M317.702821,83.8993001 C314.764313,80.3792016 308.758353,79.9985977 305.393007,83.119214 C304.485619,83.960616 303.769737,84.994722 302.822938,85.7921414 C301.902239,86.5127033 300.880963,87.0965819 299.79113,87.5254721 C296.201965,89.0856648 292.390625,90.1942984 289.042808,92.215402 C285.694991,94.2365057 282.761429,97.434873 282.346751,101.303378 C282.127429,103.349406 282.623937,105.440377 282.246984,107.463657 C281.656136,110.635123 279.090109,113.00125 276.941982,115.420522 C274.901433,117.71862 273.065406,120.994081 274.525172,123.693263 C275.766862,125.98922 278.809526,126.67047 280.51946,128.647535 C282.493532,130.930008 282.241075,134.385234 281.26354,137.232983 C280.286005,140.080732 278.69648,142.756513 278.294388,145.738524 C277.63253,150.646889 280.348708,155.457783 283.885989,158.948866 C285.504529,160.546266 287.366728,161.986567 289.551511,162.641132 C292.905557,163.570315 296.504346,162.666141 299.009675,160.264826 C301.455383,157.820504 302.576849,154.362526 302.027201,150.960449 C301.729353,149.117082 300.96595,147.307802 301.164161,145.45126 C301.571267,141.637624 305.760651,139.232082 306.753368,135.525922 C307.769099,131.733844 305.20542,128.040489 303.696659,124.413824 C301.793762,119.839741 301.525219,114.77494 301.480494,109.82617 C301.454906,106.994944 301.748402,103.679699 304.151493,102.155517 C305.721949,101.159455 307.720069,101.268726 309.578494,101.132216 C311.745386,100.973044 313.901556,100.434095 316.065103,100.632917 C318.22865,100.831739 320.513778,102.020469 321.101467,104.097525 C321.759433,106.423011 320.096189,108.784191 320.112115,111.199659 C320.119921,112.383996 320.534228,113.53807 320.541635,114.722411 C320.563145,118.162218 317.353068,120.620792 315.552978,123.559847 C313.032292,127.856836 313.443468,133.252627 316.586615,137.124092 C318.42043,139.297202 321.185354,141.074156 321.502593,143.891729 C321.68056,145.472191 321.011336,147.006581 320.60805,148.545648 C320.204764,150.084714 320.139492,151.92304 321.266047,153.053457 C322.029915,153.819952 323.165087,154.072478 324.241624,154.214558 C327.014948,154.579213 329.831801,154.443526 332.556553,153.814029 C333.259182,153.704227 333.919011,153.408391 334.466599,152.957654 C335.819811,151.655927 334.972825,149.348374 335.597925,147.583534 C336.208726,145.859062 338.10848,144.959213 339.889883,144.497805 C341.671286,144.036396 343.59652,143.793221 345.049442,142.670545 C346.664369,141.422706 347.372357,139.269259 347.281332,137.239435 C347.190306,135.209611 346.401873,133.275066 345.482787,131.459708 C345.267351,131.128288 345.162671,130.737845 345.183641,130.343935 C345.362663,129.297772 346.866306,129.388134 347.934934,129.375277 C350.755051,129.341344 352.919043,126.472623 352.997088,123.673301 C353.075134,120.87398 351.573564,118.262014 349.780426,116.100494 C347.987289,113.938974 345.854628,112.049212 344.28211,109.724496 C341.593489,105.74983 340.659551,100.678742 337.393673,97.1560978 C335.802997,95.470747 333.76781,94.2625927 331.519705,93.6691158 C329.788098,93.2015682 327.188502,93.786974 325.838386,92.5622016 C325.311219,92.0839728 325.086449,91.312561 324.570364,90.8040438 C323.731531,89.9775166 322.585436,89.7342549 321.644225,89.0660166 C319.835394,87.7818018 319.084082,85.5539354 317.702821,83.8993001 Z" id="Path" fill="#2F2E41" fill-rule="nonzero"></path>
            <path d="M283.832276,143.604526 L280.966241,143 C280.966241,143 245.367067,171.186398 243.632373,174.813602 C241.89768,178.440806 237.221507,181.690174 247.101781,187.584385 C256.982054,193.478595 281.343353,203 281.343353,203 L287,192.949623 L259.32014,178.667516 C259.32014,178.667516 265.731005,169.599506 279.080696,171.639807 L283.832276,143.604526 Z" id="Path" fill="#D0CDE1" fill-rule="nonzero"></path>
            <path d="M350.434866,146 L352.901209,147.132814 C352.901209,147.132814 390.045846,174.244792 385.63632,181.041668 C381.226795,187.838545 345.352704,204 345.352704,204 L339,193.880223 C339,193.880223 339.492513,193.64478 340.339523,193.235915 C345.691732,190.652351 365.198595,181.144421 364.037128,180.361993 C362.691849,179.455746 351.406455,169.335953 348.267471,168.958347 C345.128486,168.58074 350.434866,146 350.434866,146 Z" id="Path" fill="#D0CDE1" fill-rule="nonzero"></path>
            <path d="M534,343.645782 C534,374.300412 516.092575,385 493.997375,385 C493.486617,385 492.975858,384.994521 492.47055,384.983598 C491.443784,384.961696 490.433032,384.912484 489.427791,384.835896 C469.488233,383.408196 454,372.156126 454,343.645777 C454,314.134386 491.083505,276.882771 493.836071,274.15862 L493.841451,274.153145 C493.943565,274.049212 493.997375,274 493.997375,274 C493.997375,274 534,312.996595 534,343.645782 Z" id="Path" fill="#36AAE1" fill-rule="nonzero"></path>
            <path d="M493.296899,380.327796 L508.133055,359.527288 L493.264233,382.609204 L493.226041,385 C492.185048,384.978095 491.160292,384.928876 490.141123,384.852276 L491.738076,354.18764 L491.727162,353.946918 L491.75444,353.903138 L491.90707,351.009022 L477,327.866931 L491.950594,348.837038 L491.988787,349.449782 L493.193319,326.274867 L480.43382,302.361358 L493.351398,322.204482 L494.610491,274.158643 L494.615946,274 L494.615946,274.153168 L494.403305,312.044938 L507.108375,297.027186 L494.348862,315.311106 L494.016328,336.05692 L505.876545,316.148147 L493.967293,339.109715 L493.781992,350.64792 L511,322.93213 L493.716583,354.669086 L493.296899,380.327796 Z" id="Path" fill="#3F3D56" fill-rule="nonzero"></path>
            <path d="M117,385.254292 C117,399.891189 108.046287,405 96.9986877,405 C96.7433097,405 96.4879317,404.997389 96.2352773,404.992177 C95.7218914,404.981718 95.2165149,404.958218 94.7138984,404.921648 C84.7441158,404.239957 77,398.867345 77,385.254277 C77,371.163251 95.5417535,353.376438 96.9180368,352.075741 L96.9207239,352.073125 C96.9717589,352.023499 96.9986877,352 96.9986877,352 C96.9986877,352 117,370.619991 117,385.254292 Z" id="Path" fill="#36AAE1" fill-rule="nonzero"></path>
            <path d="M95.1484522,402.769121 L102.566528,392.837346 L95.1321165,403.858443 L95.1130247,405 C94.5925259,404.989539 94.0801474,404.966036 93.5705672,404.929461 L94.3690424,390.287796 L94.3635831,390.172858 L94.3772261,390.151956 L94.4535404,388.770077 L87,377.720249 L94.4752932,387.733008 L94.4943902,388.025575 L95.0966574,376.960073 L88.7169128,365.541916 L95.175696,375.016568 L95.8052439,352.075752 L95.8079683,352 L95.8079683,352.073135 L95.7016489,370.165609 L102.054181,362.994967 L95.6744368,371.725132 L95.5081705,381.630792 L101.438276,372.124798 L95.4836511,383.088439 L95.3910011,388.597671 L104,375.364 L95.358298,390.517663 L95.1484522,402.769121 Z" id="Path" fill="#3F3D56" fill-rule="nonzero"></path>
            <path d="M453,394.254292 C453,408.891189 444.046287,414 432.998688,414 C432.74331,414 432.487932,413.997389 432.235277,413.992177 C431.721891,413.981718 431.216515,413.958218 430.713898,413.921648 C420.744116,413.239957 413,407.867345 413,394.254277 C413,380.163251 431.541754,362.376438 432.918037,361.075741 L432.920724,361.073125 C432.971759,361.023499 432.998688,361 432.998688,361 C432.998688,361 453,379.619991 453,394.254292 Z" id="Path" fill="#5D3CFF" fill-rule="nonzero"></path>
            <path d="M432.148452,411.769121 L439.566528,401.837346 L432.132117,412.858443 L432.113025,414 C431.592526,413.989539 431.080147,413.966036 430.570567,413.929461 L431.369042,399.287796 L431.363583,399.172858 L431.377226,399.151956 L431.45354,397.770077 L424,386.720249 L431.475293,396.733008 L431.49439,397.025575 L432.096657,385.960073 L425.716913,374.541916 L432.175696,384.016568 L432.805244,361.075752 L432.807968,361 L432.807968,361.073135 L432.701649,379.165609 L439.054181,371.994967 L432.674437,380.725132 L432.50817,390.630792 L438.438276,381.124798 L432.483651,392.088439 L432.391001,397.597671 L441,384.364 L432.358298,399.517663 L432.148452,411.769121 Z" id="Path" fill="#3F3D56" fill-rule="nonzero"></path>
            <text id="?" stroke="#09638D" font-family="LucidaGrande-Bold, Lucida Grande" font-size="130" font-weight="bold" fill="#53B5E8">
                <tspan x="177" y="126">?</tspan>
            </text>
        </g>
    </g>
</svg>